SplineFontDB: 3.2
FontName: Roboto-Regular
FullName: Roboto Regular
FamilyName: Roboto
Weight: Book
Copyright: Copyright 2011 The Roboto Project Authors (https://github.com/googlefonts/roboto-classic)
Version: 3.009; 2024
ItalicAngle: 0
UnderlinePosition: -200
UnderlineWidth: 100
Ascent: 1536
Descent: 512
InvalidEm: 0
sfntRevision: 0x0003024e
LayerCount: 2
Layer: 0 1 "Back" 1
Layer: 1 1 "Fore" 0
XUID: [1021 710 -653102587 16605534]
StyleMap: 0x0040
FSType: 0
OS2Version: 4
OS2_WeightWidthSlopeOnly: 0
OS2_UseTypoMetrics: 0
CreationTime: 1221222574
ModificationTime: 1738045250
PfmFamily: 17
TTFWeight: 400
TTFWidth: 5
LineGap: 0
VLineGap: 0
Panose: 2 0 0 0 0 0 0 0 0 0
OS2TypoAscent: 1536
OS2TypoAOffset: 0
OS2TypoDescent: -512
OS2TypoDOffset: 0
OS2TypoLinegap: 102
OS2WinAscent: 1946
OS2WinAOffset: 0
OS2WinDescent: 512
OS2WinDOffset: 0
HheadAscent: 1900
HheadAOffset: 0
HheadDescent: -500
HheadDOffset: 0
OS2SubXSize: 1434
OS2SubYSize: 1331
OS2SubXOff: 0
OS2SubYOff: 287
OS2SupXSize: 1434
OS2SupYSize: 1331
OS2SupXOff: 0
OS2SupYOff: 977
OS2StrikeYSize: 102
OS2StrikeYPos: 512
OS2CapHeight: 1456
OS2XHeight: 1082
OS2Vendor: 'GOOG'
OS2CodePages: 2000019f.00000000
OS2UnicodeRanges: e00002ff.5000205b.00000020.00000000
Lookup: 1 0 0 "'c2sc' Capitals to Small Capitals lookup 0" { "'c2sc' Capitals to Small Capitals lookup 0 subtable"  } ['c2sc' ('DFLT' <'dflt' > 'cyrl' <'dflt' > 'grek' <'dflt' > 'latn' <'AZE ' 'CRT ' 'FRA ' 'MOL ' 'NAV ' 'ROM ' 'TRK ' 'dflt' > ) ]
Lookup: 1 0 0 "'smcp' Lowercase to Small Capitals lookup 1" { "'smcp' Lowercase to Small Capitals lookup 1 subtable"  } ['smcp' ('DFLT' <'dflt' > 'cyrl' <'dflt' > 'grek' <'dflt' > 'latn' <'AZE ' 'CRT ' 'FRA ' 'MOL ' 'NAV ' 'ROM ' 'TRK ' 'dflt' > ) ]
Lookup: 6 0 0 "'ccmp' Glyph Composition/Decomposition lookup 2" { "'ccmp' Glyph Composition/Decomposition lookup 2 subtable"  } ['ccmp' ('DFLT' <'dflt' > 'cyrl' <'dflt' > 'grek' <'dflt' > 'latn' <'AZE ' 'CRT ' 'FRA ' 'MOL ' 'NAV ' 'ROM ' 'TRK ' 'dflt' > ) ]

StartChar: .notdef
Encoding: 65536 -1 0
Width: 908
GlyphClass: 1
Flags: W
LayerCount: 2
Fore
SplineSet
777 1456 m 1,0,-1
 777 1402 l 1,1,-1
 127 1402 l 1,2,-1
 127 1456 l 1,3,-1
 777 1456 l 1,0,-1
154 1456 m 1,4,-1
 154 0 l 1,5,-1
 100 0 l 1,6,-1
 100 1456 l 1,7,-1
 154 1456 l 1,4,-1
808 1456 m 1,8,-1
 808 0 l 1,9,-1
 754 0 l 1,10,-1
 754 1456 l 1,11,-1
 808 1456 l 1,8,-1
777 54 m 1,12,-1
 777 0 l 1,13,-1
 127 0 l 1,14,-1
 127 54 l 1,15,-1
 777 54 l 1,12,-1
777 1426 m 1,16,-1
 184 30 l 1,17,-1
 126 30 l 1,18,-1
 719 1426 l 1,19,-1
 777 1426 l 1,16,-1
719 30 m 1,20,-1
 126 1426 l 1,21,-1
 184 1426 l 1,22,-1
 777 30 l 1,23,-1
 719 30 l 1,20,-1
EndSplineSet
EndChar

StartChar: exclam
Encoding: 33 33 5
Width: 528
GlyphClass: 1
Flags: W
LayerCount: 2
Fore
SplineSet
361 1456 m 1,0,-1
 348 411 l 1,1,-1
 181 411 l 1,2,-1
 167 1456 l 1,3,-1
 361 1456 l 1,0,-1
161 93 m 0,4,5
 161 138 161 138 188.5 169 c 128,-1,6
 216 200 216 200 270 200 c 0,7,8
 323 200 323 200 351.5 169 c 128,-1,9
 380 138 380 138 380 93 c 0,10,11
 380 50 380 50 351.5 19 c 128,-1,12
 323 -12 323 -12 270 -12 c 0,13,14
 216 -12 216 -12 188.5 19 c 128,-1,15
 161 50 161 50 161 93 c 0,4,5
EndSplineSet
EndChar

StartChar: quotedbl
Encoding: 34 34 6
Width: 656
GlyphClass: 1
Flags: W
LayerCount: 2
Fore
SplineSet
278 1536 m 1,0,-1
 278 1400 l 1,1,-1
 248 1043 l 1,2,-1
 137 1043 l 1,3,-1
 137 1391 l 1,4,-1
 137 1536 l 1,5,-1
 278 1536 l 1,0,-1
548 1536 m 1,6,-1
 548 1400 l 1,7,-1
 518 1043 l 1,8,-1
 407 1043 l 1,9,-1
 407 1398 l 1,10,-1
 407 1536 l 1,11,-1
 548 1536 l 1,6,-1
EndSplineSet
EndChar

StartChar: numbersign
Encoding: 35 35 7
Width: 1261
GlyphClass: 1
Flags: W
LayerCount: 2
Fore
SplineSet
279 0 m 1,0,-1
 562 1456 l 1,1,-1
 706 1456 l 1,2,-1
 422 0 l 1,3,-1
 279 0 l 1,0,-1
686 0 m 1,4,-1
 970 1456 l 1,5,-1
 1113 1456 l 1,6,-1
 829 0 l 1,7,-1
 686 0 l 1,4,-1
1235 901 m 1,8,-1
 195 901 l 1,9,-1
 195 1040 l 1,10,-1
 1235 1040 l 1,11,-1
 1235 901 l 1,8,-1
1160 410 m 1,12,-1
 119 410 l 1,13,-1
 119 548 l 1,14,-1
 1160 548 l 1,15,-1
 1160 410 l 1,12,-1
EndSplineSet
EndChar

StartChar: dollar
Encoding: 36 36 8
Width: 1151
GlyphClass: 1
Flags: W
LayerCount: 2
Fore
SplineSet
624 -188 m 1,0,-1
 624 1601.29980469 l 1,1,-1
 499 1601.29980469 l 1,2,-1
 499 -188 l 1,3,-1
 624 -188 l 1,0,-1
832.400390625 366.66015625 m 0,4,5
 832.400390625 309.959960938 832.400390625 309.959960938 809 268.852539062 c 128,-1,6
 785.599609375 227.745117188 785.599609375 227.745117188 748.700195312 201.28515625 c 0,7,8
 711.799804688 173.879882812 711.799804688 173.879882812 664.549804688 161.123046875 c 128,-1,9
 617.299804688 148.365234375 617.299804688 148.365234375 568.700195312 148.365234375 c 0,10,11
 507.5 148.365234375 507.5 148.365234375 455.75 165.84765625 c 128,-1,12
 404 183.330078125 404 183.330078125 364.400390625 218.294921875 c 0,13,14
 324.799804688 252.314453125 324.799804688 252.314453125 299.599609375 301.927734375 c 128,-1,15
 274.400390625 351.540039062 274.400390625 351.540039062 266.299804688 415.799804688 c 1,16,-1
 96.2001953125 415.799804688 l 1,17,18
 98.900390625 326.970703125 98.900390625 326.970703125 133.549804688 254.677734375 c 128,-1,19
 168.200195312 182.384765625 168.200195312 182.384765625 227.599609375 128.520507812 c 0,20,21
 294.200195312 66.150390625 294.200195312 66.150390625 384.650390625 33.0751953125 c 128,-1,22
 475.099609375 0 475.099609375 0 568.700195312 0 c 0,23,24
 647 0 647 0 725.299804688 23.15234375 c 128,-1,25
 803.599609375 46.3046875 803.599609375 46.3046875 865.700195312 92.6103515625 c 0,26,27
 927.799804688 137.970703125 927.799804688 137.970703125 966.950195312 206.955078125 c 128,-1,28
 1006.09960938 275.939453125 1006.09960938 275.939453125 1006.09960938 368.549804688 c 0,29,30
 1006.09960938 460.21484375 1006.09960938 460.21484375 969.650390625 530.145507812 c 128,-1,31
 933.200195312 600.075195312 933.200195312 600.075195312 873.799804688 648.270507812 c 0,32,33
 813.5 700.245117188 813.5 700.245117188 740.599609375 733.791992188 c 128,-1,34
 667.700195312 767.33984375 667.700195312 767.33984375 594.799804688 790.96484375 c 0,35,36
 550.700195312 805.139648438 550.700195312 805.139648438 500.75 824.040039062 c 128,-1,37
 450.799804688 842.939453125 450.799804688 842.939453125 408.5 871.290039062 c 0,38,39
 365.299804688 899.639648438 365.299804688 899.639648438 337.400390625 940.748046875 c 128,-1,40
 309.5 981.854492188 309.5 981.854492188 308.599609375 1041.38964844 c 0,41,42
 308.599609375 1096.20019531 308.599609375 1096.20019531 329.75 1137.77929688 c 128,-1,43
 350.900390625 1179.36035156 350.900390625 1179.36035156 386.900390625 1207.70996094 c 0,44,45
 422 1236.06054688 422 1236.06054688 467.450195312 1250.23535156 c 128,-1,46
 512.900390625 1264.41015625 512.900390625 1264.41015625 560.599609375 1264.41015625 c 0,47,48
 620 1264.41015625 620 1264.41015625 667.25 1245.03710938 c 128,-1,49
 714.5 1225.66503906 714.5 1225.66503906 748.700195312 1190.70019531 c 256,50,51
 782.900390625 1155.73535156 782.900390625 1155.73535156 803.599609375 1107.06738281 c 128,-1,52
 824.299804688 1058.40039062 824.299804688 1058.40039062 831.5 998.865234375 c 1,53,-1
 1002.5 998.865234375 l 1,54,55
 1000.70019531 1093.36523438 1000.70019531 1093.36523438 963.799804688 1169.91015625 c 128,-1,56
 926.900390625 1246.45507812 926.900390625 1246.45507812 865.700195312 1300.3203125 c 256,57,58
 804.5 1354.18554688 804.5 1354.18554688 725.299804688 1383.95214844 c 128,-1,59
 646.099609375 1413.72070312 646.099609375 1413.72070312 560.599609375 1413.72070312 c 0,60,61
 483.200195312 1413.72070312 483.200195312 1413.72070312 406.700195312 1388.67773438 c 128,-1,62
 330.200195312 1363.63476562 330.200195312 1363.63476562 269.900390625 1315.43945312 c 256,63,64
 209.599609375 1267.24511719 209.599609375 1267.24511719 172.25 1197.31445312 c 128,-1,65
 134.900390625 1127.38476562 134.900390625 1127.38476562 134.900390625 1038.5546875 c 256,66,67
 134.900390625 949.724609375 134.900390625 949.724609375 172.25 884.047851562 c 128,-1,68
 209.599609375 818.370117188 209.599609375 818.370117188 269 770.174804688 c 0,69,70
 327.5 722.924804688 327.5 722.924804688 399.049804688 689.376953125 c 128,-1,71
 470.599609375 655.830078125 470.599609375 655.830078125 539.900390625 632.205078125 c 0,72,73
 587.599609375 616.139648438 587.599609375 616.139648438 639.349609375 596.294921875 c 128,-1,74
 691.099609375 576.450195312 691.099609375 576.450195312 734.299804688 547.154296875 c 0,75,76
 777.5 516.915039062 777.5 516.915039062 804.950195312 473.4453125 c 128,-1,77
 832.400390625 429.974609375 832.400390625 429.974609375 832.400390625 366.66015625 c 0,4,5
EndSplineSet
Substitution2: "'c2sc' Capitals to Small Capitals lookup 0 subtable" dollar.c2sc
Position2: "'cpsp' Capital Spacing lookup 0 subtable" dx=36 dy=0 dh=72 dv=0
EndChar

StartChar: percent
Encoding: 37 37 9
Width: 1500
GlyphClass: 1
Flags: W
LayerCount: 2
Fore
SplineSet
105 1099 m 2,0,-1
 105 1176 l 2,1,2
 105 1259 105 1259 141 1327 c 128,-1,3
 177 1395 177 1395 244 1436 c 128,-1,4
 311 1477 311 1477 403 1477 c 0,5,6
 497 1477 497 1477 563.5 1436 c 128,-1,7
 630 1395 630 1395 666 1327 c 128,-1,8
 702 1259 702 1259 702 1176 c 2,9,-1
 702 1099 l 2,10,11
 702 1018 702 1018 666.5 950 c 128,-1,12
 631 882 631 882 564.5 841 c 128,-1,13
 498 800 498 800 405 800 c 256,14,15
 312 800 312 800 244.5 841 c 128,-1,16
 177 882 177 882 141 950 c 128,-1,17
 105 1018 105 1018 105 1099 c 2,0,-1
244 1176 m 2,18,-1
 244 1099 l 2,19,20
 244 1053 244 1053 261.5 1012 c 128,-1,21
 279 971 279 971 315 945.5 c 128,-1,22
 351 920 351 920 405 920 c 256,23,24
 459 920 459 920 494 945.5 c 128,-1,25
 529 971 529 971 546 1012 c 128,-1,26
 563 1053 563 1053 563 1099 c 2,27,-1
 563 1176 l 2,28,29
 563 1223 563 1223 545.5 1264.5 c 128,-1,30
 528 1306 528 1306 492.5 1331.5 c 128,-1,31
 457 1357 457 1357 403 1357 c 0,32,33
 350 1357 350 1357 314.5 1331.5 c 128,-1,34
 279 1306 279 1306 261.5 1264.5 c 128,-1,35
 244 1223 244 1223 244 1176 c 2,18,-1
814 279 m 2,36,-1
 814 357 l 2,37,38
 814 439 814 439 850 507 c 128,-1,39
 886 575 886 575 953 616 c 128,-1,40
 1020 657 1020 657 1112 657 c 0,41,42
 1206 657 1206 657 1272.5 616 c 128,-1,43
 1339 575 1339 575 1375 507 c 128,-1,44
 1411 439 1411 439 1411 357 c 2,45,-1
 1411 279 l 2,46,47
 1411 197 1411 197 1375.5 129 c 128,-1,48
 1340 61 1340 61 1273.5 20 c 128,-1,49
 1207 -21 1207 -21 1114 -21 c 256,50,51
 1021 -21 1021 -21 954 20 c 128,-1,52
 887 61 887 61 850.5 129 c 128,-1,53
 814 197 814 197 814 279 c 2,36,-1
953 357 m 2,54,-1
 953 279 l 2,55,56
 953 233 953 233 970.5 191.5 c 128,-1,57
 988 150 988 150 1024 124.5 c 128,-1,58
 1060 99 1060 99 1114 99 c 256,59,60
 1168 99 1168 99 1203.5 124.5 c 128,-1,61
 1239 150 1239 150 1256 191 c 128,-1,62
 1273 232 1273 232 1273 279 c 2,63,-1
 1273 357 l 2,64,65
 1273 404 1273 404 1255.5 445 c 128,-1,66
 1238 486 1238 486 1202.5 511.5 c 128,-1,67
 1167 537 1167 537 1112 537 c 0,68,69
 1059 537 1059 537 1023.5 511.5 c 128,-1,70
 988 486 988 486 970.5 445 c 128,-1,71
 953 404 953 404 953 357 c 2,54,-1
1158 1249 m 1,72,-1
 447 111 l 1,73,-1
 343 177 l 1,74,-1
 1054 1315 l 1,75,-1
 1158 1249 l 1,72,-1
EndSplineSet
EndChar

StartChar: ampersand
Encoding: 38 38 10
Width: 1274
GlyphClass: 1
Flags: W
LayerCount: 2
Fore
SplineSet
410 808 m 2,0,-1
 628 963 l 2,1,2
 691 1006 691 1006 725.5 1049.5 c 128,-1,3
 760 1093 760 1093 760 1169 c 0,4,5
 760 1228 760 1228 714 1276.5 c 128,-1,6
 668 1325 668 1325 584 1325 c 0,7,8
 526 1325 526 1325 486 1298 c 128,-1,9
 446 1271 446 1271 426 1226.5 c 128,-1,10
 406 1182 406 1182 406 1129 c 0,11,12
 406 1084 406 1084 428 1036 c 128,-1,13
 450 988 450 988 489 936 c 128,-1,14
 528 884 528 884 578 826 c 2,15,-1
 1267 0 l 1,16,-1
 1045 0 l 1,17,-1
 480 676 l 2,18,19
 405 764 405 764 346 837.5 c 128,-1,20
 287 911 287 911 253.5 980 c 128,-1,21
 220 1049 220 1049 220 1123 c 0,22,23
 220 1237 220 1237 265.5 1315.5 c 128,-1,24
 311 1394 311 1394 393 1435 c 128,-1,25
 475 1476 475 1476 585 1476 c 0,26,27
 692 1476 692 1476 769.5 1433.5 c 128,-1,28
 847 1391 847 1391 889 1321.5 c 128,-1,29
 931 1252 931 1252 931 1169 c 0,30,31
 931 1099 931 1099 906 1043.5 c 128,-1,32
 881 988 881 988 836.5 942 c 128,-1,33
 792 896 792 896 733 852 c 2,34,-1
 444 637 l 2,35,36
 372 584 372 584 339 536 c 128,-1,37
 306 488 306 488 296.5 451 c 128,-1,38
 287 414 287 414 287 392 c 0,39,40
 287 321 287 321 318 262 c 128,-1,41
 349 203 349 203 412.5 167.5 c 128,-1,42
 476 132 476 132 572 132 c 0,43,44
 656 132 656 132 735.5 170.5 c 128,-1,45
 815 209 815 209 878 280.5 c 128,-1,46
 941 352 941 352 978.5 451.5 c 128,-1,47
 1016 551 1016 551 1016 672 c 1,48,-1
 1182 672 l 1,49,50
 1182 573 1182 573 1163 485 c 128,-1,51
 1144 397 1144 397 1104.5 321.5 c 128,-1,52
 1065 246 1065 246 1004 184 c 0,53,54
 995 175 995 175 990 163 c 128,-1,55
 985 151 985 151 976 142 c 0,56,57
 901 61 901 61 791.5 20.5 c 128,-1,58
 682 -20 682 -20 572 -20 c 0,59,60
 427 -20 427 -20 321.5 33 c 128,-1,61
 216 86 216 86 159 179 c 128,-1,62
 102 272 102 272 102 392 c 0,63,64
 102 484 102 484 141.5 554 c 128,-1,65
 181 624 181 624 250.5 685 c 128,-1,66
 320 746 320 746 410 808 c 2,0,-1
EndSplineSet
Substitution2: "'smcp' Lowercase to Small Capitals lookup 1 subtable" ampersand.c2sc
Substitution2: "'c2sc' Capitals to Small Capitals lookup 0 subtable" ampersand.c2sc
Position2: "'cpsp' Capital Spacing lookup 0 subtable" dx=36 dy=0 dh=72 dv=0
EndChar

StartChar: quotesingle
Encoding: 39 39 11
Width: 358
GlyphClass: 1
Flags: W
LayerCount: 2
Fore
SplineSet
254 1536 m 1,0,-1
 254 1426 l 1,1,-1
 233 1058 l 1,2,-1
 104 1058 l 1,3,-1
 105 1409 l 1,4,-1
 105 1536 l 1,5,-1
 254 1536 l 1,0,-1
EndSplineSet
EndChar

StartChar: parenleft
Encoding: 40 40 12
Width: 701
GlyphClass: 1
Flags: W
LayerCount: 2
Fore
SplineSet
134 582 m 2,0,-1
 134 592 l 2,1,2
 134 810 134 810 183 986.5 c 128,-1,3
 232 1163 232 1163 308 1296 c 128,-1,4
 384 1429 384 1429 468 1516.5 c 128,-1,5
 552 1604 552 1604 623 1643 c 1,6,-1
 662 1521 l 1,7,8
 603 1476 603 1476 542.5 1397 c 128,-1,9
 482 1318 482 1318 431.5 1203 c 128,-1,10
 381 1088 381 1088 350 936 c 128,-1,11
 319 784 319 784 319 594 c 2,12,-1
 319 580 l 2,13,14
 319 390 319 390 350 237.5 c 128,-1,15
 381 85 381 85 431.5 -31 c 128,-1,16
 482 -147 482 -147 542.5 -228.5 c 128,-1,17
 603 -310 603 -310 662 -358 c 1,18,-1
 623 -470 l 1,19,20
 552 -431 552 -431 468 -343.5 c 128,-1,21
 384 -256 384 -256 308 -123.5 c 128,-1,22
 232 9 232 9 183 186 c 128,-1,23
 134 363 134 363 134 582 c 2,0,-1
EndSplineSet
EndChar

StartChar: parenright
Encoding: 41 41 13
Width: 713
GlyphClass: 1
Flags: W
LayerCount: 2
Fore
SplineSet
567 592 m 2,0,-1
 567 582 l 2,1,2
 567 363 567 363 518 186 c 128,-1,3
 469 9 469 9 393 -123.5 c 128,-1,4
 317 -256 317 -256 233 -343.5 c 128,-1,5
 149 -431 149 -431 78 -470 c 1,6,-1
 39 -358 l 1,7,8
 98 -313 98 -313 158 -232.5 c 128,-1,9
 218 -152 218 -152 269 -34.5 c 128,-1,10
 320 83 320 83 351 236.5 c 128,-1,11
 382 390 382 390 382 580 c 2,12,-1
 382 594 l 2,13,14
 382 784 382 784 349 937.5 c 128,-1,15
 316 1091 316 1091 263.5 1208 c 128,-1,16
 211 1325 211 1325 151.5 1405.5 c 128,-1,17
 92 1486 92 1486 39 1530 c 1,18,-1
 78 1643 l 1,19,20
 149 1604 149 1604 233 1516.5 c 128,-1,21
 317 1429 317 1429 393 1296 c 128,-1,22
 469 1163 469 1163 518 986.5 c 128,-1,23
 567 810 567 810 567 592 c 2,0,-1
EndSplineSet
EndChar

StartChar: asterisk
Encoding: 42 42 14
Width: 882
GlyphClass: 1
Flags: W
LayerCount: 2
Fore
SplineSet
129 708 m 1,0,-1
 330 984 l 1,1,-1
 28 1074 l 1,2,-1
 75 1224 l 1,3,-1
 377 1113 l 1,4,-1
 368 1457 l 1,5,-1
 520 1457 l 1,6,-1
 510 1107 l 1,7,-1
 808 1218 l 1,8,-1
 854 1065 l 1,9,-1
 547 974 l 1,10,-1
 744 703 l 1,11,-1
 620 610 l 1,12,-1
 435 898 l 1,13,-1
 254 617 l 1,14,-1
 129 708 l 1,0,-1
EndSplineSet
EndChar

StartChar: plus
Encoding: 43 43 15
Width: 1162
GlyphClass: 1
Flags: W
LayerCount: 2
Fore
SplineSet
1076 781 m 1,0,-1
 1076 607 l 1,1,-1
 78 607 l 1,2,-1
 78 781 l 1,3,-1
 1076 781 l 1,0,-1
670 1206 m 1,4,-1
 670 146 l 1,5,-1
 485 146 l 1,6,-1
 485 1206 l 1,7,-1
 670 1206 l 1,4,-1
EndSplineSet
EndChar

StartChar: comma
Encoding: 44 44 16
Width: 403
GlyphClass: 1
Flags: W
LayerCount: 2
Fore
SplineSet
309 220 m 1,0,-1
 309 71 l 2,1,2
 309 -20 309 -20 263 -121.5 c 128,-1,3
 217 -223 217 -223 134 -291 c 1,4,-1
 29 -218 l 1,5,6
 61 -174 61 -174 83 -128.5 c 128,-1,7
 105 -83 105 -83 116.5 -34.5 c 128,-1,8
 128 14 128 14 128 68 c 2,9,-1
 128 220 l 1,10,-1
 309 220 l 1,0,-1
EndSplineSet
EndChar

StartChar: hyphen
Encoding: 45 45 17
Width: 566
GlyphClass: 1
Flags: W
LayerCount: 2
Fore
SplineSet
526 695 m 1,0,-1
 526 543 l 1,1,-1
 38 543 l 1,2,-1
 38 695 l 1,3,-1
 526 695 l 1,0,-1
EndSplineSet
EndChar

StartChar: period
Encoding: 46 46 18
Width: 540
GlyphClass: 1
Flags: W
LayerCount: 2
Fore
SplineSet
144 98 m 0,0,1
 144 145 144 145 173.5 177.5 c 128,-1,2
 203 210 203 210 259 210 c 256,3,4
 315 210 315 210 344.5 177.5 c 128,-1,5
 374 145 374 145 374 98 c 0,6,7
 374 52 374 52 344.5 20 c 128,-1,8
 315 -12 315 -12 259 -12 c 256,9,10
 203 -12 203 -12 173.5 20 c 128,-1,11
 144 52 144 52 144 98 c 0,0,1
EndSplineSet
EndChar

StartChar: slash
Encoding: 47 47 19
Width: 845
GlyphClass: 1
Flags: W
LayerCount: 2
Fore
SplineSet
785 1456 m 1,0,-1
 178 -125 l 1,1,-1
 19 -125 l 1,2,-1
 627 1456 l 1,3,-1
 785 1456 l 1,0,-1
EndSplineSet
Substitution2: "'frac' Diagonal Fractions lookup 23 subtable" fraction
EndChar

StartChar: zero
Encoding: 48 48 20
Width: 1151
GlyphClass: 1
Flags: W
LayerCount: 2
Fore
SplineSet
1035 844 m 2,0,-1
 1035 622 l 2,1,2
 1035 443 1035 443 1003 320 c 128,-1,3
 971 197 971 197 911 122 c 128,-1,4
 851 47 851 47 766.5 13.5 c 128,-1,5
 682 -20 682 -20 576 -20 c 0,6,7
 492 -20 492 -20 421 1 c 128,-1,8
 350 22 350 22 293.5 68.5 c 128,-1,9
 237 115 237 115 197 190 c 128,-1,10
 157 265 157 265 136 372 c 128,-1,11
 115 479 115 479 115 622 c 2,12,-1
 115 844 l 2,13,14
 115 1023 115 1023 147.5 1144 c 128,-1,15
 180 1265 180 1265 240 1338.5 c 128,-1,16
 300 1412 300 1412 384.5 1444 c 128,-1,17
 469 1476 469 1476 574 1476 c 0,18,19
 659 1476 659 1476 730.5 1455.5 c 128,-1,20
 802 1435 802 1435 858 1390.5 c 128,-1,21
 914 1346 914 1346 953.5 1272.5 c 128,-1,22
 993 1199 993 1199 1014 1093 c 128,-1,23
 1035 987 1035 987 1035 844 c 2,0,-1
849 592 m 2,24,-1
 849 875 l 2,25,26
 849 973 849 973 837.5 1047.5 c 128,-1,27
 826 1122 826 1122 804 1175 c 128,-1,28
 782 1228 782 1228 748.5 1261 c 128,-1,29
 715 1294 715 1294 671.5 1309.5 c 128,-1,30
 628 1325 628 1325 574 1325 c 0,31,32
 508 1325 508 1325 457 1300.5 c 128,-1,33
 406 1276 406 1276 371.5 1223 c 128,-1,34
 337 1170 337 1170 319 1084 c 128,-1,35
 301 998 301 998 301 875 c 2,36,-1
 301 592 l 2,37,38
 301 494 301 494 312.5 419 c 128,-1,39
 324 344 324 344 347 289.5 c 128,-1,40
 370 235 370 235 403 200 c 128,-1,41
 436 165 436 165 479.5 148.5 c 128,-1,42
 523 132 523 132 576 132 c 0,43,44
 644 132 644 132 695 158 c 128,-1,45
 746 184 746 184 780.5 239.5 c 128,-1,46
 815 295 815 295 832 382.5 c 128,-1,47
 849 470 849 470 849 592 c 2,24,-1
EndSplineSet
Substitution2: "'subs' Subscript lookup 30 subtable" uni2080
Substitution2: "'sups' Superscript lookup 29 subtable" uni2070
Substitution2: "'numr' Numerators lookup 28 subtable" zero.frac
Substitution2: "'dnom' Denominators lookup 27 subtable" zero.dnom
Substitution2: "'frac' Diagonal Fractions lookup 26 subtable" zero.frac
Substitution2: "Single Substitution lookup 25 subtable" zero.dnom
Substitution2: "'pnum' Proportional Numbers lookup 20 subtable" zero.pnum
Substitution2: "'onum' Oldstyle Figures lookup 19 subtable" zero.oldstyle
Substitution2: "'c2sc' Capitals to Small Capitals lookup 0 subtable" zero.c2sc
Position2: "'cpsp' Capital Spacing lookup 0 subtable" dx=36 dy=0 dh=72 dv=0
EndChar

StartChar: one
Encoding: 49 49 21
Width: 1151
GlyphClass: 1
Flags: W
LayerCount: 2
Fore
SplineSet
729 1464 m 1,0,-1
 729 0 l 1,1,-1
 544 0 l 1,2,-1
 544 1233 l 1,3,-1
 171 1097 l 1,4,-1
 171 1264 l 1,5,-1
 700 1464 l 1,6,-1
 729 1464 l 1,0,-1
EndSplineSet
Substitution2: "'subs' Subscript lookup 30 subtable" uni2081
Substitution2: "'sups' Superscript lookup 29 subtable" uni00B9
Substitution2: "'numr' Numerators lookup 28 subtable" uni00B9
Substitution2: "'dnom' Denominators lookup 27 subtable" one.dnom
Substitution2: "'frac' Diagonal Fractions lookup 26 subtable" uni00B9
Substitution2: "Single Substitution lookup 25 subtable" one.dnom
Substitution2: "'pnum' Proportional Numbers lookup 20 subtable" one.pnum
Substitution2: "'onum' Oldstyle Figures lookup 19 subtable" one.oldstyle
Substitution2: "'c2sc' Capitals to Small Capitals lookup 0 subtable" one.c2sc
Position2: "'cpsp' Capital Spacing lookup 0 subtable" dx=36 dy=0 dh=72 dv=0
EndChar

StartChar: two
Encoding: 50 50 22
Width: 1151
GlyphClass: 1
Flags: W
LayerCount: 2
Fore
SplineSet
1075 152 m 1,0,-1
 1075 0 l 1,1,-1
 122 0 l 1,2,-1
 122 133 l 1,3,-1
 599 664 l 2,4,5
 687 762 687 762 735.5 830.5 c 128,-1,6
 784 899 784 899 803.5 953.5 c 128,-1,7
 823 1008 823 1008 823 1065 c 0,8,9
 823 1137 823 1137 793.5 1195.5 c 128,-1,10
 764 1254 764 1254 707 1289 c 128,-1,11
 650 1324 650 1324 569 1324 c 0,12,13
 472 1324 472 1324 407.5 1286.5 c 128,-1,14
 343 1249 343 1249 311 1182 c 128,-1,15
 279 1115 279 1115 279 1028 c 1,16,-1
 94 1028 l 1,17,18
 94 1151 94 1151 148 1253 c 128,-1,19
 202 1355 202 1355 308 1415.5 c 128,-1,20
 414 1476 414 1476 569 1476 c 0,21,22
 707 1476 707 1476 805 1427.5 c 128,-1,23
 903 1379 903 1379 955.5 1291.5 c 128,-1,24
 1008 1204 1008 1204 1008 1087 c 0,25,26
 1008 1023 1008 1023 986.5 957.5 c 128,-1,27
 965 892 965 892 927.5 827 c 128,-1,28
 890 762 890 762 840.5 699 c 128,-1,29
 791 636 791 636 735 575 c 2,30,-1
 345 152 l 1,31,-1
 1075 152 l 1,0,-1
EndSplineSet
Substitution2: "'subs' Subscript lookup 30 subtable" uni2082
Substitution2: "'sups' Superscript lookup 29 subtable" uni00B2
Substitution2: "'numr' Numerators lookup 28 subtable" uni00B2
Substitution2: "'dnom' Denominators lookup 27 subtable" two.dnom
Substitution2: "'frac' Diagonal Fractions lookup 26 subtable" uni00B2
Substitution2: "Single Substitution lookup 25 subtable" two.dnom
Substitution2: "'pnum' Proportional Numbers lookup 20 subtable" two.pnum
Substitution2: "'onum' Oldstyle Figures lookup 19 subtable" two.oldstyle
Substitution2: "'c2sc' Capitals to Small Capitals lookup 0 subtable" two.c2sc
Position2: "'cpsp' Capital Spacing lookup 0 subtable" dx=36 dy=0 dh=72 dv=0
EndChar

StartChar: three
Encoding: 51 51 23
Width: 1151
GlyphClass: 1
Flags: W
LayerCount: 2
Fore
SplineSet
391 819 m 1,0,-1
 523 819 l 2,1,2
 620 819 620 819 683.5 851.5 c 128,-1,3
 747 884 747 884 778.5 940.5 c 128,-1,4
 810 997 810 997 810 1068 c 0,5,6
 810 1152 810 1152 782 1209 c 128,-1,7
 754 1266 754 1266 698 1295 c 128,-1,8
 642 1324 642 1324 556 1324 c 0,9,10
 478 1324 478 1324 418.5 1293.5 c 128,-1,11
 359 1263 359 1263 325.5 1207 c 128,-1,12
 292 1151 292 1151 292 1075 c 1,13,-1
 107 1075 l 1,14,15
 107 1186 107 1186 163 1277 c 128,-1,16
 219 1368 219 1368 320.5 1422 c 128,-1,17
 422 1476 422 1476 556 1476 c 0,18,19
 688 1476 688 1476 787 1429.5 c 128,-1,20
 886 1383 886 1383 941 1291.5 c 128,-1,21
 996 1200 996 1200 996 1064 c 0,22,23
 996 1009 996 1009 970.5 946.5 c 128,-1,24
 945 884 945 884 891.5 830 c 128,-1,25
 838 776 838 776 753 741.5 c 128,-1,26
 668 707 668 707 549 707 c 2,27,-1
 391 707 l 1,28,-1
 391 819 l 1,0,-1
391 667 m 1,29,-1
 391 778 l 1,30,-1
 549 778 l 2,31,32
 688 778 688 778 779 745 c 128,-1,33
 870 712 870 712 922.5 657 c 128,-1,34
 975 602 975 602 996.5 536.5 c 128,-1,35
 1018 471 1018 471 1018 406 c 0,36,37
 1018 304 1018 304 983.5 225 c 128,-1,38
 949 146 949 146 886.5 91 c 128,-1,39
 824 36 824 36 740 8 c 128,-1,40
 656 -20 656 -20 557 -20 c 0,41,42
 462 -20 462 -20 378.5 7 c 128,-1,43
 295 34 295 34 231 85.5 c 128,-1,44
 167 137 167 137 131 212.5 c 128,-1,45
 95 288 95 288 95 385 c 1,46,-1
 280 385 l 1,47,48
 280 309 280 309 313.5 252 c 128,-1,49
 347 195 347 195 409.5 163.5 c 128,-1,50
 472 132 472 132 557 132 c 256,51,52
 642 132 642 132 703.5 161.5 c 128,-1,53
 765 191 765 191 798.5 251 c 128,-1,54
 832 311 832 311 832 402 c 256,55,56
 832 493 832 493 794 551.5 c 128,-1,57
 756 610 756 610 686.5 638.5 c 128,-1,58
 617 667 617 667 523 667 c 2,59,-1
 391 667 l 1,29,-1
EndSplineSet
Substitution2: "'subs' Subscript lookup 30 subtable" uni2083
Substitution2: "'sups' Superscript lookup 29 subtable" uni00B3
Substitution2: "'numr' Numerators lookup 28 subtable" uni00B3
Substitution2: "'dnom' Denominators lookup 27 subtable" three.dnom
Substitution2: "'frac' Diagonal Fractions lookup 26 subtable" uni00B3
Substitution2: "Single Substitution lookup 25 subtable" three.dnom
Substitution2: "'pnum' Proportional Numbers lookup 20 subtable" three.pnum
Substitution2: "'onum' Oldstyle Figures lookup 19 subtable" three.oldstyle
Substitution2: "'c2sc' Capitals to Small Capitals lookup 0 subtable" three.c2sc
Position2: "'cpsp' Capital Spacing lookup 0 subtable" dx=36 dy=0 dh=72 dv=0
EndChar

StartChar: four
Encoding: 52 52 24
Width: 1151
GlyphClass: 1
Flags: W
LayerCount: 2
Fore
SplineSet
1105 490 m 1,0,-1
 1105 338 l 1,1,-1
 53 338 l 1,2,-1
 53 447 l 1,3,-1
 705 1456 l 1,4,-1
 856 1456 l 1,5,-1
 694 1164 l 1,6,-1
 263 490 l 1,7,-1
 1105 490 l 1,0,-1
902 1456 m 1,8,-1
 902 0 l 1,9,-1
 717 0 l 1,10,-1
 717 1456 l 1,11,-1
 902 1456 l 1,8,-1
EndSplineSet
Substitution2: "'subs' Subscript lookup 30 subtable" uni2084
Substitution2: "'sups' Superscript lookup 29 subtable" uni2074
Substitution2: "'numr' Numerators lookup 28 subtable" four.frac
Substitution2: "'dnom' Denominators lookup 27 subtable" four.dnom
Substitution2: "'frac' Diagonal Fractions lookup 26 subtable" four.frac
Substitution2: "Single Substitution lookup 25 subtable" four.dnom
Substitution2: "'pnum' Proportional Numbers lookup 20 subtable" four.pnum
Substitution2: "'onum' Oldstyle Figures lookup 19 subtable" four.oldstyle
Substitution2: "'c2sc' Capitals to Small Capitals lookup 0 subtable" four.c2sc
Position2: "'cpsp' Capital Spacing lookup 0 subtable" dx=36 dy=0 dh=72 dv=0
EndChar

StartChar: five
Encoding: 53 53 25
Width: 1151
GlyphClass: 1
Flags: W
LayerCount: 2
Fore
SplineSet
355 693 m 1,0,-1
 207 731 l 1,1,-1
 280 1456 l 1,2,-1
 1027 1456 l 1,3,-1
 1027 1285 l 1,4,-1
 437 1285 l 1,5,-1
 393 889 l 1,6,7
 433 912 433 912 494.5 932 c 128,-1,8
 556 952 556 952 636 952 c 0,9,10
 737 952 737 952 817 917.5 c 128,-1,11
 897 883 897 883 953.5 819 c 128,-1,12
 1010 755 1010 755 1040 665 c 128,-1,13
 1070 575 1070 575 1070 464 c 0,14,15
 1070 359 1070 359 1041.5 271 c 128,-1,16
 1013 183 1013 183 956 117.5 c 128,-1,17
 899 52 899 52 812.5 16 c 128,-1,18
 726 -20 726 -20 609 -20 c 0,19,20
 521 -20 521 -20 442.5 4.5 c 128,-1,21
 364 29 364 29 302.5 79.5 c 128,-1,22
 241 130 241 130 202.5 205.5 c 128,-1,23
 164 281 164 281 154 383 c 1,24,-1
 330 383 l 1,25,26
 342 301 342 301 378 245 c 128,-1,27
 414 189 414 189 472.5 160.5 c 128,-1,28
 531 132 531 132 609 132 c 0,29,30
 675 132 675 132 726 155 c 128,-1,31
 777 178 777 178 812 221 c 128,-1,32
 847 264 847 264 865.5 325 c 128,-1,33
 884 386 884 386 884 462 c 0,34,35
 884 531 884 531 865 590 c 128,-1,36
 846 649 846 649 808.5 693 c 128,-1,37
 771 737 771 737 717 761.5 c 128,-1,38
 663 786 663 786 593 786 c 0,39,40
 500 786 500 786 452.5 761 c 128,-1,41
 405 736 405 736 355 693 c 1,0,-1
EndSplineSet
Substitution2: "'subs' Subscript lookup 30 subtable" uni2085
Substitution2: "'sups' Superscript lookup 29 subtable" uni2075
Substitution2: "'numr' Numerators lookup 28 subtable" five.frac
Substitution2: "'dnom' Denominators lookup 27 subtable" five.dnom
Substitution2: "'frac' Diagonal Fractions lookup 26 subtable" five.frac
Substitution2: "Single Substitution lookup 25 subtable" five.dnom
Substitution2: "'pnum' Proportional Numbers lookup 20 subtable" five.pnum
Substitution2: "'onum' Oldstyle Figures lookup 19 subtable" five.oldstyle
Substitution2: "'c2sc' Capitals to Small Capitals lookup 0 subtable" five.c2sc
Position2: "'cpsp' Capital Spacing lookup 0 subtable" dx=36 dy=0 dh=72 dv=0
EndChar

StartChar: six
Encoding: 54 54 26
Width: 1151
GlyphClass: 1
Flags: W
LayerCount: 2
Fore
SplineSet
831 1458 m 2,0,-1
 847 1458 l 1,1,-1
 847 1301 l 1,2,-1
 831 1301 l 2,3,4
 684 1301 684 1301 585 1253.5 c 128,-1,5
 486 1206 486 1206 428 1126.5 c 128,-1,6
 370 1047 370 1047 344.5 948 c 128,-1,7
 319 849 319 849 319 747 c 2,8,-1
 319 533 l 2,9,10
 319 436 319 436 342 361.5 c 128,-1,11
 365 287 365 287 405 236 c 128,-1,12
 445 185 445 185 495.5 159 c 128,-1,13
 546 133 546 133 601 133 c 0,14,15
 665 133 665 133 715 157.5 c 128,-1,16
 765 182 765 182 799.5 226.5 c 128,-1,17
 834 271 834 271 852 332 c 128,-1,18
 870 393 870 393 870 466 c 0,19,20
 870 531 870 531 854 591.5 c 128,-1,21
 838 652 838 652 805 699.5 c 128,-1,22
 772 747 772 747 722.5 774.5 c 128,-1,23
 673 802 673 802 605 802 c 0,24,25
 528 802 528 802 461.5 764.5 c 128,-1,26
 395 727 395 727 352.5 666.5 c 128,-1,27
 310 606 310 606 304 535 c 1,28,-1
 206 536 l 1,29,30
 220 648 220 648 258.5 727.5 c 128,-1,31
 297 807 297 807 354.5 857.5 c 128,-1,32
 412 908 412 908 483.5 931.5 c 128,-1,33
 555 955 555 955 635 955 c 0,34,35
 744 955 744 955 823 914 c 128,-1,36
 902 873 902 873 953 804.5 c 128,-1,37
 1004 736 1004 736 1028.5 650.5 c 128,-1,38
 1053 565 1053 565 1053 475 c 0,39,40
 1053 372 1053 372 1024 282 c 128,-1,41
 995 192 995 192 937.5 124 c 128,-1,42
 880 56 880 56 796 18 c 128,-1,43
 712 -20 712 -20 601 -20 c 0,44,45
 483 -20 483 -20 395 28.5 c 128,-1,46
 307 77 307 77 249 158 c 128,-1,47
 191 239 191 239 162 338 c 128,-1,48
 133 437 133 437 133 539 c 2,49,-1
 133 626 l 2,50,51
 133 780 133 780 164 928 c 128,-1,52
 195 1076 195 1076 271.5 1196 c 128,-1,53
 348 1316 348 1316 484 1387 c 128,-1,54
 620 1458 620 1458 831 1458 c 2,0,-1
EndSplineSet
Substitution2: "'subs' Subscript lookup 30 subtable" uni2086
Substitution2: "'sups' Superscript lookup 29 subtable" uni2076
Substitution2: "'numr' Numerators lookup 28 subtable" six.frac
Substitution2: "'dnom' Denominators lookup 27 subtable" six.dnom
Substitution2: "'frac' Diagonal Fractions lookup 26 subtable" six.frac
Substitution2: "Single Substitution lookup 25 subtable" six.dnom
Substitution2: "'lnum' Lining Figures lookup 22 subtable" six.pnum
Substitution2: "'tnum' Tabular Numbers lookup 21 subtable" six.oldstyle
Substitution2: "'pnum' Proportional Numbers lookup 20 subtable" six.pnum
Substitution2: "'onum' Oldstyle Figures lookup 19 subtable" six.oldstyle
Substitution2: "'c2sc' Capitals to Small Capitals lookup 0 subtable" six.c2sc
Position2: "'cpsp' Capital Spacing lookup 0 subtable" dx=36 dy=0 dh=72 dv=0
EndChar

StartChar: seven
Encoding: 55 55 27
Width: 1151
GlyphClass: 1
Flags: W
LayerCount: 2
Fore
SplineSet
1062 1456 m 1,0,-1
 1062 1352 l 1,1,-1
 459 0 l 1,2,-1
 264 0 l 1,3,-1
 866 1304 l 1,4,-1
 78 1304 l 1,5,-1
 78 1456 l 1,6,-1
 1062 1456 l 1,0,-1
EndSplineSet
Substitution2: "'subs' Subscript lookup 30 subtable" uni2087
Substitution2: "'sups' Superscript lookup 29 subtable" uni2077
Substitution2: "'numr' Numerators lookup 28 subtable" seven.frac
Substitution2: "'dnom' Denominators lookup 27 subtable" seven.dnom
Substitution2: "'frac' Diagonal Fractions lookup 26 subtable" seven.frac
Substitution2: "Single Substitution lookup 25 subtable" seven.dnom
Substitution2: "'pnum' Proportional Numbers lookup 20 subtable" seven.pnum
Substitution2: "'onum' Oldstyle Figures lookup 19 subtable" seven.oldstyle
Substitution2: "'c2sc' Capitals to Small Capitals lookup 0 subtable" seven.c2sc
Position2: "'cpsp' Capital Spacing lookup 0 subtable" dx=36 dy=0 dh=72 dv=0
EndChar

StartChar: eight
Encoding: 56 56 28
Width: 1151
GlyphClass: 1
Flags: W
LayerCount: 2
Fore
SplineSet
1039 394 m 0,0,1
 1039 261 1039 261 977.5 168.5 c 128,-1,2
 916 76 916 76 811.5 28 c 128,-1,3
 707 -20 707 -20 576 -20 c 256,4,5
 445 -20 445 -20 340 28 c 128,-1,6
 235 76 235 76 174 168.5 c 128,-1,7
 113 261 113 261 113 394 c 0,8,9
 113 481 113 481 146.5 553.5 c 128,-1,10
 180 626 180 626 241.5 680 c 128,-1,11
 303 734 303 734 387.5 763.5 c 128,-1,12
 472 793 472 793 574 793 c 0,13,14
 708 793 708 793 813 741.5 c 128,-1,15
 918 690 918 690 978.5 600 c 128,-1,16
 1039 510 1039 510 1039 394 c 0,0,1
853 398 m 0,17,18
 853 479 853 479 818 541.5 c 128,-1,19
 783 604 783 604 720 639 c 128,-1,20
 657 674 657 674 574 674 c 0,21,22
 489 674 489 674 427.5 639 c 128,-1,23
 366 604 366 604 332 541.5 c 128,-1,24
 298 479 298 479 298 398 c 0,25,26
 298 314 298 314 331.5 254.5 c 128,-1,27
 365 195 365 195 427.5 163.5 c 128,-1,28
 490 132 490 132 576 132 c 256,29,30
 662 132 662 132 724 163.5 c 128,-1,31
 786 195 786 195 819.5 254.5 c 128,-1,32
 853 314 853 314 853 398 c 0,17,18
1005 1077 m 0,33,34
 1005 971 1005 971 949 886 c 128,-1,35
 893 801 893 801 796 752 c 128,-1,36
 699 703 699 703 576 703 c 0,37,38
 451 703 451 703 353.5 752 c 128,-1,39
 256 801 256 801 201 886 c 128,-1,40
 146 971 146 971 146 1077 c 0,41,42
 146 1204 146 1204 201.5 1293 c 128,-1,43
 257 1382 257 1382 354 1429 c 128,-1,44
 451 1476 451 1476 575 1476 c 0,45,46
 700 1476 700 1476 797 1429 c 128,-1,47
 894 1382 894 1382 949.5 1293 c 128,-1,48
 1005 1204 1005 1204 1005 1077 c 0,33,34
820 1074 m 0,49,50
 820 1147 820 1147 789 1203 c 128,-1,51
 758 1259 758 1259 703 1291.5 c 128,-1,52
 648 1324 648 1324 575 1324 c 256,53,54
 502 1324 502 1324 447.5 1293.5 c 128,-1,55
 393 1263 393 1263 362.5 1207 c 128,-1,56
 332 1151 332 1151 332 1074 c 0,57,58
 332 999 332 999 362.5 943 c 128,-1,59
 393 887 393 887 448 856 c 128,-1,60
 503 825 503 825 576 825 c 256,61,62
 649 825 649 825 703.5 856 c 128,-1,63
 758 887 758 887 789 943 c 128,-1,64
 820 999 820 999 820 1074 c 0,49,50
EndSplineSet
Substitution2: "'subs' Subscript lookup 30 subtable" uni2088
Substitution2: "'sups' Superscript lookup 29 subtable" uni2078
Substitution2: "'numr' Numerators lookup 28 subtable" eight.frac
Substitution2: "'dnom' Denominators lookup 27 subtable" eight.dnom
Substitution2: "'frac' Diagonal Fractions lookup 26 subtable" eight.frac
Substitution2: "Single Substitution lookup 25 subtable" eight.dnom
Substitution2: "'lnum' Lining Figures lookup 22 subtable" eight.pnum
Substitution2: "'tnum' Tabular Numbers lookup 21 subtable" eight.oldstyle
Substitution2: "'pnum' Proportional Numbers lookup 20 subtable" eight.pnum
Substitution2: "'onum' Oldstyle Figures lookup 19 subtable" eight.oldstyle
Substitution2: "'c2sc' Capitals to Small Capitals lookup 0 subtable" eight.c2sc
Position2: "'cpsp' Capital Spacing lookup 0 subtable" dx=36 dy=0 dh=72 dv=0
EndChar

StartChar: nine
Encoding: 57 57 29
Width: 1151
GlyphClass: 1
Flags: W
LayerCount: 2
Fore
SplineSet
305 155 m 1,0,-1
 324 155 l 2,1,2
 484 155 484 155 584 200 c 128,-1,3
 684 245 684 245 738 321 c 128,-1,4
 792 397 792 397 812 492.5 c 128,-1,5
 832 588 832 588 832 689 c 2,6,-1
 832 912 l 2,7,8
 832 1011 832 1011 809.5 1088 c 128,-1,9
 787 1165 787 1165 747.5 1217 c 128,-1,10
 708 1269 708 1269 658 1296 c 128,-1,11
 608 1323 608 1323 552 1323 c 0,12,13
 488 1323 488 1323 437.5 1297.5 c 128,-1,14
 387 1272 387 1272 352.5 1226 c 128,-1,15
 318 1180 318 1180 300 1118 c 128,-1,16
 282 1056 282 1056 282 983 c 0,17,18
 282 918 282 918 298 857 c 128,-1,19
 314 796 314 796 347 747 c 128,-1,20
 380 698 380 698 429.5 669.5 c 128,-1,21
 479 641 479 641 546 641 c 0,22,23
 608 641 608 641 662.5 665.5 c 128,-1,24
 717 690 717 690 759.5 732.5 c 128,-1,25
 802 775 802 775 827.5 829 c 128,-1,26
 853 883 853 883 857 942 c 1,27,-1
 945 942 l 1,28,29
 945 859 945 859 912.5 778.5 c 128,-1,30
 880 698 880 698 822 632 c 128,-1,31
 764 566 764 566 686 526.5 c 128,-1,32
 608 487 608 487 516 487 c 0,33,34
 408 487 408 487 329 529 c 128,-1,35
 250 571 250 571 199.5 641 c 128,-1,36
 149 711 149 711 124.5 797.5 c 128,-1,37
 100 884 100 884 100 973 c 0,38,39
 100 1077 100 1077 129 1168 c 128,-1,40
 158 1259 158 1259 215 1328.5 c 128,-1,41
 272 1398 272 1398 356.5 1437 c 128,-1,42
 441 1476 441 1476 552 1476 c 0,43,44
 677 1476 677 1476 765 1426 c 128,-1,45
 853 1376 853 1376 908.5 1292 c 128,-1,46
 964 1208 964 1208 990 1103 c 128,-1,47
 1016 998 1016 998 1016 887 c 2,48,-1
 1016 820 l 2,49,50
 1016 707 1016 707 1001.5 590.5 c 128,-1,51
 987 474 987 474 946.5 368 c 128,-1,52
 906 262 906 262 829 178.5 c 128,-1,53
 752 95 752 95 628.5 46.5 c 128,-1,54
 505 -2 505 -2 324 -2 c 2,55,-1
 305 -2 l 1,56,-1
 305 155 l 1,0,-1
EndSplineSet
Substitution2: "'subs' Subscript lookup 30 subtable" uni2089
Substitution2: "'sups' Superscript lookup 29 subtable" uni2079
Substitution2: "'numr' Numerators lookup 28 subtable" nine.frac
Substitution2: "'dnom' Denominators lookup 27 subtable" nine.dnom
Substitution2: "'frac' Diagonal Fractions lookup 26 subtable" nine.frac
Substitution2: "Single Substitution lookup 25 subtable" nine.dnom
Substitution2: "'pnum' Proportional Numbers lookup 20 subtable" nine.pnum
Substitution2: "'onum' Oldstyle Figures lookup 19 subtable" nine.oldstyle
Substitution2: "'c2sc' Capitals to Small Capitals lookup 0 subtable" nine.c2sc
Position2: "'cpsp' Capital Spacing lookup 0 subtable" dx=36 dy=0 dh=72 dv=0
EndChar

StartChar: less
Encoding: 60 60 32
Width: 1041
GlyphClass: 1
Flags: W
LayerCount: 2
Fore
SplineSet
199 672 m 1,0,-1
 890 392 l 1,1,-1
 890 196 l 1,2,-1
 72 575 l 1,3,-1
 72 690 l 1,4,-1
 199 672 l 1,0,-1
890 902 m 1,5,-1
 200 618 l 1,6,-1
 72 604 l 1,7,-1
 72 720 l 1,8,-1
 890 1098 l 1,9,-1
 890 902 l 1,5,-1
EndSplineSet
EndChar

StartChar: equal
Encoding: 61 61 33
Width: 1124
GlyphClass: 1
Flags: W
LayerCount: 2
Fore
SplineSet
986 975 m 1,0,-1
 986 814 l 1,1,-1
 152 814 l 1,2,-1
 152 975 l 1,3,-1
 986 975 l 1,0,-1
986 560 m 1,4,-1
 986 399 l 1,5,-1
 152 399 l 1,6,-1
 152 560 l 1,7,-1
 986 560 l 1,4,-1
EndSplineSet
EndChar

StartChar: greater
Encoding: 62 62 34
Width: 1071
GlyphClass: 1
Flags: W
LayerCount: 2
Fore
SplineSet
846 632 m 1,0,-1
 135 909 l 1,1,-1
 135 1100 l 1,2,-1
 989 722 l 1,3,-1
 989 605 l 1,4,-1
 846 632 l 1,0,-1
135 388 m 1,5,-1
 848 671 l 1,6,-1
 989 692 l 1,7,-1
 989 576 l 1,8,-1
 135 197 l 1,9,-1
 135 388 l 1,5,-1
EndSplineSet
EndChar

StartChar: question
Encoding: 63 63 35
Width: 968
GlyphClass: 1
Flags: W
LayerCount: 2
Fore
SplineSet
543 410 m 1,0,-1
 357 410 l 1,1,2
 358 506 358 506 374.5 567.5 c 128,-1,3
 391 629 391 629 429 680 c 128,-1,4
 467 731 467 731 530 796 c 0,5,6
 576 843 576 843 614.5 884.5 c 128,-1,7
 653 926 653 926 677 974.5 c 128,-1,8
 701 1023 701 1023 701 1091 c 0,9,10
 701 1160 701 1160 676.5 1210 c 128,-1,11
 652 1260 652 1260 604.5 1287 c 128,-1,12
 557 1314 557 1314 487 1314 c 0,13,14
 429 1314 429 1314 377 1293 c 128,-1,15
 325 1272 325 1272 293 1228.5 c 128,-1,16
 261 1185 261 1185 260 1115 c 1,17,-1
 75 1115 l 1,18,19
 77 1228 77 1228 131.5 1309 c 128,-1,20
 186 1390 186 1390 279 1433 c 128,-1,21
 372 1476 372 1476 487 1476 c 0,22,23
 614 1476 614 1476 703.5 1430 c 128,-1,24
 793 1384 793 1384 840 1298.5 c 128,-1,25
 887 1213 887 1213 887 1096 c 0,26,27
 887 1006 887 1006 850.5 930.5 c 128,-1,28
 814 855 814 855 757 789 c 128,-1,29
 700 723 700 723 636 663 c 0,30,31
 581 612 581 612 562 548 c 128,-1,32
 543 484 543 484 543 410 c 1,0,-1
349 93 m 0,33,34
 349 138 349 138 377 169 c 128,-1,35
 405 200 405 200 458 200 c 0,36,37
 512 200 512 200 540 169 c 128,-1,38
 568 138 568 138 568 93 c 0,39,40
 568 50 568 50 540 19 c 128,-1,41
 512 -12 512 -12 458 -12 c 0,42,43
 405 -12 405 -12 377 19 c 128,-1,44
 349 50 349 50 349 93 c 0,33,34
EndSplineSet
EndChar

StartChar: at
Encoding: 64 64 36
Width: 1245
GlyphClass: 1
Flags: W
LayerCount: 2
Fore
SplineSet
960 196 m 17,0,-1
 960 285 l 1,1,2
 874 196 874 196 788 196 c 0,3,4
 751 196 751 196 710 211 c 0,5,6
 672 225 672 225 637 259 c 128,-1,7
 602 293 602 293 575.5 343 c 128,-1,8
 549 393 549 393 534 470 c 0,9,10
 518 547 518 547 518 642 c 0,11,12
 518 724 518 724 530 792 c 0,13,14
 542 861 542 861 563 910 c 0,15,16
 581 953 581 953 612 997 c 0,17,18
 640 1036 640 1036 671 1059 c 0,19,20
 702 1083 702 1083 737.5 1098.5 c 128,-1,21
 773 1114 773 1114 804 1120 c 0,22,23
 836 1126 836 1126 868 1126 c 0,24,25
 927 1126 927 1126 955 1115 c 1,26,27
 951 1146 951 1146 943 1183 c 0,28,29
 936 1215 936 1215 917 1254 c 0,30,31
 897 1293 897 1293 869 1319 c 0,32,33
 841 1346 841 1346 793 1364 c 128,-1,34
 745 1382 745 1382 682 1382 c 0,35,36
 488 1379 488 1379 374 1203 c 0,37,38
 268 1039 268 1039 268 660 c 0,39,40
 268 285 268 285 373 119 c 0,41,42
 487 -60 487 -60 676 -60 c 0,43,44
 749 -60 749 -60 824 -36 c 1,45,-1
 824 -164 l 1,46,47
 765 -180 765 -180 700 -180 c 0,48,49
 595 -180 595 -180 507 -151 c 0,50,51
 419 -121 419 -121 345 -57 c 0,52,53
 271 8 271 8 219 105 c 0,54,55
 169 198 169 198 139 344 c 0,56,57
 110 485 110 485 110 662 c 0,58,59
 110 838 110 838 139 979 c 0,60,61
 167 1120 167 1120 218 1217 c 0,62,63
 269 1313 269 1313 342.5 1377.5 c 128,-1,64
 416 1442 416 1442 502 1471 c 128,-1,65
 588 1500 588 1500 690 1500 c 0,66,67
 900 1500 900 1500 1008 1384 c 0,68,69
 1035 1355 1035 1355 1054 1322 c 0,70,71
 1074 1289 1074 1289 1085.5 1249 c 128,-1,72
 1097 1209 1097 1209 1104 1176 c 0,73,74
 1112 1136 1112 1136 1114 1093 c 0,75,76
 1117 1018 1117 1018 1117 1012 c 0,77,78
 1118 929 1118 929 1118 926 c 10,79,-1
 1117 196 l 25,80,-1
 960 196 l 17,0,-1
889 1013 m 0,81,82
 826 1009 826 1009 776 962 c 0,83,84
 690 881 690 881 690 664 c 0,85,86
 690 508 690 508 735 418 c 0,87,88
 770 348 770 348 842 348 c 0,89,90
 897 348 897 348 960 429 c 9,91,-1
 960 1004 l 17,92,93
 925 1015 925 1015 889 1013 c 0,81,82
EndSplineSet
EndChar

StartChar: A
Encoding: 65 65 37
Width: 1336
GlyphClass: 2
Flags: W
LayerCount: 2
Fore
SplineSet
708 1327 m 1,0,-1
 226 0 l 1,1,-1
 29 0 l 1,2,-1
 584 1456 l 1,3,-1
 711 1456 l 1,4,-1
 708 1327 l 1,0,-1
1112 0 m 1,5,-1
 629 1327 l 1,6,-1
 626 1456 l 1,7,-1
 753 1456 l 1,8,-1
 1310 0 l 1,9,-1
 1112 0 l 1,5,-1
1087 539 m 1,10,-1
 1087 381 l 1,11,-1
 269 381 l 1,12,-1
 269 539 l 1,13,-1
 1087 539 l 1,10,-1
EndSplineSet
Substitution2: "'c2sc' Capitals to Small Capitals lookup 0 subtable" A.c2sc
Position2: "'cpsp' Capital Spacing lookup 0 subtable" dx=36 dy=0 dh=72 dv=0
EndChar

StartChar: B
Encoding: 66 66 38
Width: 1276
GlyphClass: 2
Flags: W
LayerCount: 2
Fore
SplineSet
688 681 m 1,0,-1
 319 681 l 1,1,-1
 317 836 l 1,2,-1
 652 836 l 2,3,4
 735 836 735 836 797 864 c 128,-1,5
 859 892 859 892 893.5 944.5 c 128,-1,6
 928 997 928 997 928 1070 c 0,7,8
 928 1150 928 1150 897.5 1200.5 c 128,-1,9
 867 1251 867 1251 804.5 1274.5 c 128,-1,10
 742 1298 742 1298 646 1298 c 2,11,-1
 362 1298 l 1,12,-1
 362 0 l 1,13,-1
 169 0 l 1,14,-1
 169 1456 l 1,15,-1
 646 1456 l 2,16,17
 758 1456 758 1456 846 1433.5 c 128,-1,18
 934 1411 934 1411 995.5 1363.5 c 128,-1,19
 1057 1316 1057 1316 1089 1243 c 128,-1,20
 1121 1170 1121 1170 1121 1068 c 0,21,22
 1121 978 1121 978 1075 905.5 c 128,-1,23
 1029 833 1029 833 947.5 787 c 128,-1,24
 866 741 866 741 757 728 c 1,25,-1
 688 681 l 1,0,-1
679 0 m 2,26,-1
 243 0 l 1,27,-1
 352 157 l 1,28,-1
 679 157 l 2,29,30
 771 157 771 157 835.5 189 c 128,-1,31
 900 221 900 221 934 279.5 c 128,-1,32
 968 338 968 338 968 418 c 0,33,34
 968 499 968 499 939 558 c 128,-1,35
 910 617 910 617 848 649 c 128,-1,36
 786 681 786 681 688 681 c 2,37,-1
 413 681 l 1,38,-1
 415 836 l 1,39,-1
 791 836 l 1,40,-1
 832 780 l 1,41,42
 937 771 937 771 1010 720.5 c 128,-1,43
 1083 670 1083 670 1121.5 592 c 128,-1,44
 1160 514 1160 514 1160 420 c 0,45,46
 1160 284 1160 284 1100.5 190.5 c 128,-1,47
 1041 97 1041 97 933 48.5 c 128,-1,48
 825 0 825 0 679 0 c 2,26,-1
EndSplineSet
Substitution2: "'c2sc' Capitals to Small Capitals lookup 0 subtable" B.c2sc
Position2: "'cpsp' Capital Spacing lookup 0 subtable" dx=36 dy=0 dh=72 dv=0
EndChar

StartChar: C
Encoding: 67 67 39
Width: 1333
GlyphClass: 2
Flags: W
LayerCount: 2
Fore
SplineSet
1048 463 m 1,0,-1
 1240 463 l 1,1,2
 1225 325 1225 325 1161 216 c 128,-1,3
 1097 107 1097 107 980 43.5 c 128,-1,4
 863 -20 863 -20 688 -20 c 0,5,6
 560 -20 560 -20 455.5 28 c 128,-1,7
 351 76 351 76 276 164.5 c 128,-1,8
 201 253 201 253 160.5 377.5 c 128,-1,9
 120 502 120 502 120 655 c 2,10,-1
 120 800 l 2,11,12
 120 953 120 953 160.5 1077.5 c 128,-1,13
 201 1202 201 1202 277.5 1291 c 128,-1,14
 354 1380 354 1380 462 1428 c 128,-1,15
 570 1476 570 1476 705 1476 c 0,16,17
 870 1476 870 1476 984 1414 c 128,-1,18
 1098 1352 1098 1352 1161.5 1242.5 c 128,-1,19
 1225 1133 1225 1133 1240 989 c 1,20,-1
 1048 989 l 1,21,22
 1034 1091 1034 1091 996 1164.5 c 128,-1,23
 958 1238 958 1238 888 1278 c 128,-1,24
 818 1318 818 1318 705 1318 c 0,25,26
 608 1318 608 1318 534.5 1281 c 128,-1,27
 461 1244 461 1244 411.5 1176 c 128,-1,28
 362 1108 362 1108 337 1013 c 128,-1,29
 312 918 312 918 312 802 c 2,30,-1
 312 655 l 2,31,32
 312 548 312 548 334.5 454 c 128,-1,33
 357 360 357 360 403 289 c 128,-1,34
 449 218 449 218 520 177.5 c 128,-1,35
 591 137 591 137 688 137 c 0,36,37
 811 137 811 137 884 176 c 128,-1,38
 957 215 957 215 994.5 288 c 128,-1,39
 1032 361 1032 361 1048 463 c 1,0,-1
EndSplineSet
Substitution2: "'ss06' Style Set 6 lookup 17 subtable" C.ss06
Substitution2: "'c2sc' Capitals to Small Capitals lookup 0 subtable" C.c2sc
Position2: "'cpsp' Capital Spacing lookup 0 subtable" dx=36 dy=0 dh=72 dv=0
EndChar

StartChar: D
Encoding: 68 68 40
Width: 1344
GlyphClass: 2
Flags: W
LayerCount: 2
Fore
SplineSet
563 0 m 2,0,-1
 259 0 l 1,1,-1
 261 157 l 1,2,-1
 563 157 l 2,3,4
 719 157 719 157 823 222.5 c 128,-1,5
 927 288 927 288 979.5 406.5 c 128,-1,6
 1032 525 1032 525 1032 684 c 2,7,-1
 1032 773 l 2,8,9
 1032 898 1032 898 1002 995.5 c 128,-1,10
 972 1093 972 1093 914 1160.5 c 128,-1,11
 856 1228 856 1228 772.5 1263 c 128,-1,12
 689 1298 689 1298 581 1298 c 2,13,-1
 253 1298 l 1,14,-1
 253 1456 l 1,15,-1
 581 1456 l 2,16,17
 724 1456 724 1456 842 1408.5 c 128,-1,18
 960 1361 960 1361 1045.5 1271.5 c 128,-1,19
 1131 1182 1131 1182 1177 1055.5 c 128,-1,20
 1223 929 1223 929 1223 771 c 2,21,-1
 1223 684 l 2,22,23
 1223 526 1223 526 1177 399.5 c 128,-1,24
 1131 273 1131 273 1044.5 184 c 128,-1,25
 958 95 958 95 836.5 47.5 c 128,-1,26
 715 0 715 0 563 0 c 2,0,-1
362 1456 m 1,27,-1
 362 0 l 1,28,-1
 169 0 l 1,29,-1
 169 1456 l 1,30,-1
 362 1456 l 1,27,-1
EndSplineSet
Substitution2: "'ss06' Style Set 6 lookup 17 subtable" D.ss06
Substitution2: "'c2sc' Capitals to Small Capitals lookup 0 subtable" D.c2sc
Position2: "'cpsp' Capital Spacing lookup 0 subtable" dx=36 dy=0 dh=72 dv=0
EndChar

StartChar: E
Encoding: 69 69 41
Width: 1164
GlyphClass: 2
Flags: W
LayerCount: 2
Fore
SplineSet
1094 157 m 1,0,-1
 1094 0 l 1,1,-1
 323 0 l 1,2,-1
 323 157 l 1,3,-1
 1094 157 l 1,0,-1
362 1456 m 1,4,-1
 362 0 l 1,5,-1
 169 0 l 1,6,-1
 169 1456 l 1,7,-1
 362 1456 l 1,4,-1
992 830 m 1,8,-1
 992 673 l 1,9,-1
 323 673 l 1,10,-1
 323 830 l 1,11,-1
 992 830 l 1,8,-1
1084 1456 m 1,12,-1
 1084 1298 l 1,13,-1
 323 1298 l 1,14,-1
 323 1456 l 1,15,-1
 1084 1456 l 1,12,-1
EndSplineSet
Substitution2: "'c2sc' Capitals to Small Capitals lookup 0 subtable" E.c2sc
Position2: "'cpsp' Capital Spacing lookup 0 subtable" dx=36 dy=0 dh=72 dv=0
EndChar

StartChar: F
Encoding: 70 70 42
Width: 1132
GlyphClass: 2
Flags: W
LayerCount: 2
Fore
SplineSet
362 1456 m 1,0,-1
 362 0 l 1,1,-1
 169 0 l 1,2,-1
 169 1456 l 1,3,-1
 362 1456 l 1,0,-1
972 801 m 1,4,-1
 972 643 l 1,5,-1
 320 643 l 1,6,-1
 320 801 l 1,7,-1
 972 801 l 1,4,-1
1071 1456 m 1,8,-1
 1071 1298 l 1,9,-1
 320 1298 l 1,10,-1
 320 1456 l 1,11,-1
 1071 1456 l 1,8,-1
EndSplineSet
Substitution2: "'c2sc' Capitals to Small Capitals lookup 0 subtable" F.c2sc
Position2: "'cpsp' Capital Spacing lookup 0 subtable" dx=36 dy=0 dh=72 dv=0
EndChar

StartChar: G
Encoding: 71 71 43
Width: 1395
GlyphClass: 2
Flags: W
LayerCount: 2
Fore
SplineSet
1245 725 m 1,0,-1
 1245 192 l 1,1,2
 1218 152 1218 152 1159 102.5 c 128,-1,3
 1100 53 1100 53 996.5 16.5 c 128,-1,4
 893 -20 893 -20 730 -20 c 0,5,6
 597 -20 597 -20 485.5 26.5 c 128,-1,7
 374 73 374 73 292.5 162.5 c 128,-1,8
 211 252 211 252 166.5 380.5 c 128,-1,9
 122 509 122 509 122 672 c 2,10,-1
 122 785 l 2,11,12
 122 948 122 948 160.5 1076 c 128,-1,13
 199 1204 199 1204 274 1293.5 c 128,-1,14
 349 1383 349 1383 458 1429.5 c 128,-1,15
 567 1476 567 1476 708 1476 c 0,16,17
 875 1476 875 1476 987.5 1418.5 c 128,-1,18
 1100 1361 1100 1361 1163.5 1260 c 128,-1,19
 1227 1159 1227 1159 1245 1030 c 1,20,-1
 1052 1030 l 1,21,22
 1039 1109 1039 1109 1000.5 1174 c 128,-1,23
 962 1239 962 1239 891 1278.5 c 128,-1,24
 820 1318 820 1318 708 1318 c 0,25,26
 607 1318 607 1318 533 1281 c 128,-1,27
 459 1244 459 1244 411 1175 c 128,-1,28
 363 1106 363 1106 339.5 1008 c 128,-1,29
 316 910 316 910 316 787 c 2,30,-1
 316 672 l 2,31,32
 316 546 316 546 345.5 447 c 128,-1,33
 375 348 375 348 430 278.5 c 128,-1,34
 485 209 485 209 561.5 173 c 128,-1,35
 638 137 638 137 731 137 c 0,36,37
 834 137 834 137 898 154.5 c 128,-1,38
 962 172 962 172 998 196.5 c 128,-1,39
 1034 221 1034 221 1053 243 c 1,40,-1
 1053 569 l 1,41,-1
 716 569 l 1,42,-1
 716 725 l 1,43,-1
 1245 725 l 1,0,-1
EndSplineSet
Substitution2: "'ss06' Style Set 6 lookup 17 subtable" G.ss06
Substitution2: "'c2sc' Capitals to Small Capitals lookup 0 subtable" G.c2sc
Position2: "'cpsp' Capital Spacing lookup 0 subtable" dx=36 dy=0 dh=72 dv=0
EndChar

StartChar: H
Encoding: 72 72 44
Width: 1461
GlyphClass: 2
Flags: W
LayerCount: 2
Fore
SplineSet
1120 830 m 1,0,-1
 1120 673 l 1,1,-1
 332 673 l 1,2,-1
 332 830 l 1,3,-1
 1120 830 l 1,0,-1
362 1456 m 1,4,-1
 362 0 l 1,5,-1
 169 0 l 1,6,-1
 169 1456 l 1,7,-1
 362 1456 l 1,4,-1
1288 1456 m 1,8,-1
 1288 0 l 1,9,-1
 1096 0 l 1,10,-1
 1096 1456 l 1,11,-1
 1288 1456 l 1,8,-1
EndSplineSet
Substitution2: "'c2sc' Capitals to Small Capitals lookup 0 subtable" H.c2sc
Position2: "'cpsp' Capital Spacing lookup 0 subtable" dx=36 dy=0 dh=72 dv=0
EndChar

StartChar: I
Encoding: 73 73 45
Width: 557
GlyphClass: 2
Flags: W
LayerCount: 2
Fore
SplineSet
376 1456 m 1,0,-1
 376 0 l 1,1,-1
 183 0 l 1,2,-1
 183 1456 l 1,3,-1
 376 1456 l 1,0,-1
EndSplineSet
Substitution2: "'c2sc' Capitals to Small Capitals lookup 0 subtable" I.c2sc
Position2: "'cpsp' Capital Spacing lookup 0 subtable" dx=36 dy=0 dh=72 dv=0
EndChar

StartChar: J
Encoding: 74 74 46
Width: 1130
GlyphClass: 2
Flags: W
LayerCount: 2
Fore
SplineSet
780 425 m 2,0,-1
 780 1456 l 1,1,-1
 972 1456 l 1,2,-1
 972 425 l 2,3,4
 972 281 972 281 913 182 c 128,-1,5
 854 83 854 83 750.5 31.5 c 128,-1,6
 647 -20 647 -20 513 -20 c 256,7,8
 379 -20 379 -20 275 26 c 128,-1,9
 171 72 171 72 112 166 c 128,-1,10
 53 260 53 260 53 403 c 1,11,-1
 246 403 l 1,12,13
 246 311 246 311 280 252 c 128,-1,14
 314 193 314 193 374.5 165 c 128,-1,15
 435 137 435 137 513 137 c 0,16,17
 589 137 589 137 649.5 169.5 c 128,-1,18
 710 202 710 202 745 266.5 c 128,-1,19
 780 331 780 331 780 425 c 2,0,-1
EndSplineSet
Substitution2: "'c2sc' Capitals to Small Capitals lookup 0 subtable" J.c2sc
Position2: "'cpsp' Capital Spacing lookup 0 subtable" dx=36 dy=0 dh=72 dv=0
EndChar

StartChar: K
Encoding: 75 75 47
Width: 1285
GlyphClass: 2
Flags: W
LayerCount: 2
Fore
SplineSet
362 1456 m 1,0,-1
 362 0 l 1,1,-1
 169 0 l 1,2,-1
 169 1456 l 1,3,-1
 362 1456 l 1,0,-1
1241 1456 m 1,4,-1
 636 777 l 1,5,-1
 296 424 l 1,6,-1
 264 630 l 1,7,-1
 520 912 l 1,8,-1
 1009 1456 l 1,9,-1
 1241 1456 l 1,4,-1
1055 0 m 1,10,-1
 516 710 l 1,11,-1
 631 863 l 1,12,-1
 1285 0 l 1,13,-1
 1055 0 l 1,10,-1
EndSplineSet
Substitution2: "'ss05' Style Set 5 lookup 16 subtable" K.ss05
Substitution2: "'ss04' Style Set 4 lookup 15 subtable" K.ss04
Substitution2: "'c2sc' Capitals to Small Capitals lookup 0 subtable" K.c2sc
Position2: "'cpsp' Capital Spacing lookup 0 subtable" dx=36 dy=0 dh=72 dv=0
EndChar

StartChar: L
Encoding: 76 76 48
Width: 1103
GlyphClass: 2
Flags: W
LayerCount: 2
Fore
SplineSet
1052 157 m 1,0,-1
 1052 0 l 1,1,-1
 324 0 l 1,2,-1
 324 157 l 1,3,-1
 1052 157 l 1,0,-1
362 1456 m 1,4,-1
 362 0 l 1,5,-1
 169 0 l 1,6,-1
 169 1456 l 1,7,-1
 362 1456 l 1,4,-1
EndSplineSet
Substitution2: "'c2sc' Capitals to Small Capitals lookup 0 subtable" L.c2sc
Position2: "'cpsp' Capital Spacing lookup 0 subtable" dx=36 dy=0 dh=72 dv=0
EndChar

StartChar: M
Encoding: 77 77 49
Width: 1788
GlyphClass: 2
Flags: W
LayerCount: 2
Fore
SplineSet
230 1456 m 1,0,-1
 417 1456 l 1,1,-1
 894 269 l 1,2,-1
 1370 1456 l 1,3,-1
 1558 1456 l 1,4,-1
 966 0 l 1,5,-1
 820 0 l 1,6,-1
 230 1456 l 1,0,-1
169 1456 m 1,7,-1
 334 1456 l 1,8,-1
 361 568 l 1,9,-1
 361 0 l 1,10,-1
 169 0 l 1,11,-1
 169 1456 l 1,7,-1
1453 1456 m 1,12,-1
 1618 1456 l 1,13,-1
 1618 0 l 1,14,-1
 1426 0 l 1,15,-1
 1426 568 l 1,16,-1
 1453 1456 l 1,12,-1
EndSplineSet
Substitution2: "'c2sc' Capitals to Small Capitals lookup 0 subtable" M.c2sc
Position2: "'cpsp' Capital Spacing lookup 0 subtable" dx=36 dy=0 dh=72 dv=0
EndChar

StartChar: N
Encoding: 78 78 50
Width: 1461
GlyphClass: 2
Flags: W
LayerCount: 2
Fore
SplineSet
1289 1456 m 1,0,-1
 1289 0 l 1,1,-1
 1095 0 l 1,2,-1
 362 1123 l 1,3,-1
 362 0 l 1,4,-1
 169 0 l 1,5,-1
 169 1456 l 1,6,-1
 362 1456 l 1,7,-1
 1098 330 l 1,8,-1
 1098 1456 l 1,9,-1
 1289 1456 l 1,0,-1
EndSplineSet
Substitution2: "'c2sc' Capitals to Small Capitals lookup 0 subtable" N.c2sc
Position2: "'cpsp' Capital Spacing lookup 0 subtable" dx=36 dy=0 dh=72 dv=0
EndChar

StartChar: O
Encoding: 79 79 51
Width: 1409
GlyphClass: 2
Flags: W
LayerCount: 2
Fore
SplineSet
1290 774 m 2,0,-1
 1290 682 l 2,1,2
 1290 518 1290 518 1249 388 c 128,-1,3
 1208 258 1208 258 1131 167 c 128,-1,4
 1054 76 1054 76 946.5 28 c 128,-1,5
 839 -20 839 -20 706 -20 c 0,6,7
 577 -20 577 -20 469.5 28 c 128,-1,8
 362 76 362 76 283.5 167 c 128,-1,9
 205 258 205 258 162 388 c 128,-1,10
 119 518 119 518 119 682 c 2,11,-1
 119 774 l 2,12,13
 119 938 119 938 161.5 1067.5 c 128,-1,14
 204 1197 204 1197 282 1288.5 c 128,-1,15
 360 1380 360 1380 467.5 1428 c 128,-1,16
 575 1476 575 1476 704 1476 c 0,17,18
 837 1476 837 1476 944.5 1428 c 128,-1,19
 1052 1380 1052 1380 1129.5 1288.5 c 128,-1,20
 1207 1197 1207 1197 1248.5 1067.5 c 128,-1,21
 1290 938 1290 938 1290 774 c 2,0,-1
1099 682 m 2,22,-1
 1099 776 l 2,23,24
 1099 906 1099 906 1072.5 1006 c 128,-1,25
 1046 1106 1046 1106 995 1174 c 128,-1,26
 944 1242 944 1242 870.5 1277 c 128,-1,27
 797 1312 797 1312 704 1312 c 0,28,29
 614 1312 614 1312 541.5 1277 c 128,-1,30
 469 1242 469 1242 417.5 1174 c 128,-1,31
 366 1106 366 1106 338 1006 c 128,-1,32
 310 906 310 906 310 776 c 2,33,-1
 310 682 l 2,34,35
 310 551 310 551 338 450.5 c 128,-1,36
 366 350 366 350 418.5 281.5 c 128,-1,37
 471 213 471 213 543.5 178 c 128,-1,38
 616 143 616 143 706 143 c 0,39,40
 800 143 800 143 873 178 c 128,-1,41
 946 213 946 213 996.5 281.5 c 128,-1,42
 1047 350 1047 350 1073 450.5 c 128,-1,43
 1099 551 1099 551 1099 682 c 2,22,-1
EndSplineSet
Substitution2: "'ss06' Style Set 6 lookup 17 subtable" O.ss06
Substitution2: "'c2sc' Capitals to Small Capitals lookup 0 subtable" O.c2sc
Position2: "'cpsp' Capital Spacing lookup 0 subtable" dx=36 dy=0 dh=72 dv=0
EndChar

StartChar: P
Encoding: 80 80 52
Width: 1292
GlyphClass: 2
Flags: W
LayerCount: 2
Fore
SplineSet
706 571 m 2,0,-1
 317 571 l 1,1,-1
 317 728 l 1,2,-1
 706 728 l 2,3,4
 819 728 819 728 889 764 c 128,-1,5
 959 800 959 800 991.5 864 c 128,-1,6
 1024 928 1024 928 1024 1010 c 0,7,8
 1024 1085 1024 1085 991.5 1151 c 128,-1,9
 959 1217 959 1217 889 1257.5 c 128,-1,10
 819 1298 819 1298 706 1298 c 2,11,-1
 362 1298 l 1,12,-1
 362 0 l 1,13,-1
 169 0 l 1,14,-1
 169 1456 l 1,15,-1
 706 1456 l 2,16,17
 871 1456 871 1456 985 1399 c 128,-1,18
 1099 1342 1099 1342 1158 1241.5 c 128,-1,19
 1217 1141 1217 1141 1217 1012 c 0,20,21
 1217 872 1217 872 1158 773 c 128,-1,22
 1099 674 1099 674 985 622.5 c 128,-1,23
 871 571 871 571 706 571 c 2,0,-1
EndSplineSet
Substitution2: "'c2sc' Capitals to Small Capitals lookup 0 subtable" P.c2sc
Position2: "'cpsp' Capital Spacing lookup 0 subtable" dx=36 dy=0 dh=72 dv=0
EndChar

StartChar: Q
Encoding: 81 81 53
Width: 1409
GlyphClass: 2
Flags: W
LayerCount: 2
Fore
SplineSet
916 167 m 1,0,-1
 1286 -126 l 1,1,-1
 1156 -246 l 1,2,-1
 792 43 l 1,3,-1
 916 167 l 1,0,-1
1281 774 m 2,4,-1
 1281 682 l 2,5,6
 1281 518 1281 518 1240 388 c 128,-1,7
 1199 258 1199 258 1122 167 c 128,-1,8
 1045 76 1045 76 937.5 28 c 128,-1,9
 830 -20 830 -20 697 -20 c 0,10,11
 568 -20 568 -20 460.5 28 c 128,-1,12
 353 76 353 76 274.5 167 c 128,-1,13
 196 258 196 258 153 388 c 128,-1,14
 110 518 110 518 110 682 c 2,15,-1
 110 774 l 2,16,17
 110 938 110 938 152.5 1067.5 c 128,-1,18
 195 1197 195 1197 273 1288.5 c 128,-1,19
 351 1380 351 1380 458.5 1428 c 128,-1,20
 566 1476 566 1476 695 1476 c 0,21,22
 828 1476 828 1476 936 1428 c 128,-1,23
 1044 1380 1044 1380 1121 1288.5 c 128,-1,24
 1198 1197 1198 1197 1239.5 1067.5 c 128,-1,25
 1281 938 1281 938 1281 774 c 2,4,-1
1090 682 m 2,26,-1
 1090 776 l 2,27,28
 1090 906 1090 906 1063.5 1006 c 128,-1,29
 1037 1106 1037 1106 986 1174 c 128,-1,30
 935 1242 935 1242 862 1277 c 128,-1,31
 789 1312 789 1312 695 1312 c 0,32,33
 606 1312 606 1312 533.5 1277 c 128,-1,34
 461 1242 461 1242 409 1174 c 128,-1,35
 357 1106 357 1106 329 1006 c 128,-1,36
 301 906 301 906 301 776 c 2,37,-1
 301 682 l 2,38,39
 301 551 301 551 329 450.5 c 128,-1,40
 357 350 357 350 409.5 281.5 c 128,-1,41
 462 213 462 213 535 178 c 128,-1,42
 608 143 608 143 697 143 c 0,43,44
 791 143 791 143 864 178 c 128,-1,45
 937 213 937 213 987.5 281.5 c 128,-1,46
 1038 350 1038 350 1064 450.5 c 128,-1,47
 1090 551 1090 551 1090 682 c 2,26,-1
EndSplineSet
Substitution2: "'ss06' Style Set 6 lookup 17 subtable" Q.ss06
Substitution2: "'c2sc' Capitals to Small Capitals lookup 0 subtable" Q.c2sc
Position2: "'cpsp' Capital Spacing lookup 0 subtable" dx=36 dy=0 dh=72 dv=0
EndChar

StartChar: R
Encoding: 82 82 54
Width: 1262
GlyphClass: 2
Flags: W
LayerCount: 2
Fore
SplineSet
169 1456 m 1,0,-1
 651 1456 l 2,1,2
 815 1456 815 1456 928.5 1406 c 128,-1,3
 1042 1356 1042 1356 1101.5 1258.5 c 128,-1,4
 1161 1161 1161 1161 1161 1019 c 0,5,6
 1161 919 1161 919 1120.5 836.5 c 128,-1,7
 1080 754 1080 754 1004.5 696.5 c 128,-1,8
 929 639 929 639 824 611 c 1,9,-1
 770 590 l 1,10,-1
 317 590 l 1,11,-1
 315 747 l 1,12,-1
 657 747 l 2,13,14
 761 747 761 747 830 783.5 c 128,-1,15
 899 820 899 820 934 882 c 128,-1,16
 969 944 969 944 969 1019 c 0,17,18
 969 1103 969 1103 936 1166 c 128,-1,19
 903 1229 903 1229 832.5 1263.5 c 128,-1,20
 762 1298 762 1298 651 1298 c 2,21,-1
 362 1298 l 1,22,-1
 362 0 l 1,23,-1
 169 0 l 1,24,-1
 169 1456 l 1,0,-1
1020 0 m 1,25,-1
 666 660 l 1,26,-1
 867 661 l 1,27,-1
 1226 12 l 1,28,-1
 1226 0 l 1,29,-1
 1020 0 l 1,25,-1
EndSplineSet
Substitution2: "'ss03' Style Set 3 lookup 14 subtable" R.ss03
Substitution2: "'c2sc' Capitals to Small Capitals lookup 0 subtable" R.c2sc
Position2: "'cpsp' Capital Spacing lookup 0 subtable" dx=36 dy=0 dh=72 dv=0
EndChar

StartChar: S
Encoding: 83 83 55
Width: 1216
GlyphClass: 2
Flags: W
LayerCount: 2
Fore
SplineSet
945 368 m 0,0,1
 945 419 945 419 929.5 458.5 c 128,-1,2
 914 498 914 498 875.5 530 c 128,-1,3
 837 562 837 562 769.5 591 c 128,-1,4
 702 620 702 620 599 650 c 0,5,6
 491 682 491 682 404 721.5 c 128,-1,7
 317 761 317 761 255 812 c 128,-1,8
 193 863 193 863 160 929 c 128,-1,9
 127 995 127 995 127 1080 c 256,10,11
 127 1165 127 1165 162 1237 c 128,-1,12
 197 1309 197 1309 262.5 1362.5 c 128,-1,13
 328 1416 328 1416 419 1446 c 128,-1,14
 510 1476 510 1476 622 1476 c 0,15,16
 786 1476 786 1476 900.5 1413.5 c 128,-1,17
 1015 1351 1015 1351 1075 1250.5 c 128,-1,18
 1135 1150 1135 1150 1135 1036 c 1,19,-1
 943 1036 l 1,20,21
 943 1118 943 1118 908 1181.5 c 128,-1,22
 873 1245 873 1245 802 1281.5 c 128,-1,23
 731 1318 731 1318 622 1318 c 0,24,25
 519 1318 519 1318 452 1287 c 128,-1,26
 385 1256 385 1256 352.5 1203 c 128,-1,27
 320 1150 320 1150 320 1082 c 0,28,29
 320 1036 320 1036 339.5 998.5 c 128,-1,30
 359 961 359 961 400.5 929 c 128,-1,31
 442 897 442 897 506.5 870 c 128,-1,32
 571 843 571 843 661 818 c 0,33,34
 785 783 785 783 875 740 c 128,-1,35
 965 697 965 697 1023.5 643.5 c 128,-1,36
 1082 590 1082 590 1110.5 522.5 c 128,-1,37
 1139 455 1139 455 1139 370 c 0,38,39
 1139 281 1139 281 1103 209 c 128,-1,40
 1067 137 1067 137 1000 86 c 128,-1,41
 933 35 933 35 839.5 7.5 c 128,-1,42
 746 -20 746 -20 631 -20 c 0,43,44
 530 -20 530 -20 432.5 8 c 128,-1,45
 335 36 335 36 255.5 92 c 128,-1,46
 176 148 176 148 128.5 230.5 c 128,-1,47
 81 313 81 313 81 422 c 1,48,-1
 273 422 l 1,49,50
 273 347 273 347 302 293.5 c 128,-1,51
 331 240 331 240 381.5 205 c 128,-1,52
 432 170 432 170 496.5 153.5 c 128,-1,53
 561 137 561 137 631 137 c 0,54,55
 732 137 732 137 802 165 c 128,-1,56
 872 193 872 193 908.5 245 c 128,-1,57
 945 297 945 297 945 368 c 0,0,1
EndSplineSet
Substitution2: "'c2sc' Capitals to Small Capitals lookup 0 subtable" S.c2sc
Position2: "'cpsp' Capital Spacing lookup 0 subtable" dx=36 dy=0 dh=72 dv=0
EndChar

StartChar: T
Encoding: 84 84 56
Width: 1222
GlyphClass: 2
Flags: W
LayerCount: 2
Fore
SplineSet
707 1456 m 1,0,-1
 707 0 l 1,1,-1
 517 0 l 1,2,-1
 517 1456 l 1,3,-1
 707 1456 l 1,0,-1
1175 1456 m 1,4,-1
 1175 1298 l 1,5,-1
 50 1298 l 1,6,-1
 50 1456 l 1,7,-1
 1175 1456 l 1,4,-1
EndSplineSet
Substitution2: "'c2sc' Capitals to Small Capitals lookup 0 subtable" T.c2sc
Position2: "'cpsp' Capital Spacing lookup 0 subtable" dx=36 dy=0 dh=72 dv=0
EndChar

StartChar: U
Encoding: 85 85 57
Width: 1328
GlyphClass: 2
Flags: W
LayerCount: 2
Fore
SplineSet
1002 1456 m 1,0,-1
 1194 1456 l 1,1,-1
 1194 471 l 2,2,3
 1194 307 1194 307 1121 198 c 128,-1,4
 1048 89 1048 89 927.5 34.5 c 128,-1,5
 807 -20 807 -20 666 -20 c 0,6,7
 518 -20 518 -20 398.5 34.5 c 128,-1,8
 279 89 279 89 209.5 198 c 128,-1,9
 140 307 140 307 140 471 c 2,10,-1
 140 1456 l 1,11,-1
 331 1456 l 1,12,-1
 331 471 l 2,13,14
 331 357 331 357 373 283 c 128,-1,15
 415 209 415 209 490.5 173 c 128,-1,16
 566 137 566 137 666 137 c 0,17,18
 767 137 767 137 842.5 173 c 128,-1,19
 918 209 918 209 960 283 c 128,-1,20
 1002 357 1002 357 1002 471 c 2,21,-1
 1002 1456 l 1,0,-1
EndSplineSet
Substitution2: "'c2sc' Capitals to Small Capitals lookup 0 subtable" U.c2sc
Position2: "'cpsp' Capital Spacing lookup 0 subtable" dx=36 dy=0 dh=72 dv=0
EndChar

StartChar: V
Encoding: 86 86 58
Width: 1304
GlyphClass: 2
Flags: W
LayerCount: 2
Fore
SplineSet
639 221 m 1,0,-1
 1068 1456 l 1,1,-1
 1277 1456 l 1,2,-1
 738 0 l 1,3,-1
 589 0 l 1,4,-1
 639 221 l 1,0,-1
238 1456 m 1,5,-1
 663 221 l 1,6,-1
 716 0 l 1,7,-1
 567 0 l 1,8,-1
 29 1456 l 1,9,-1
 238 1456 l 1,5,-1
EndSplineSet
Substitution2: "'c2sc' Capitals to Small Capitals lookup 0 subtable" V.c2sc
Position2: "'cpsp' Capital Spacing lookup 0 subtable" dx=36 dy=0 dh=72 dv=0
EndChar

StartChar: W
Encoding: 87 87 59
Width: 1817
GlyphClass: 2
Flags: W
LayerCount: 2
Fore
SplineSet
552 440 m 1,0,-1
 841 1456 l 1,1,-1
 981 1456 l 1,2,-1
 900 1061 l 1,3,-1
 589 0 l 1,4,-1
 450 0 l 1,5,-1
 552 440 l 1,0,-1
253 1456 m 1,6,-1
 483 460 l 1,7,-1
 552 0 l 1,8,-1
 414 0 l 1,9,-1
 61 1456 l 1,10,-1
 253 1456 l 1,6,-1
1355 461 m 1,11,-1
 1580 1456 l 1,12,-1
 1773 1456 l 1,13,-1
 1421 0 l 1,14,-1
 1283 0 l 1,15,-1
 1355 461 l 1,11,-1
1002 1456 m 1,16,-1
 1283 440 l 1,17,-1
 1385 0 l 1,18,-1
 1246 0 l 1,19,-1
 946 1061 l 1,20,-1
 864 1456 l 1,21,-1
 1002 1456 l 1,16,-1
EndSplineSet
Substitution2: "'c2sc' Capitals to Small Capitals lookup 0 subtable" W.c2sc
Position2: "'cpsp' Capital Spacing lookup 0 subtable" dx=36 dy=0 dh=72 dv=0
EndChar

StartChar: X
Encoding: 88 88 60
Width: 1284
GlyphClass: 2
Flags: W
LayerCount: 2
Fore
SplineSet
294 1456 m 1,0,-1
 644 898 l 1,1,-1
 994 1456 l 1,2,-1
 1219 1456 l 1,3,-1
 759 735 l 1,4,-1
 1230 0 l 1,5,-1
 1003 0 l 1,6,-1
 644 569 l 1,7,-1
 285 0 l 1,8,-1
 58 0 l 1,9,-1
 529 735 l 1,10,-1
 69 1456 l 1,11,-1
 294 1456 l 1,0,-1
EndSplineSet
Substitution2: "'c2sc' Capitals to Small Capitals lookup 0 subtable" X.c2sc
Position2: "'cpsp' Capital Spacing lookup 0 subtable" dx=36 dy=0 dh=72 dv=0
EndChar

StartChar: Y
Encoding: 89 89 61
Width: 1230
GlyphClass: 2
Flags: W
LayerCount: 2
Fore
SplineSet
236 1456 m 1,0,-1
 614 725 l 1,1,-1
 993 1456 l 1,2,-1
 1212 1456 l 1,3,-1
 710 544 l 1,4,-1
 710 0 l 1,5,-1
 517 0 l 1,6,-1
 517 544 l 1,7,-1
 15 1456 l 1,8,-1
 236 1456 l 1,0,-1
EndSplineSet
Substitution2: "'c2sc' Capitals to Small Capitals lookup 0 subtable" Y.c2sc
Position2: "'cpsp' Capital Spacing lookup 0 subtable" dx=36 dy=0 dh=72 dv=0
EndChar

StartChar: Z
Encoding: 90 90 62
Width: 1227
GlyphClass: 2
Flags: W
LayerCount: 2
Fore
SplineSet
1146 157 m 1,0,-1
 1146 0 l 1,1,-1
 160 0 l 1,2,-1
 160 157 l 1,3,-1
 1146 157 l 1,0,-1
1114 1316 m 1,4,-1
 206 0 l 1,5,-1
 87 0 l 1,6,-1
 87 144 l 1,7,-1
 994 1456 l 1,8,-1
 1114 1456 l 1,9,-1
 1114 1316 l 1,4,-1
1032 1456 m 1,10,-1
 1032 1298 l 1,11,-1
 100 1298 l 1,12,-1
 100 1456 l 1,13,-1
 1032 1456 l 1,10,-1
EndSplineSet
Substitution2: "'c2sc' Capitals to Small Capitals lookup 0 subtable" Z.c2sc
Position2: "'cpsp' Capital Spacing lookup 0 subtable" dx=36 dy=0 dh=72 dv=0
EndChar

StartChar: bracketleft
Encoding: 91 91 63
Width: 543
GlyphClass: 1
Flags: W
LayerCount: 2
Fore
SplineSet
523 1664 m 1,0,-1
 523 1512 l 1,1,-1
 332 1512 l 1,2,-1
 332 -160 l 1,3,-1
 523 -160 l 1,4,-1
 523 -312 l 1,5,-1
 147 -312 l 1,6,-1
 147 1664 l 1,7,-1
 523 1664 l 1,0,-1
EndSplineSet
EndChar

StartChar: backslash
Encoding: 92 92 64
Width: 841
GlyphClass: 1
Flags: W
LayerCount: 2
Fore
SplineSet
649 -125 m 1,0,-1
 41 1456 l 1,1,-1
 217 1456 l 1,2,-1
 825 -125 l 1,3,-1
 649 -125 l 1,0,-1
EndSplineSet
EndChar

StartChar: bracketright
Encoding: 93 93 65
Width: 543
GlyphClass: 1
Flags: W
LayerCount: 2
Fore
SplineSet
10 1512 m 1,0,-1
 10 1664 l 1,1,-1
 388 1664 l 1,2,-1
 388 -312 l 1,3,-1
 10 -312 l 1,4,-1
 10 -160 l 1,5,-1
 202 -160 l 1,6,-1
 202 1512 l 1,7,-1
 10 1512 l 1,0,-1
EndSplineSet
EndChar

StartChar: asciicircum
Encoding: 94 94 66
Width: 856
GlyphClass: 1
Flags: W
LayerCount: 2
Fore
SplineSet
439 1242 m 1,0,-1
 236 729 l 1,1,-1
 64 729 l 1,2,-1
 363 1456 l 1,3,-1
 475 1456 l 1,4,-1
 439 1242 l 1,0,-1
617 729 m 1,5,-1
 415 1242 l 1,6,-1
 378 1456 l 1,7,-1
 491 1456 l 1,8,-1
 789 729 l 1,9,-1
 617 729 l 1,5,-1
EndSplineSet
EndChar

StartChar: underscore
Encoding: 95 95 67
Width: 924
GlyphClass: 1
Flags: W
LayerCount: 2
Fore
SplineSet
921 0 m 1,0,-1
 921 -152 l 1,1,-1
 4 -152 l 1,2,-1
 4 0 l 1,3,-1
 921 0 l 1,0,-1
EndSplineSet
EndChar

StartChar: grave
Encoding: 96 96 68
Width: 633
GlyphClass: 2
Flags: W
LayerCount: 2
Fore
SplineSet
281 1536 m 1,0,-1
 474 1242 l 1,1,-1
 315 1242 l 1,2,-1
 57 1536 l 1,3,-1
 281 1536 l 1,0,-1
EndSplineSet
EndChar

StartChar: a
Encoding: 97 97 69
Width: 1114
GlyphClass: 2
Flags: W
LayerCount: 2
Fore
SplineSet
779 185 m 2,0,-1
 779 742 l 2,1,2
 779 806 779 806 753.5 853.5 c 128,-1,3
 728 901 728 901 677 927 c 128,-1,4
 626 953 626 953 551 953 c 0,5,6
 481 953 481 953 428.5 929 c 128,-1,7
 376 905 376 905 346.5 866 c 128,-1,8
 317 827 317 827 317 782 c 1,9,-1
 132 782 l 1,10,11
 132 840 132 840 162 897 c 128,-1,12
 192 954 192 954 248.5 1000.5 c 128,-1,13
 305 1047 305 1047 384.5 1074.5 c 128,-1,14
 464 1102 464 1102 562 1102 c 0,15,16
 680 1102 680 1102 770.5 1062 c 128,-1,17
 861 1022 861 1022 912.5 941.5 c 128,-1,18
 964 861 964 861 964 740 c 2,19,-1
 964 236 l 2,20,21
 964 182 964 182 973.5 121 c 128,-1,22
 983 60 983 60 1002 16 c 1,23,-1
 1002 0 l 1,24,-1
 809 0 l 1,25,26
 795 32 795 32 787 85.5 c 128,-1,27
 779 139 779 139 779 185 c 2,0,-1
811 656 m 1,28,-1
 813 526 l 1,29,-1
 626 526 l 2,30,31
 547 526 547 526 485 513.5 c 128,-1,32
 423 501 423 501 381 476 c 128,-1,33
 339 451 339 451 317 413.5 c 128,-1,34
 295 376 295 376 295 326 c 0,35,36
 295 275 295 275 318 233 c 128,-1,37
 341 191 341 191 387.5 166.5 c 128,-1,38
 434 142 434 142 502 142 c 0,39,40
 587 142 587 142 652 178 c 128,-1,41
 717 214 717 214 755.5 266 c 128,-1,42
 794 318 794 318 797 367 c 1,43,-1
 876 278 l 1,44,45
 869 236 869 236 838 185 c 128,-1,46
 807 134 807 134 755.5 87.5 c 128,-1,47
 704 41 704 41 633.5 10.5 c 128,-1,48
 563 -20 563 -20 475 -20 c 0,49,50
 365 -20 365 -20 282.5 23 c 128,-1,51
 200 66 200 66 154.5 138.5 c 128,-1,52
 109 211 109 211 109 301 c 0,53,54
 109 388 109 388 143 454.5 c 128,-1,55
 177 521 177 521 241 565.5 c 128,-1,56
 305 610 305 610 395 633 c 128,-1,57
 485 656 485 656 596 656 c 2,58,-1
 811 656 l 1,28,-1
EndSplineSet
Substitution2: "'smcp' Lowercase to Small Capitals lookup 1 subtable" A.c2sc
EndChar

StartChar: b
Encoding: 98 98 70
Width: 1150
GlyphClass: 2
Flags: W
LayerCount: 2
Fore
SplineSet
140 1536 m 1,0,-1
 326 1536 l 1,1,-1
 326 210 l 1,2,-1
 310 0 l 1,3,-1
 140 0 l 1,4,-1
 140 1536 l 1,0,-1
1057 550 m 2,5,-1
 1057 529 l 2,6,7
 1057 411 1057 411 1029 310.5 c 128,-1,8
 1001 210 1001 210 947 136 c 128,-1,9
 893 62 893 62 815 21 c 128,-1,10
 737 -20 737 -20 636 -20 c 0,11,12
 533 -20 533 -20 455.5 15.5 c 128,-1,13
 378 51 378 51 325 118 c 128,-1,14
 272 185 272 185 240.5 280 c 128,-1,15
 209 375 209 375 197 494 c 1,16,-1
 197 586 l 1,17,18
 209 706 209 706 240.5 801 c 128,-1,19
 272 896 272 896 325 963.5 c 128,-1,20
 378 1031 378 1031 455 1066.5 c 128,-1,21
 532 1102 532 1102 634 1102 c 256,22,23
 736 1102 736 1102 815 1062.5 c 128,-1,24
 894 1023 894 1023 947.5 950 c 128,-1,25
 1001 877 1001 877 1029 775.5 c 128,-1,26
 1057 674 1057 674 1057 550 c 2,5,-1
871 529 m 2,27,-1
 871 550 l 2,28,29
 871 631 871 631 856 702.5 c 128,-1,30
 841 774 841 774 808 828.5 c 128,-1,31
 775 883 775 883 721 914.5 c 128,-1,32
 667 946 667 946 588 946 c 0,33,34
 518 946 518 946 466.5 922 c 128,-1,35
 415 898 415 898 379 857.5 c 128,-1,36
 343 817 343 817 320.5 765.5 c 128,-1,37
 298 714 298 714 287 659 c 1,38,-1
 287 418 l 1,39,40
 303 348 303 348 339.5 283.5 c 128,-1,41
 376 219 376 219 437.5 178 c 128,-1,42
 499 137 499 137 590 137 c 0,43,44
 665 137 665 137 718.5 167.5 c 128,-1,45
 772 198 772 198 805.5 252 c 128,-1,46
 839 306 839 306 855 377 c 128,-1,47
 871 448 871 448 871 529 c 2,27,-1
EndSplineSet
Substitution2: "'ss06' Style Set 6 lookup 17 subtable" b.ss06
Substitution2: "'smcp' Lowercase to Small Capitals lookup 1 subtable" B.c2sc
EndChar

StartChar: c
Encoding: 99 99 71
Width: 1072
GlyphClass: 2
Flags: W
LayerCount: 2
Fore
SplineSet
574 132 m 0,0,1
 640 132 640 132 696 159 c 128,-1,2
 752 186 752 186 788 233.5 c 128,-1,3
 824 281 824 281 829 342 c 1,4,-1
 1005 342 l 1,5,6
 1000 246 1000 246 940.5 163.5 c 128,-1,7
 881 81 881 81 785 30.5 c 128,-1,8
 689 -20 689 -20 574 -20 c 0,9,10
 452 -20 452 -20 361.5 23 c 128,-1,11
 271 66 271 66 211.5 141 c 128,-1,12
 152 216 152 216 122.5 313.5 c 128,-1,13
 93 411 93 411 93 520 c 2,14,-1
 93 562 l 2,15,16
 93 671 93 671 122.5 768.5 c 128,-1,17
 152 866 152 866 211.5 941 c 128,-1,18
 271 1016 271 1016 361.5 1059 c 128,-1,19
 452 1102 452 1102 574 1102 c 0,20,21
 701 1102 701 1102 796 1050.5 c 128,-1,22
 891 999 891 999 945.5 910.5 c 128,-1,23
 1000 822 1000 822 1005 710 c 1,24,-1
 829 710 l 1,25,26
 824 777 824 777 791.5 831 c 128,-1,27
 759 885 759 885 703.5 917.5 c 128,-1,28
 648 950 648 950 574 950 c 0,29,30
 489 950 489 950 431.5 916.5 c 128,-1,31
 374 883 374 883 340.5 826.5 c 128,-1,32
 307 770 307 770 292.5 701.5 c 128,-1,33
 278 633 278 633 278 562 c 2,34,-1
 278 520 l 2,35,36
 278 449 278 449 292 380 c 128,-1,37
 306 311 306 311 339.5 255 c 128,-1,38
 373 199 373 199 430.5 165.5 c 128,-1,39
 488 132 488 132 574 132 c 0,0,1
EndSplineSet
Substitution2: "'ss06' Style Set 6 lookup 17 subtable" c.ss06
Substitution2: "'smcp' Lowercase to Small Capitals lookup 1 subtable" C.c2sc
EndChar

StartChar: d
Encoding: 100 100 72
Width: 1155
GlyphClass: 2
Flags: W
LayerCount: 2
Fore
SplineSet
823 210 m 1,0,-1
 823 1536 l 1,1,-1
 1009 1536 l 1,2,-1
 1009 0 l 1,3,-1
 839 0 l 1,4,-1
 823 210 l 1,0,-1
95 529 m 2,5,-1
 95 550 l 2,6,7
 95 674 95 674 125.5 775.5 c 128,-1,8
 156 877 156 877 212.5 950 c 128,-1,9
 269 1023 269 1023 347.5 1062.5 c 128,-1,10
 426 1102 426 1102 523 1102 c 0,11,12
 625 1102 625 1102 701.5 1066.5 c 128,-1,13
 778 1031 778 1031 831.5 963.5 c 128,-1,14
 885 896 885 896 916 801 c 128,-1,15
 947 706 947 706 959 586 c 1,16,-1
 959 494 l 1,17,18
 948 375 948 375 916.5 280 c 128,-1,19
 885 185 885 185 831.5 118 c 128,-1,20
 778 51 778 51 701 15.5 c 128,-1,21
 624 -20 624 -20 521 -20 c 0,22,23
 426 -20 426 -20 347.5 21 c 128,-1,24
 269 62 269 62 212.5 136 c 128,-1,25
 156 210 156 210 125.5 310.5 c 128,-1,26
 95 411 95 411 95 529 c 2,5,-1
281 550 m 2,27,-1
 281 529 l 2,28,29
 281 448 281 448 297.5 377 c 128,-1,30
 314 306 314 306 349 252 c 128,-1,31
 384 198 384 198 438 167.5 c 128,-1,32
 492 137 492 137 567 137 c 0,33,34
 659 137 659 137 718.5 176 c 128,-1,35
 778 215 778 215 814 279 c 128,-1,36
 850 343 850 343 870 418 c 1,37,-1
 870 659 l 1,38,39
 858 714 858 714 835.5 765.5 c 128,-1,40
 813 817 813 817 777.5 857.5 c 128,-1,41
 742 898 742 898 690.5 922 c 128,-1,42
 639 946 639 946 569 946 c 0,43,44
 493 946 493 946 438.5 914.5 c 128,-1,45
 384 883 384 883 349 828.5 c 128,-1,46
 314 774 314 774 297.5 702.5 c 128,-1,47
 281 631 281 631 281 550 c 2,27,-1
EndSplineSet
Substitution2: "'ss06' Style Set 6 lookup 17 subtable" d.ss06
Substitution2: "'smcp' Lowercase to Small Capitals lookup 1 subtable" D.c2sc
EndChar

StartChar: e
Encoding: 101 101 73
Width: 1086
GlyphClass: 2
Flags: W
LayerCount: 2
Fore
SplineSet
590 -20 m 0,0,1
 477 -20 477 -20 385.5 18.5 c 128,-1,2
 294 57 294 57 228.5 127 c 128,-1,3
 163 197 163 197 128 293 c 128,-1,4
 93 389 93 389 93 503 c 2,5,-1
 93 545 l 2,6,7
 93 677 93 677 132 780.5 c 128,-1,8
 171 884 171 884 238 956 c 128,-1,9
 305 1028 305 1028 390 1065 c 128,-1,10
 475 1102 475 1102 566 1102 c 0,11,12
 682 1102 682 1102 766.5 1062 c 128,-1,13
 851 1022 851 1022 905 950.5 c 128,-1,14
 959 879 959 879 985 782.5 c 128,-1,15
 1011 686 1011 686 1011 572 c 2,16,-1
 1011 489 l 1,17,-1
 203 489 l 1,18,-1
 203 640 l 1,19,-1
 826 640 l 1,20,-1
 826 654 l 1,21,22
 822 726 822 726 796.5 794 c 128,-1,23
 771 862 771 862 716 906 c 128,-1,24
 661 950 661 950 566 950 c 0,25,26
 503 950 503 950 450 923.5 c 128,-1,27
 397 897 397 897 359 845 c 128,-1,28
 321 793 321 793 300 718 c 128,-1,29
 279 643 279 643 279 545 c 2,30,-1
 279 503 l 2,31,32
 279 426 279 426 300.5 358.5 c 128,-1,33
 322 291 322 291 363.5 240 c 128,-1,34
 405 189 405 189 464.5 160 c 128,-1,35
 524 131 524 131 600 131 c 0,36,37
 698 131 698 131 766 171 c 128,-1,38
 834 211 834 211 885 278 c 1,39,-1
 997 189 l 1,40,41
 962 136 962 136 908 88 c 128,-1,42
 854 40 854 40 775.5 10 c 128,-1,43
 697 -20 697 -20 590 -20 c 0,0,1
EndSplineSet
Substitution2: "'ss07' Style Set 7 lookup 18 subtable" e.ss07
Substitution2: "'smcp' Lowercase to Small Capitals lookup 1 subtable" E.c2sc
EndChar

StartChar: f
Encoding: 102 102 74
Width: 712
GlyphClass: 2
Flags: W
LayerCount: 2
Fore
SplineSet
417 0 m 1,0,-1
 232 0 l 1,1,-1
 232 1196 l 2,2,3
 232 1313 232 1313 274.5 1393.5 c 128,-1,4
 317 1474 317 1474 397 1515.5 c 128,-1,5
 477 1557 477 1557 587 1557 c 0,6,7
 619 1557 619 1557 651.5 1553 c 128,-1,8
 684 1549 684 1549 715 1541 c 1,9,-1
 705 1390 l 1,10,11
 684 1395 684 1395 657.5 1397 c 128,-1,12
 631 1399 631 1399 605 1399 c 0,13,14
 546 1399 546 1399 503.5 1375.5 c 128,-1,15
 461 1352 461 1352 439 1307 c 128,-1,16
 417 1262 417 1262 417 1196 c 2,17,-1
 417 0 l 1,0,-1
647 1082 m 1,18,-1
 647 940 l 1,19,-1
 61 940 l 1,20,-1
 61 1082 l 1,21,-1
 647 1082 l 1,18,-1
EndSplineSet
Substitution2: "'smcp' Lowercase to Small Capitals lookup 1 subtable" F.c2sc
EndChar

StartChar: g
Encoding: 103 103 75
Width: 1150
GlyphClass: 2
Flags: W
LayerCount: 2
Fore
SplineSet
842 1082 m 1,0,-1
 1010 1082 l 1,1,-1
 1010 23 l 2,2,3
 1010 -120 1010 -120 952 -221 c 128,-1,4
 894 -322 894 -322 790.5 -374.5 c 128,-1,5
 687 -427 687 -427 552 -427 c 0,6,7
 496 -427 496 -427 420.5 -409.5 c 128,-1,8
 345 -392 345 -392 272.5 -350.5 c 128,-1,9
 200 -309 200 -309 151 -239 c 1,10,-1
 248 -129 l 1,11,12
 316 -211 316 -211 390.5 -243 c 128,-1,13
 465 -275 465 -275 538 -275 c 0,14,15
 626 -275 626 -275 690 -242 c 128,-1,16
 754 -209 754 -209 789.5 -144.5 c 128,-1,17
 825 -80 825 -80 825 14 c 2,18,-1
 825 844 l 1,19,-1
 842 1082 l 1,0,-1
97 529 m 2,20,-1
 97 550 l 2,21,22
 97 674 97 674 126.5 775.5 c 128,-1,23
 156 877 156 877 211.5 950 c 128,-1,24
 267 1023 267 1023 346 1062.5 c 128,-1,25
 425 1102 425 1102 524 1102 c 0,26,27
 626 1102 626 1102 702.5 1066.5 c 128,-1,28
 779 1031 779 1031 832.5 963.5 c 128,-1,29
 886 896 886 896 917 801 c 128,-1,30
 948 706 948 706 960 586 c 1,31,-1
 960 494 l 1,32,33
 949 375 949 375 917.5 280 c 128,-1,34
 886 185 886 185 832.5 118 c 128,-1,35
 779 51 779 51 702 15.5 c 128,-1,36
 625 -20 625 -20 522 -20 c 0,37,38
 425 -20 425 -20 346.5 21 c 128,-1,39
 268 62 268 62 212 136 c 128,-1,40
 156 210 156 210 126.5 310.5 c 128,-1,41
 97 411 97 411 97 529 c 2,20,-1
282 550 m 2,42,-1
 282 529 l 2,43,44
 282 448 282 448 298.5 377 c 128,-1,45
 315 306 315 306 349.5 252 c 128,-1,46
 384 198 384 198 438 167.5 c 128,-1,47
 492 137 492 137 567 137 c 0,48,49
 659 137 659 137 719 176 c 128,-1,50
 779 215 779 215 814.5 279 c 128,-1,51
 850 343 850 343 870 418 c 1,52,-1
 870 659 l 1,53,54
 859 714 859 714 836.5 765.5 c 128,-1,55
 814 817 814 817 778.5 857.5 c 128,-1,56
 743 898 743 898 691 922 c 128,-1,57
 639 946 639 946 569 946 c 0,58,59
 493 946 493 946 438.5 914.5 c 128,-1,60
 384 883 384 883 349.5 828.5 c 128,-1,61
 315 774 315 774 298.5 702.5 c 128,-1,62
 282 631 282 631 282 550 c 2,42,-1
EndSplineSet
Substitution2: "'ss07' Style Set 7 lookup 18 subtable" g.ss07
Substitution2: "'ss06' Style Set 6 lookup 17 subtable" g.ss06
Substitution2: "'ss01' Style Set 1 lookup 12 subtable" g.ss01
Substitution2: "'smcp' Lowercase to Small Capitals lookup 1 subtable" G.c2sc
EndChar

StartChar: h
Encoding: 104 104 76
Width: 1128
GlyphClass: 2
Flags: W
LayerCount: 2
Fore
SplineSet
326 1536 m 1,0,-1
 326 0 l 1,1,-1
 141 0 l 1,2,-1
 141 1536 l 1,3,-1
 326 1536 l 1,0,-1
282 582 m 1,4,-1
 205 585 l 1,5,6
 206 696 206 696 238 790.5 c 128,-1,7
 270 885 270 885 328 955 c 128,-1,8
 386 1025 386 1025 466.5 1063.5 c 128,-1,9
 547 1102 547 1102 645 1102 c 0,10,11
 725 1102 725 1102 789 1080.5 c 128,-1,12
 853 1059 853 1059 898.5 1012 c 128,-1,13
 944 965 944 965 968 890.5 c 128,-1,14
 992 816 992 816 992 709 c 2,15,-1
 992 0 l 1,16,-1
 806 0 l 1,17,-1
 806 711 l 2,18,19
 806 796 806 796 781 847.5 c 128,-1,20
 756 899 756 899 708 922.5 c 128,-1,21
 660 946 660 946 590 946 c 0,22,23
 521 946 521 946 464.5 917 c 128,-1,24
 408 888 408 888 367.5 837 c 128,-1,25
 327 786 327 786 304.5 720.5 c 128,-1,26
 282 655 282 655 282 582 c 1,4,-1
EndSplineSet
Substitution2: "'smcp' Lowercase to Small Capitals lookup 1 subtable" H.c2sc
EndChar

StartChar: i
Encoding: 105 105 77
Width: 498
GlyphClass: 2
Flags: W
LayerCount: 2
Fore
SplineSet
342 1082 m 1,0,-1
 342 0 l 1,1,-1
 156 0 l 1,2,-1
 156 1082 l 1,3,-1
 342 1082 l 1,0,-1
142 1385 m 4,4,5
 142 1430 142 1430 169.5 1461 c 132,-1,6
 197 1492 197 1492 251 1492 c 4,7,8
 304 1492 304 1492 332.5 1461 c 132,-1,9
 361 1430 361 1430 361 1385 c 4,10,11
 361 1342 361 1342 332.5 1311.5 c 132,-1,12
 304 1281 304 1281 251 1281 c 4,13,14
 197 1281 197 1281 169.5 1311.5 c 132,-1,15
 142 1342 142 1342 142 1385 c 4,4,5
EndSplineSet
Substitution2: "Single Substitution lookup 3 subtable" glyph635
Substitution2: "'smcp' Lowercase to Small Capitals lookup 1 subtable" I.c2sc
EndChar

StartChar: j
Encoding: 106 106 78
Width: 490
GlyphClass: 2
Flags: W
LayerCount: 2
Fore
SplineSet
146 1082 m 1,0,-1
 332 1082 l 1,1,-1
 332 -129 l 2,2,3
 332 -228 332 -228 300.5 -297 c 128,-1,4
 269 -366 269 -366 206.5 -401.5 c 128,-1,5
 144 -437 144 -437 49 -437 c 0,6,7
 24 -437 24 -437 -9.5 -432 c 128,-1,8
 -43 -427 -43 -427 -66 -420 c 1,9,-1
 -65 -271 l 1,10,11
 -46 -275 -46 -275 -22 -277.5 c 128,-1,12
 2 -280 2 -280 20 -280 c 0,13,14
 61 -280 61 -280 89 -265 c 128,-1,15
 117 -250 117 -250 131.5 -217 c 128,-1,16
 146 -184 146 -184 146 -129 c 2,17,-1
 146 1082 l 1,0,-1
127 1385 m 4,18,19
 127 1430 127 1430 155 1461 c 132,-1,20
 183 1492 183 1492 236 1492 c 4,21,22
 290 1492 290 1492 318 1461 c 132,-1,23
 346 1430 346 1430 346 1385 c 4,24,25
 346 1342 346 1342 318 1311.5 c 132,-1,26
 290 1281 290 1281 236 1281 c 4,27,28
 183 1281 183 1281 155 1311.5 c 132,-1,29
 127 1342 127 1342 127 1385 c 4,18,19
EndSplineSet
Substitution2: "Single Substitution lookup 3 subtable" glyph633
Substitution2: "'smcp' Lowercase to Small Capitals lookup 1 subtable" J.c2sc
EndChar

StartChar: k
Encoding: 107 107 79
Width: 1038
GlyphClass: 2
Flags: W
LayerCount: 2
Fore
SplineSet
327 1536 m 1,0,-1
 327 0 l 1,1,-1
 141 0 l 1,2,-1
 141 1536 l 1,3,-1
 327 1536 l 1,0,-1
988 1082 m 1,4,-1
 516 577 l 1,5,-1
 252 303 l 1,6,-1
 237 500 l 1,7,-1
 426 726 l 1,8,-1
 762 1082 l 1,9,-1
 988 1082 l 1,4,-1
819 0 m 1,10,-1
 433 516 l 1,11,-1
 529 681 l 1,12,-1
 1037 0 l 1,13,-1
 819 0 l 1,10,-1
EndSplineSet
Substitution2: "'ss05' Style Set 5 lookup 16 subtable" k.ss05
Substitution2: "'ss04' Style Set 4 lookup 15 subtable" k.ss04
Substitution2: "'smcp' Lowercase to Small Capitals lookup 1 subtable" K.c2sc
EndChar

StartChar: l
Encoding: 108 108 80
Width: 498
GlyphClass: 2
Flags: W
LayerCount: 2
Fore
SplineSet
342 1536 m 1,0,-1
 342 0 l 1,1,-1
 156 0 l 1,2,-1
 156 1536 l 1,3,-1
 342 1536 l 1,0,-1
EndSplineSet
Substitution2: "'smcp' Lowercase to Small Capitals lookup 1 subtable" L.c2sc
EndChar

StartChar: m
Encoding: 109 109 81
Width: 1796
GlyphClass: 2
Flags: W
LayerCount: 2
Fore
SplineSet
325 867 m 1,0,-1
 325 0 l 1,1,-1
 139 0 l 1,2,-1
 139 1082 l 1,3,-1
 315 1082 l 1,4,-1
 325 867 l 1,0,-1
287 582 m 1,5,-1
 201 585 l 1,6,7
 202 696 202 696 230 790.5 c 128,-1,8
 258 885 258 885 313 955 c 128,-1,9
 368 1025 368 1025 450 1063.5 c 128,-1,10
 532 1102 532 1102 640 1102 c 0,11,12
 716 1102 716 1102 780 1080.5 c 128,-1,13
 844 1059 844 1059 891 1013 c 128,-1,14
 938 967 938 967 964 895 c 128,-1,15
 990 823 990 823 990 721 c 2,16,-1
 990 0 l 1,17,-1
 805 0 l 1,18,-1
 805 712 l 2,19,20
 805 797 805 797 776.5 848 c 128,-1,21
 748 899 748 899 696 922.5 c 128,-1,22
 644 946 644 946 574 946 c 0,23,24
 492 946 492 946 437 917 c 128,-1,25
 382 888 382 888 349 837 c 128,-1,26
 316 786 316 786 301.5 720.5 c 128,-1,27
 287 655 287 655 287 582 c 1,5,-1
988 684 m 1,28,-1
 864 646 l 1,29,30
 865 735 865 735 893.5 817 c 128,-1,31
 922 899 922 899 976.5 963 c 128,-1,32
 1031 1027 1031 1027 1111 1064.5 c 128,-1,33
 1191 1102 1191 1102 1294 1102 c 0,34,35
 1381 1102 1381 1102 1448.5 1079 c 128,-1,36
 1516 1056 1516 1056 1562.5 1008.5 c 128,-1,37
 1609 961 1609 961 1633 887 c 128,-1,38
 1657 813 1657 813 1657 711 c 2,39,-1
 1657 0 l 1,40,-1
 1471 0 l 1,41,-1
 1471 713 l 2,42,43
 1471 804 1471 804 1442.5 854.5 c 128,-1,44
 1414 905 1414 905 1362.5 925.5 c 128,-1,45
 1311 946 1311 946 1240 946 c 0,46,47
 1179 946 1179 946 1132 925 c 128,-1,48
 1085 904 1085 904 1053 867.5 c 128,-1,49
 1021 831 1021 831 1004.5 784 c 128,-1,50
 988 737 988 737 988 684 c 1,28,-1
EndSplineSet
Substitution2: "'smcp' Lowercase to Small Capitals lookup 1 subtable" M.c2sc
EndChar

StartChar: n
Encoding: 110 110 82
Width: 1131
GlyphClass: 2
Flags: W
LayerCount: 2
Fore
SplineSet
326 851 m 1,0,-1
 326 0 l 1,1,-1
 141 0 l 1,2,-1
 141 1082 l 1,3,-1
 316 1082 l 1,4,-1
 326 851 l 1,0,-1
282 582 m 1,5,-1
 205 585 l 1,6,7
 206 696 206 696 238 790.5 c 128,-1,8
 270 885 270 885 328 955 c 128,-1,9
 386 1025 386 1025 466.5 1063.5 c 128,-1,10
 547 1102 547 1102 645 1102 c 0,11,12
 725 1102 725 1102 789 1080.5 c 128,-1,13
 853 1059 853 1059 898.5 1012 c 128,-1,14
 944 965 944 965 968 890.5 c 128,-1,15
 992 816 992 816 992 709 c 2,16,-1
 992 0 l 1,17,-1
 806 0 l 1,18,-1
 806 711 l 2,19,20
 806 796 806 796 781 847.5 c 128,-1,21
 756 899 756 899 708 922.5 c 128,-1,22
 660 946 660 946 590 946 c 0,23,24
 521 946 521 946 464.5 917 c 128,-1,25
 408 888 408 888 367.5 837 c 128,-1,26
 327 786 327 786 304.5 720.5 c 128,-1,27
 282 655 282 655 282 582 c 1,5,-1
EndSplineSet
Substitution2: "'smcp' Lowercase to Small Capitals lookup 1 subtable" N.c2sc
EndChar

StartChar: o
Encoding: 111 111 83
Width: 1168
GlyphClass: 2
Flags: W
LayerCount: 2
Fore
SplineSet
92 529 m 2,0,-1
 92 552 l 2,1,2
 92 669 92 669 126 769.5 c 128,-1,3
 160 870 160 870 224 944.5 c 128,-1,4
 288 1019 288 1019 379 1060.5 c 128,-1,5
 470 1102 470 1102 583 1102 c 0,6,7
 697 1102 697 1102 788.5 1060.5 c 128,-1,8
 880 1019 880 1019 944.5 944.5 c 128,-1,9
 1009 870 1009 870 1043 769.5 c 128,-1,10
 1077 669 1077 669 1077 552 c 2,11,-1
 1077 529 l 2,12,13
 1077 412 1077 412 1043 312 c 128,-1,14
 1009 212 1009 212 944.5 137.5 c 128,-1,15
 880 63 880 63 789.5 21.5 c 128,-1,16
 699 -20 699 -20 585 -20 c 256,17,18
 471 -20 471 -20 380 21.5 c 128,-1,19
 289 63 289 63 224.5 137.5 c 128,-1,20
 160 212 160 212 126 312 c 128,-1,21
 92 412 92 412 92 529 c 2,0,-1
277 552 m 2,22,-1
 277 529 l 2,23,24
 277 448 277 448 296 376.5 c 128,-1,25
 315 305 315 305 353.5 250 c 128,-1,26
 392 195 392 195 450 163.5 c 128,-1,27
 508 132 508 132 585 132 c 0,28,29
 661 132 661 132 718.5 163.5 c 128,-1,30
 776 195 776 195 814 250 c 128,-1,31
 852 305 852 305 871.5 376.5 c 128,-1,32
 891 448 891 448 891 529 c 2,33,-1
 891 552 l 2,34,35
 891 632 891 632 871.5 703.5 c 128,-1,36
 852 775 852 775 813.5 830.5 c 128,-1,37
 775 886 775 886 717.5 918 c 128,-1,38
 660 950 660 950 583 950 c 0,39,40
 507 950 507 950 449.5 918 c 128,-1,41
 392 886 392 886 353.5 830.5 c 128,-1,42
 315 775 315 775 296 703.5 c 128,-1,43
 277 632 277 632 277 552 c 2,22,-1
EndSplineSet
Substitution2: "'ss06' Style Set 6 lookup 17 subtable" o.ss06
Substitution2: "'smcp' Lowercase to Small Capitals lookup 1 subtable" O.c2sc
EndChar

StartChar: p
Encoding: 112 112 84
Width: 1150
GlyphClass: 2
Flags: W
LayerCount: 2
Fore
SplineSet
326 874 m 1,0,-1
 326 -416 l 1,1,-1
 140 -416 l 1,2,-1
 140 1082 l 1,3,-1
 310 1082 l 1,4,-1
 326 874 l 1,0,-1
1055 550 m 2,5,-1
 1055 529 l 2,6,7
 1055 411 1055 411 1027 310.5 c 128,-1,8
 999 210 999 210 945.5 136 c 128,-1,9
 892 62 892 62 814 21 c 128,-1,10
 736 -20 736 -20 635 -20 c 0,11,12
 532 -20 532 -20 453 14 c 128,-1,13
 374 48 374 48 319 113 c 128,-1,14
 264 178 264 178 231.5 269 c 128,-1,15
 199 360 199 360 187 474 c 1,16,-1
 187 586 l 1,17,18
 199 706 199 706 232 801 c 128,-1,19
 265 896 265 896 319.5 963.5 c 128,-1,20
 374 1031 374 1031 452 1066.5 c 128,-1,21
 530 1102 530 1102 632 1102 c 256,22,23
 734 1102 734 1102 813 1062.5 c 128,-1,24
 892 1023 892 1023 946 950 c 128,-1,25
 1000 877 1000 877 1027.5 775.5 c 128,-1,26
 1055 674 1055 674 1055 550 c 2,5,-1
869 529 m 2,27,-1
 869 550 l 2,28,29
 869 631 869 631 852 702.5 c 128,-1,30
 835 774 835 774 799.5 828.5 c 128,-1,31
 764 883 764 883 709 914.5 c 128,-1,32
 654 946 654 946 578 946 c 0,33,34
 508 946 508 946 456.5 922 c 128,-1,35
 405 898 405 898 369 857.5 c 128,-1,36
 333 817 333 817 310.5 765.5 c 128,-1,37
 288 714 288 714 277 659 c 1,38,-1
 277 400 l 1,39,40
 297 330 297 330 333 268.5 c 128,-1,41
 369 207 369 207 429 169.5 c 128,-1,42
 489 132 489 132 580 132 c 0,43,44
 655 132 655 132 709.5 163.5 c 128,-1,45
 764 195 764 195 799.5 250 c 128,-1,46
 835 305 835 305 852 376.5 c 128,-1,47
 869 448 869 448 869 529 c 2,27,-1
EndSplineSet
Substitution2: "'ss06' Style Set 6 lookup 17 subtable" p.ss06
Substitution2: "'smcp' Lowercase to Small Capitals lookup 1 subtable" P.c2sc
EndChar

StartChar: q
Encoding: 113 113 85
Width: 1164
GlyphClass: 2
Flags: W
LayerCount: 2
Fore
SplineSet
822 -416 m 1,0,-1
 822 874 l 1,1,-1
 838 1082 l 1,2,-1
 1008 1082 l 1,3,-1
 1008 -416 l 1,4,-1
 822 -416 l 1,0,-1
95 529 m 2,5,-1
 95 550 l 2,6,7
 95 674 95 674 124 775.5 c 128,-1,8
 153 877 153 877 209 950 c 128,-1,9
 265 1023 265 1023 344.5 1062.5 c 128,-1,10
 424 1102 424 1102 526 1102 c 256,11,12
 628 1102 628 1102 705.5 1066.5 c 128,-1,13
 783 1031 783 1031 837.5 963.5 c 128,-1,14
 892 896 892 896 924 801 c 128,-1,15
 956 706 956 706 968 586 c 1,16,-1
 968 494 l 1,17,18
 957 375 957 375 925 280 c 128,-1,19
 893 185 893 185 838.5 118 c 128,-1,20
 784 51 784 51 705.5 15.5 c 128,-1,21
 627 -20 627 -20 524 -20 c 0,22,23
 424 -20 424 -20 344.5 21 c 128,-1,24
 265 62 265 62 209.5 136 c 128,-1,25
 154 210 154 210 124.5 310.5 c 128,-1,26
 95 411 95 411 95 529 c 2,5,-1
281 550 m 2,27,-1
 281 529 l 2,28,29
 281 448 281 448 298 376.5 c 128,-1,30
 315 305 315 305 350.5 250 c 128,-1,31
 386 195 386 195 440.5 163.5 c 128,-1,32
 495 132 495 132 570 132 c 0,33,34
 662 132 662 132 723.5 172 c 128,-1,35
 785 212 785 212 822 277.5 c 128,-1,36
 859 343 859 343 879 418 c 1,37,-1
 879 659 l 1,38,39
 868 714 868 714 844.5 766 c 128,-1,40
 821 818 821 818 784 859.5 c 128,-1,41
 747 901 747 901 694.5 925.5 c 128,-1,42
 642 950 642 950 572 950 c 0,43,44
 496 950 496 950 441 918 c 128,-1,45
 386 886 386 886 350.5 830.5 c 128,-1,46
 315 775 315 775 298 703 c 128,-1,47
 281 631 281 631 281 550 c 2,27,-1
EndSplineSet
Substitution2: "'ss06' Style Set 6 lookup 17 subtable" q.ss06
Substitution2: "'smcp' Lowercase to Small Capitals lookup 1 subtable" Q.c2sc
EndChar

StartChar: r
Encoding: 114 114 86
Width: 694
GlyphClass: 2
Flags: W
LayerCount: 2
Fore
SplineSet
326 912 m 1,0,-1
 326 0 l 1,1,-1
 141 0 l 1,2,-1
 141 1082 l 1,3,-1
 321 1082 l 1,4,-1
 326 912 l 1,0,-1
664 1088 m 1,5,-1
 663 916 l 1,6,7
 640 921 640 921 619.5 922.5 c 128,-1,8
 599 924 599 924 573 924 c 0,9,10
 509 924 509 924 460 904 c 128,-1,11
 411 884 411 884 377 848 c 128,-1,12
 343 812 343 812 323.5 762.5 c 128,-1,13
 304 713 304 713 298 654 c 1,14,-1
 246 624 l 1,15,16
 246 722 246 722 265.5 808 c 128,-1,17
 285 894 285 894 326 960.5 c 128,-1,18
 367 1027 367 1027 430.5 1064.5 c 128,-1,19
 494 1102 494 1102 582 1102 c 0,20,21
 602 1102 602 1102 628 1097.5 c 128,-1,22
 654 1093 654 1093 664 1088 c 1,5,-1
EndSplineSet
Substitution2: "'smcp' Lowercase to Small Capitals lookup 1 subtable" R.c2sc
EndChar

StartChar: s
Encoding: 115 115 87
Width: 1057
GlyphClass: 2
Flags: W
LayerCount: 2
Fore
SplineSet
771 287 m 0,0,1
 771 327 771 327 753.5 361.5 c 128,-1,2
 736 396 736 396 682.5 424.5 c 128,-1,3
 629 453 629 453 522 474 c 0,4,5
 432 493 432 493 359.5 519 c 128,-1,6
 287 545 287 545 236.5 582 c 128,-1,7
 186 619 186 619 159 669 c 128,-1,8
 132 719 132 719 132 786 c 0,9,10
 132 850 132 850 160.5 907 c 128,-1,11
 189 964 189 964 241.5 1008 c 128,-1,12
 294 1052 294 1052 368 1077 c 128,-1,13
 442 1102 442 1102 533 1102 c 0,14,15
 663 1102 663 1102 755 1056 c 128,-1,16
 847 1010 847 1010 896 933.5 c 128,-1,17
 945 857 945 857 945 764 c 1,18,-1
 760 764 l 1,19,20
 760 809 760 809 733.5 851.5 c 128,-1,21
 707 894 707 894 656.5 922 c 128,-1,22
 606 950 606 950 533 950 c 0,23,24
 456 950 456 950 408.5 926.5 c 128,-1,25
 361 903 361 903 339.5 867 c 128,-1,26
 318 831 318 831 318 791 c 0,27,28
 318 761 318 761 328.5 737.5 c 128,-1,29
 339 714 339 714 366 694.5 c 128,-1,30
 393 675 393 675 442 658 c 128,-1,31
 491 641 491 641 567 624 c 0,32,33
 700 594 700 594 786 552 c 128,-1,34
 872 510 872 510 914 449 c 128,-1,35
 956 388 956 388 956 301 c 0,36,37
 956 230 956 230 926.5 171 c 128,-1,38
 897 112 897 112 841.5 69.5 c 128,-1,39
 786 27 786 27 709.5 3.5 c 128,-1,40
 633 -20 633 -20 538 -20 c 0,41,42
 395 -20 395 -20 296 31 c 128,-1,43
 197 82 197 82 146 163 c 128,-1,44
 95 244 95 244 95 334 c 1,45,-1
 281 334 l 1,46,47
 285 258 285 258 325 213.5 c 128,-1,48
 365 169 365 169 423 150.5 c 128,-1,49
 481 132 481 132 538 132 c 0,50,51
 614 132 614 132 665.5 152 c 128,-1,52
 717 172 717 172 744 207 c 128,-1,53
 771 242 771 242 771 287 c 0,0,1
EndSplineSet
Substitution2: "'smcp' Lowercase to Small Capitals lookup 1 subtable" S.c2sc
EndChar

StartChar: t
Encoding: 116 116 88
Width: 670
GlyphClass: 2
Flags: W
LayerCount: 2
Fore
SplineSet
594 1082 m 1,0,-1
 594 940 l 1,1,-1
 9 940 l 1,2,-1
 9 1082 l 1,3,-1
 594 1082 l 1,0,-1
207 1345 m 1,4,-1
 392 1345 l 1,5,-1
 392 268 l 2,6,7
 392 213 392 213 409 185 c 128,-1,8
 426 157 426 157 453 148 c 128,-1,9
 480 139 480 139 511 139 c 0,10,11
 534 139 534 139 559.5 143.5 c 128,-1,12
 585 148 585 148 598 151 c 1,13,-1
 599 0 l 1,14,15
 577 -7 577 -7 541.5 -13.5 c 128,-1,16
 506 -20 506 -20 456 -20 c 0,17,18
 388 -20 388 -20 331 7 c 128,-1,19
 274 34 274 34 240.5 97.5 c 128,-1,20
 207 161 207 161 207 269 c 2,21,-1
 207 1345 l 1,4,-1
EndSplineSet
Substitution2: "'smcp' Lowercase to Small Capitals lookup 1 subtable" T.c2sc
EndChar

StartChar: u
Encoding: 117 117 89
Width: 1129
GlyphClass: 2
Flags: W
LayerCount: 2
Fore
SplineSet
803 250 m 1,0,-1
 803 1082 l 1,1,-1
 989 1082 l 1,2,-1
 989 0 l 1,3,-1
 812 0 l 1,4,-1
 803 250 l 1,0,-1
838 478 m 1,5,-1
 915 480 l 1,6,7
 915 372 915 372 892.5 280.5 c 128,-1,8
 870 189 870 189 820 122 c 128,-1,9
 770 55 770 55 689 17.5 c 128,-1,10
 608 -20 608 -20 492 -20 c 0,11,12
 413 -20 413 -20 347.5 3 c 128,-1,13
 282 26 282 26 235 74 c 128,-1,14
 188 122 188 122 162.5 199 c 128,-1,15
 137 276 137 276 137 384 c 2,16,-1
 137 1082 l 1,17,-1
 322 1082 l 1,18,-1
 322 382 l 2,19,20
 322 309 322 309 338.5 261.5 c 128,-1,21
 355 214 355 214 383.5 186.5 c 128,-1,22
 412 159 412 159 447.5 148 c 128,-1,23
 483 137 483 137 521 137 c 0,24,25
 639 137 639 137 708 182.5 c 128,-1,26
 777 228 777 228 807.5 305.5 c 128,-1,27
 838 383 838 383 838 478 c 1,5,-1
EndSplineSet
Substitution2: "'smcp' Lowercase to Small Capitals lookup 1 subtable" U.c2sc
EndChar

StartChar: v
Encoding: 118 118 90
Width: 992
GlyphClass: 2
Flags: W
LayerCount: 2
Fore
SplineSet
470 167 m 1,0,-1
 766 1082 l 1,1,-1
 955 1082 l 1,2,-1
 566 0 l 1,3,-1
 442 0 l 1,4,-1
 470 167 l 1,0,-1
223 1082 m 1,5,-1
 528 162 l 1,6,-1
 549 0 l 1,7,-1
 425 0 l 1,8,-1
 33 1082 l 1,9,-1
 223 1082 l 1,5,-1
EndSplineSet
Substitution2: "'smcp' Lowercase to Small Capitals lookup 1 subtable" V.c2sc
EndChar

StartChar: w
Encoding: 119 119 91
Width: 1539
GlyphClass: 2
Flags: W
LayerCount: 2
Fore
SplineSet
415 192 m 1,0,-1
 693 1082 l 1,1,-1
 815 1082 l 1,2,-1
 791 905 l 1,3,-1
 508 0 l 1,4,-1
 389 0 l 1,5,-1
 415 192 l 1,0,-1
228 1082 m 1,6,-1
 465 182 l 1,7,-1
 482 0 l 1,8,-1
 357 0 l 1,9,-1
 43 1082 l 1,10,-1
 228 1082 l 1,6,-1
1081 189 m 1,11,-1
 1307 1082 l 1,12,-1
 1491 1082 l 1,13,-1
 1177 0 l 1,14,-1
 1053 0 l 1,15,-1
 1081 189 l 1,11,-1
842 1082 m 1,16,-1
 1114 207 l 1,17,-1
 1145 0 l 1,18,-1
 1027 0 l 1,19,-1
 736 907 l 1,20,-1
 712 1082 l 1,21,-1
 842 1082 l 1,16,-1
EndSplineSet
Substitution2: "'smcp' Lowercase to Small Capitals lookup 1 subtable" W.c2sc
EndChar

StartChar: x
Encoding: 120 120 92
Width: 1016
GlyphClass: 2
Flags: W
LayerCount: 2
Fore
SplineSet
266 1082 m 1,0,-1
 503 688 l 1,1,-1
 743 1082 l 1,2,-1
 960 1082 l 1,3,-1
 606 548 l 1,4,-1
 971 0 l 1,5,-1
 757 0 l 1,6,-1
 507 406 l 1,7,-1
 257 0 l 1,8,-1
 42 0 l 1,9,-1
 406 548 l 1,10,-1
 53 1082 l 1,11,-1
 266 1082 l 1,0,-1
EndSplineSet
Substitution2: "'smcp' Lowercase to Small Capitals lookup 1 subtable" X.c2sc
EndChar

StartChar: y
Encoding: 121 121 93
Width: 969
GlyphClass: 2
Flags: W
LayerCount: 2
Fore
SplineSet
445 112 m 1,0,-1
 746 1082 l 1,1,-1
 944 1082 l 1,2,-1
 510 -167 l 2,3,4
 495 -207 495 -207 470.5 -253.5 c 128,-1,5
 446 -300 446 -300 408 -342 c 128,-1,6
 370 -384 370 -384 316.5 -410.5 c 128,-1,7
 263 -437 263 -437 189 -437 c 0,8,9
 167 -437 167 -437 133 -431 c 128,-1,10
 99 -425 99 -425 85 -421 c 1,11,-1
 84 -271 l 1,12,13
 92 -272 92 -272 109.5 -273.5 c 128,-1,14
 127 -275 127 -275 134 -275 c 0,15,16
 197 -275 197 -275 241 -258.5 c 128,-1,17
 285 -242 285 -242 315.5 -203.5 c 128,-1,18
 346 -165 346 -165 368 -98 c 2,19,-1
 445 112 l 1,0,-1
224 1082 m 1,20,-1
 505 242 l 1,21,-1
 553 47 l 1,22,-1
 420 -21 l 1,23,-1
 22 1082 l 1,24,-1
 224 1082 l 1,20,-1
EndSplineSet
Substitution2: "'smcp' Lowercase to Small Capitals lookup 1 subtable" Y.c2sc
EndChar

StartChar: z
Encoding: 122 122 94
Width: 1016
GlyphClass: 2
Flags: W
LayerCount: 2
Fore
SplineSet
947 152 m 1,0,-1
 947 0 l 1,1,-1
 160 0 l 1,2,-1
 160 152 l 1,3,-1
 947 152 l 1,0,-1
918 951 m 1,4,-1
 202 0 l 1,5,-1
 89 0 l 1,6,-1
 89 136 l 1,7,-1
 800 1082 l 1,8,-1
 918 1082 l 1,9,-1
 918 951 l 1,4,-1
836 1082 m 1,10,-1
 836 929 l 1,11,-1
 97 929 l 1,12,-1
 97 1082 l 1,13,-1
 836 1082 l 1,10,-1
EndSplineSet
Substitution2: "'smcp' Lowercase to Small Capitals lookup 1 subtable" Z.c2sc
EndChar

StartChar: braceleft
Encoding: 123 123 95
Width: 693
GlyphClass: 1
Flags: W
LayerCount: 2
Fore
SplineSet
632 1597 m 1,0,-1
 671 1483 l 1,1,2
 552 1446 552 1446 507 1350.5 c 128,-1,3
 462 1255 462 1255 462 1132 c 2,4,-1
 462 925 l 2,5,6
 462 825 462 825 421.5 743.5 c 128,-1,7
 381 662 381 662 293.5 614 c 128,-1,8
 206 566 206 566 64 566 c 1,9,-1
 64 688 l 1,10,11
 177 688 177 688 226.5 752 c 128,-1,12
 276 816 276 816 276 925 c 2,13,-1
 276 1132 l 2,14,15
 276 1237 276 1237 308.5 1328.5 c 128,-1,16
 341 1420 341 1420 418.5 1489.5 c 128,-1,17
 496 1559 496 1559 632 1597 c 1,0,-1
671 -251 m 1,18,-1
 632 -366 l 1,19,20
 496 -327 496 -327 418.5 -258 c 128,-1,21
 341 -189 341 -189 308.5 -97.5 c 128,-1,22
 276 -6 276 -6 276 99 c 2,23,-1
 276 305 l 2,24,25
 276 378 276 378 254 431 c 128,-1,26
 232 484 232 484 185.5 513.5 c 128,-1,27
 139 543 139 543 64 543 c 1,28,-1
 64 665 l 1,29,30
 206 665 206 665 293.5 617 c 128,-1,31
 381 569 381 569 421.5 487.5 c 128,-1,32
 462 406 462 406 462 305 c 2,33,-1
 462 99 l 2,34,35
 462 17 462 17 481.5 -53 c 128,-1,36
 501 -123 501 -123 546.5 -174.5 c 128,-1,37
 592 -226 592 -226 671 -251 c 1,18,-1
EndSplineSet
EndChar

StartChar: bar
Encoding: 124 124 96
Width: 500
GlyphClass: 1
Flags: W
LayerCount: 2
Fore
SplineSet
325 1456 m 1,0,-1
 325 -270 l 1,1,-1
 176 -270 l 1,2,-1
 176 1456 l 1,3,-1
 325 1456 l 1,0,-1
EndSplineSet
EndChar

StartChar: braceright
Encoding: 125 125 97
Width: 693
GlyphClass: 1
Flags: W
LayerCount: 2
Fore
SplineSet
20 1483 m 1,0,-1
 59 1597 l 1,1,2
 196 1559 196 1559 273.5 1489.5 c 128,-1,3
 351 1420 351 1420 383 1328.5 c 128,-1,4
 415 1237 415 1237 415 1132 c 2,5,-1
 415 925 l 2,6,7
 415 853 415 853 437 799.5 c 128,-1,8
 459 746 459 746 505.5 717 c 128,-1,9
 552 688 552 688 627 688 c 1,10,-1
 627 575 l 1,11,12
 486 575 486 575 398 620.5 c 128,-1,13
 310 666 310 666 269.5 745.5 c 128,-1,14
 229 825 229 825 229 925 c 2,15,-1
 229 1132 l 2,16,17
 229 1214 229 1214 210 1284.5 c 128,-1,18
 191 1355 191 1355 145.5 1406.5 c 128,-1,19
 100 1458 100 1458 20 1483 c 1,0,-1
59 -366 m 1,20,-1
 20 -251 l 1,21,22
 99 -226 99 -226 144.5 -174.5 c 128,-1,23
 190 -123 190 -123 209.5 -53 c 128,-1,24
 229 17 229 17 229 99 c 2,25,-1
 229 305 l 2,26,27
 229 406 229 406 269.5 485 c 128,-1,28
 310 564 310 564 398 609.5 c 128,-1,29
 486 655 486 655 627 655 c 1,30,-1
 627 543 l 1,31,32
 515 543 515 543 465 478.5 c 128,-1,33
 415 414 415 414 415 305 c 2,34,-1
 415 99 l 2,35,36
 415 -6 415 -6 383 -97.5 c 128,-1,37
 351 -189 351 -189 273.5 -258 c 128,-1,38
 196 -327 196 -327 59 -366 c 1,20,-1
EndSplineSet
EndChar

StartChar: asciitilde
Encoding: 126 126 98
Width: 1393
GlyphClass: 1
Flags: W
LayerCount: 2
Fore
SplineSet
1111 777 m 1,0,-1
 1263 778 l 1,1,2
 1263 701 1263 701 1239.5 633 c 128,-1,3
 1216 565 1216 565 1172.5 513.5 c 128,-1,4
 1129 462 1129 462 1069.5 432.5 c 128,-1,5
 1010 403 1010 403 939 403 c 0,6,7
 852 403 852 403 785.5 438 c 128,-1,8
 719 473 719 473 641 541 c 0,9,10
 590 588 590 588 547 614 c 128,-1,11
 504 640 504 640 454 640 c 0,12,13
 403 640 403 640 367 615.5 c 128,-1,14
 331 591 331 591 311.5 546 c 128,-1,15
 292 501 292 501 292 438 c 1,16,-1
 131 436 l 1,17,18
 131 514 131 514 154.5 581 c 128,-1,19
 178 648 178 648 221 698 c 128,-1,20
 264 748 264 748 323.5 775.5 c 128,-1,21
 383 803 383 803 454 803 c 0,22,23
 542 803 542 803 610.5 766 c 128,-1,24
 679 729 679 729 752 664 c 0,25,26
 807 614 807 614 848.5 589.5 c 128,-1,27
 890 565 890 565 939 565 c 0,28,29
 991 565 991 565 1029.5 592 c 128,-1,30
 1068 619 1068 619 1089.5 667 c 128,-1,31
 1111 715 1111 715 1111 777 c 1,0,-1
EndSplineSet
EndChar

StartChar: exclamdown
Encoding: 161 161 99
Width: 500
GlyphClass: 1
Flags: W
LayerCount: 2
Fore
SplineSet
157 -361 m 1,0,-1
 171 684 l 1,1,-1
 338 684 l 1,2,-1
 352 -361 l 1,3,-1
 157 -361 l 1,0,-1
358 996 m 256,4,5
 358 952 358 952 330.5 921 c 128,-1,6
 303 890 303 890 249 890 c 0,7,8
 196 890 196 890 167.5 921 c 128,-1,9
 139 952 139 952 139 996 c 256,10,11
 139 1040 139 1040 167.5 1070.5 c 128,-1,12
 196 1101 196 1101 249 1101 c 0,13,14
 303 1101 303 1101 330.5 1070.5 c 128,-1,15
 358 1040 358 1040 358 996 c 256,4,5
EndSplineSet
EndChar

StartChar: cent
Encoding: 162 162 100
Width: 1121
GlyphClass: 1
Flags: W
LayerCount: 2
Fore
SplineSet
670 1318 m 1,0,-1
 670 1030 l 1,1,-1
 484 1030 l 1,2,-1
 484 1318 l 1,3,-1
 670 1318 l 1,0,-1
670 42 m 1,4,-1
 670 -245 l 1,5,-1
 484 -245 l 1,6,-1
 484 42 l 1,7,-1
 670 42 l 1,4,-1
587 132 m 0,8,9
 653 132 653 132 709 159 c 128,-1,10
 765 186 765 186 801 233.5 c 128,-1,11
 837 281 837 281 842 342 c 1,12,-1
 1018 342 l 1,13,14
 1013 246 1013 246 953 163.5 c 128,-1,15
 893 81 893 81 797.5 30.5 c 128,-1,16
 702 -20 702 -20 587 -20 c 0,17,18
 465 -20 465 -20 374 23 c 128,-1,19
 283 66 283 66 223.5 141 c 128,-1,20
 164 216 164 216 134.5 313.5 c 128,-1,21
 105 411 105 411 105 520 c 2,22,-1
 105 562 l 2,23,24
 105 671 105 671 134.5 768.5 c 128,-1,25
 164 866 164 866 224 941 c 128,-1,26
 284 1016 284 1016 374.5 1059 c 128,-1,27
 465 1102 465 1102 587 1102 c 0,28,29
 714 1102 714 1102 809 1050.5 c 128,-1,30
 904 999 904 999 958.5 910.5 c 128,-1,31
 1013 822 1013 822 1018 710 c 1,32,-1
 842 710 l 1,33,34
 837 777 837 777 804.5 831 c 128,-1,35
 772 885 772 885 716.5 917.5 c 128,-1,36
 661 950 661 950 587 950 c 0,37,38
 502 950 502 950 444.5 916.5 c 128,-1,39
 387 883 387 883 353.5 826.5 c 128,-1,40
 320 770 320 770 305.5 701.5 c 128,-1,41
 291 633 291 633 291 562 c 2,42,-1
 291 520 l 2,43,44
 291 449 291 449 305 380 c 128,-1,45
 319 311 319 311 352.5 255 c 128,-1,46
 386 199 386 199 443.5 165.5 c 128,-1,47
 501 132 501 132 587 132 c 0,8,9
EndSplineSet
EndChar

StartChar: sterling
Encoding: 163 163 101
Width: 1191
GlyphClass: 1
Flags: W
LayerCount: 2
Fore
SplineSet
1128 0 m 1,0,-1
 95 0 l 1,1,-1
 95 157 l 1,2,-1
 1128 157 l 1,3,-1
 1128 0 l 1,0,-1
763 623 m 1,4,-1
 91 623 l 1,5,-1
 91 780 l 1,6,-1
 763 780 l 1,7,-1
 763 623 l 1,4,-1
435 1039 m 2,8,-1
 457 402 l 2,9,10
 458 308 458 308 430 226.5 c 128,-1,11
 402 145 402 145 346 104 c 1,12,-1
 172 157 l 1,13,14
 207 166 207 166 227.5 207.5 c 128,-1,15
 248 249 248 249 256.5 303 c 128,-1,16
 265 357 265 357 265 401 c 2,17,-1
 243 1039 l 1,18,19
 243 1177 243 1177 301 1274.5 c 128,-1,20
 359 1372 359 1372 459.5 1424 c 128,-1,21
 560 1476 560 1476 687 1476 c 0,22,23
 818 1476 818 1476 910 1427 c 128,-1,24
 1002 1378 1002 1378 1051 1290.5 c 128,-1,25
 1100 1203 1100 1203 1100 1087 c 1,26,-1
 908 1087 l 1,27,28
 908 1171 908 1171 874.5 1222 c 128,-1,29
 841 1273 841 1273 787 1296 c 128,-1,30
 733 1319 733 1319 671 1319 c 0,31,32
 605 1319 605 1319 551.5 1286.5 c 128,-1,33
 498 1254 498 1254 466.5 1191.5 c 128,-1,34
 435 1129 435 1129 435 1039 c 2,8,-1
EndSplineSet
Substitution2: "'c2sc' Capitals to Small Capitals lookup 0 subtable" sterling.c2sc
Position2: "'cpsp' Capital Spacing lookup 0 subtable" dx=36 dy=0 dh=72 dv=0
EndChar

StartChar: currency
Encoding: 164 164 102
Width: 1461
GlyphClass: 1
Flags: W
LayerCount: 2
Fore
SplineSet
312 608 m 0,0,1
 312 514 312 514 345 431 c 128,-1,2
 378 348 378 348 436 285.5 c 128,-1,3
 494 223 494 223 570.5 187.5 c 128,-1,4
 647 152 647 152 735 152 c 256,5,6
 823 152 823 152 899.5 187.5 c 128,-1,7
 976 223 976 223 1034 285.5 c 128,-1,8
 1092 348 1092 348 1124.5 431 c 128,-1,9
 1157 514 1157 514 1157 608 c 0,10,11
 1157 703 1157 703 1124.5 785 c 128,-1,12
 1092 867 1092 867 1034 929.5 c 128,-1,13
 976 992 976 992 899.5 1027 c 128,-1,14
 823 1062 823 1062 735 1062 c 256,15,16
 647 1062 647 1062 570.5 1027 c 128,-1,17
 494 992 494 992 436 929.5 c 128,-1,18
 378 867 378 867 345 785 c 128,-1,19
 312 703 312 703 312 608 c 0,0,1
140 608 m 256,20,21
 140 741 140 741 186.5 855 c 128,-1,22
 233 969 233 969 314.5 1054 c 128,-1,23
 396 1139 396 1139 504 1186.5 c 128,-1,24
 612 1234 612 1234 735 1234 c 256,25,26
 858 1234 858 1234 966 1186.5 c 128,-1,27
 1074 1139 1074 1139 1156 1054 c 128,-1,28
 1238 969 1238 969 1284 855 c 128,-1,29
 1330 741 1330 741 1330 608 c 256,30,31
 1330 475 1330 475 1284 361 c 128,-1,32
 1238 247 1238 247 1156 161.5 c 128,-1,33
 1074 76 1074 76 966 28 c 128,-1,34
 858 -20 858 -20 735 -20 c 256,35,36
 612 -20 612 -20 504 28 c 128,-1,37
 396 76 396 76 314.5 161.5 c 128,-1,38
 233 247 233 247 186.5 361 c 128,-1,39
 140 475 140 475 140 608 c 256,20,21
1371 1128 m 1,40,-1
 1169 922 l 1,41,-1
 1037 1059 l 1,42,-1
 1239 1265 l 1,43,-1
 1371 1128 l 1,40,-1
438 180 m 1,44,-1
 236 -26 l 1,45,-1
 105 110 l 1,46,-1
 307 315 l 1,47,-1
 438 180 l 1,44,-1
1239 -27 m 1,48,-1
 1037 179 l 1,49,-1
 1169 315 l 1,50,-1
 1371 110 l 1,51,-1
 1239 -27 l 1,48,-1
307 922 m 1,52,-1
 105 1128 l 1,53,-1
 236 1264 l 1,54,-1
 438 1058 l 1,55,-1
 307 922 l 1,52,-1
EndSplineSet
EndChar

StartChar: yen
Encoding: 165 165 103
Width: 1076
GlyphClass: 1
Flags: W
LayerCount: 2
Fore
SplineSet
955 737 m 1,0,-1
 955 612 l 1,1,-1
 120 612 l 1,2,-1
 120 737 l 1,3,-1
 955 737 l 1,0,-1
955 446 m 1,4,-1
 955 322 l 1,5,-1
 120 322 l 1,6,-1
 120 446 l 1,7,-1
 955 446 l 1,4,-1
480 666 m 1,8,-1
 847 1456 l 1,9,-1
 1060 1456 l 1,10,-1
 627 604 l 1,11,-1
 504 604 l 1,12,-1
 480 666 l 1,8,-1
232 1456 m 1,13,-1
 601 659 l 1,14,-1
 572 604 l 1,15,-1
 450 604 l 1,16,-1
 15 1456 l 1,17,-1
 232 1456 l 1,13,-1
630 774 m 1,18,-1
 630 0 l 1,19,-1
 438 0 l 1,20,-1
 438 774 l 1,21,-1
 630 774 l 1,18,-1
EndSplineSet
Substitution2: "'c2sc' Capitals to Small Capitals lookup 0 subtable" yen.c2sc
Position2: "'cpsp' Capital Spacing lookup 0 subtable" dx=36 dy=0 dh=72 dv=0
EndChar

StartChar: brokenbar
Encoding: 166 166 104
Width: 492
GlyphClass: 1
Flags: W
LayerCount: 2
Fore
SplineSet
333 -270 m 1,0,-1
 148 -270 l 1,1,-1
 148 522 l 1,2,-1
 333 522 l 1,3,-1
 333 -270 l 1,0,-1
333 1456 m 1,4,-1
 333 698 l 1,5,-1
 148 698 l 1,6,-1
 148 1456 l 1,7,-1
 333 1456 l 1,4,-1
EndSplineSet
EndChar

StartChar: section
Encoding: 167 167 105
Width: 1256
GlyphClass: 1
Flags: W
LayerCount: 2
Fore
SplineSet
699 108 m 1,0,-1
 699 226 l 1,1,2
 782 226 782 226 840 252 c 128,-1,3
 898 278 898 278 929 324 c 128,-1,4
 960 370 960 370 960 428 c 0,5,6
 960 475 960 475 942.5 510.5 c 128,-1,7
 925 546 925 546 884 575.5 c 128,-1,8
 843 605 843 605 774 632.5 c 128,-1,9
 705 660 705 660 603 691 c 0,10,11
 494 721 494 721 408.5 755.5 c 128,-1,12
 323 790 323 790 263.5 837.5 c 128,-1,13
 204 885 204 885 173 951.5 c 128,-1,14
 142 1018 142 1018 142 1111 c 0,15,16
 142 1194 142 1194 176.5 1261.5 c 128,-1,17
 211 1329 211 1329 275 1377 c 128,-1,18
 339 1425 339 1425 429 1451 c 128,-1,19
 519 1477 519 1477 631 1477 c 0,20,21
 784 1477 784 1477 894 1427 c 128,-1,22
 1004 1377 1004 1377 1063 1281 c 128,-1,23
 1122 1185 1122 1185 1122 1046 c 1,24,-1
 937 1046 l 1,25,26
 937 1123 937 1123 901.5 1186.5 c 128,-1,27
 866 1250 866 1250 798 1287.5 c 128,-1,28
 730 1325 730 1325 631 1325 c 0,29,30
 526 1325 526 1325 459 1296 c 128,-1,31
 392 1267 392 1267 359.5 1219 c 128,-1,32
 327 1171 327 1171 327 1113 c 0,33,34
 327 1063 327 1063 342.5 1027 c 128,-1,35
 358 991 358 991 396 963 c 128,-1,36
 434 935 434 935 502.5 909.5 c 128,-1,37
 571 884 571 884 676 855 c 0,38,39
 788 824 788 824 875 788.5 c 128,-1,40
 962 753 962 753 1022 705.5 c 128,-1,41
 1082 658 1082 658 1113.5 591 c 128,-1,42
 1145 524 1145 524 1145 431 c 0,43,44
 1145 355 1145 355 1113.5 295 c 128,-1,45
 1082 235 1082 235 1023.5 193.5 c 128,-1,46
 965 152 965 152 882.5 130 c 128,-1,47
 800 108 800 108 699 108 c 1,0,-1
525 874 m 1,48,-1
 525 753 l 1,49,50
 442 753 442 753 388 727 c 128,-1,51
 334 701 334 701 308 656 c 128,-1,52
 282 611 282 611 282 553 c 0,53,54
 282 503 282 503 297.5 466.5 c 128,-1,55
 313 430 313 430 352 401 c 128,-1,56
 391 372 391 372 460.5 346 c 128,-1,57
 530 320 530 320 637 290 c 0,58,59
 748 259 748 259 834 224 c 128,-1,60
 920 189 920 189 979 142.5 c 128,-1,61
 1038 96 1038 96 1069 30 c 128,-1,62
 1100 -36 1100 -36 1100 -129 c 0,63,64
 1100 -216 1100 -216 1065.5 -284 c 128,-1,65
 1031 -352 1031 -352 967 -399 c 128,-1,66
 903 -446 903 -446 813.5 -470.5 c 128,-1,67
 724 -495 724 -495 613 -495 c 0,68,69
 517 -495 517 -495 424 -473 c 128,-1,70
 331 -451 331 -451 255.5 -401 c 128,-1,71
 180 -351 180 -351 135.5 -268 c 128,-1,72
 91 -185 91 -185 91 -64 c 1,73,-1
 276 -62 l 1,74,75
 276 -141 276 -141 306 -195.5 c 128,-1,76
 336 -250 336 -250 385.5 -282 c 128,-1,77
 435 -314 435 -314 494.5 -328.5 c 128,-1,78
 554 -343 554 -343 613 -343 c 0,79,80
 709 -343 709 -343 776.5 -315 c 128,-1,81
 844 -287 844 -287 879.5 -239 c 128,-1,82
 915 -191 915 -191 915 -131 c 0,83,84
 915 -84 915 -84 898 -49.5 c 128,-1,85
 881 -15 881 -15 841 13.5 c 128,-1,86
 801 42 801 42 733 69 c 128,-1,87
 665 96 665 96 564 126 c 0,88,89
 455 156 455 156 368 191.5 c 128,-1,90
 281 227 281 227 221 275 c 128,-1,91
 161 323 161 323 129 390.5 c 128,-1,92
 97 458 97 458 97 551 c 0,93,94
 97 625 97 625 127 684.5 c 128,-1,95
 157 744 157 744 213 786 c 128,-1,96
 269 828 269 828 348 851 c 128,-1,97
 427 874 427 874 525 874 c 1,48,-1
EndSplineSet
EndChar

StartChar: dieresis
Encoding: 168 168 106
Width: 857
GlyphClass: 2
Flags: W
LayerCount: 2
Fore
SplineSet
101 1371 m 0,0,1
 101 1416 101 1416 129 1447 c 128,-1,2
 157 1478 157 1478 210 1478 c 0,3,4
 264 1478 264 1478 292 1447 c 128,-1,5
 320 1416 320 1416 320 1371 c 0,6,7
 320 1328 320 1328 292 1297.5 c 128,-1,8
 264 1267 264 1267 210 1267 c 0,9,10
 157 1267 157 1267 129 1297.5 c 128,-1,11
 101 1328 101 1328 101 1371 c 0,0,1
532 1369 m 0,12,13
 532 1414 532 1414 559.5 1445 c 128,-1,14
 587 1476 587 1476 641 1476 c 0,15,16
 694 1476 694 1476 722.5 1445 c 128,-1,17
 751 1414 751 1414 751 1369 c 0,18,19
 751 1326 751 1326 722.5 1295.5 c 128,-1,20
 694 1265 694 1265 641 1265 c 0,21,22
 587 1265 587 1265 559.5 1295.5 c 128,-1,23
 532 1326 532 1326 532 1369 c 0,12,13
EndSplineSet
EndChar

StartChar: copyright
Encoding: 169 169 107
Width: 1609
GlyphClass: 1
Flags: W
LayerCount: 2
Fore
SplineSet
974 598 m 1,0,-1
 1120 598 l 1,1,2
 1120 441 1120 441 1030.5 362.5 c 128,-1,3
 941 284 941 284 788 284 c 0,4,5
 682 284 682 284 604.5 333 c 128,-1,6
 527 382 527 382 484.5 469 c 128,-1,7
 442 556 442 556 442 671 c 2,8,-1
 442 786 l 2,9,10
 442 901 442 901 484.5 988 c 128,-1,11
 527 1075 527 1075 604.5 1124 c 128,-1,12
 682 1173 682 1173 788 1173 c 0,13,14
 941 1173 941 1173 1031 1095 c 128,-1,15
 1121 1017 1121 1017 1121 860 c 1,16,-1
 975 860 l 1,17,18
 975 959 975 959 927.5 1002 c 128,-1,19
 880 1045 880 1045 788 1045 c 0,20,21
 722 1045 722 1045 677 1012 c 128,-1,22
 632 979 632 979 609 920.5 c 128,-1,23
 586 862 586 862 586 787 c 2,24,-1
 586 671 l 2,25,26
 586 595 586 595 609 536.5 c 128,-1,27
 632 478 632 478 677 445 c 128,-1,28
 722 412 722 412 788 412 c 0,29,30
 880 412 880 412 927 455 c 128,-1,31
 974 498 974 498 974 598 c 1,0,-1
207 729 m 0,32,33
 207 596 207 596 253 481 c 128,-1,34
 299 366 299 366 381 280 c 128,-1,35
 463 194 463 194 571 146 c 128,-1,36
 679 98 679 98 802 98 c 256,37,38
 925 98 925 98 1032.5 146 c 128,-1,39
 1140 194 1140 194 1221.5 280 c 128,-1,40
 1303 366 1303 366 1349 481 c 128,-1,41
 1395 596 1395 596 1395 729 c 0,42,43
 1395 863 1395 863 1349 977 c 128,-1,44
 1303 1091 1303 1091 1221.5 1176.5 c 128,-1,45
 1140 1262 1140 1262 1032.5 1309.5 c 128,-1,46
 925 1357 925 1357 802 1357 c 256,47,48
 679 1357 679 1357 571 1309.5 c 128,-1,49
 463 1262 463 1262 381 1176.5 c 128,-1,50
 299 1091 299 1091 253 977 c 128,-1,51
 207 863 207 863 207 729 c 0,32,33
92 729 m 256,52,53
 92 888 92 888 147 1024 c 128,-1,54
 202 1160 202 1160 300 1261.5 c 128,-1,55
 398 1363 398 1363 526.5 1419.5 c 128,-1,56
 655 1476 655 1476 802 1476 c 256,57,58
 949 1476 949 1476 1077.5 1419.5 c 128,-1,59
 1206 1363 1206 1363 1303.5 1261.5 c 128,-1,60
 1401 1160 1401 1160 1456 1024 c 128,-1,61
 1511 888 1511 888 1511 729 c 256,62,63
 1511 570 1511 570 1456 434 c 128,-1,64
 1401 298 1401 298 1303.5 195.5 c 128,-1,65
 1206 93 1206 93 1077.5 36 c 128,-1,66
 949 -21 949 -21 802 -21 c 256,67,68
 655 -21 655 -21 526.5 36 c 128,-1,69
 398 93 398 93 300 195.5 c 128,-1,70
 202 298 202 298 147 434 c 128,-1,71
 92 570 92 570 92 729 c 256,52,53
EndSplineSet
EndChar

StartChar: ordfeminine
Encoding: 170 170 108
Width: 916
GlyphClass: 1
Flags: W
LayerCount: 2
Fore
SplineSet
595 862 m 2,0,-1
 595 1202 l 2,1,2
 595 1245 595 1245 581.5 1275 c 128,-1,3
 568 1305 568 1305 540.5 1320.5 c 128,-1,4
 513 1336 513 1336 471 1336 c 0,5,6
 402 1336 402 1336 362.5 1309.5 c 128,-1,7
 323 1283 323 1283 323 1231 c 1,8,-1
 162 1244 l 1,9,10
 162 1312 162 1312 200.5 1364.5 c 128,-1,11
 239 1417 239 1417 308.5 1447 c 128,-1,12
 378 1477 378 1477 471 1477 c 0,13,14
 557 1477 557 1477 621.5 1446 c 128,-1,15
 686 1415 686 1415 722 1354 c 128,-1,16
 758 1293 758 1293 758 1201 c 2,17,-1
 758 887 l 2,18,19
 758 838 758 838 764 794 c 128,-1,20
 770 750 770 750 784 706 c 1,21,-1
 619 706 l 1,22,23
 595 781 595 781 595 862 c 2,0,-1
635 1149 m 1,24,-1
 636 1038 l 1,25,-1
 487 1038 l 2,26,27
 427 1038 427 1038 387.5 1022 c 128,-1,28
 348 1006 348 1006 329 980 c 128,-1,29
 310 954 310 954 310 922 c 0,30,31
 310 879 310 879 340.5 854 c 128,-1,32
 371 829 371 829 435 829 c 0,33,34
 478 829 478 829 521.5 848.5 c 128,-1,35
 565 868 565 868 594 896 c 128,-1,36
 623 924 623 924 623 949 c 1,37,-1
 641 837 l 1,38,39
 626 805 626 805 594.5 771 c 128,-1,40
 563 737 563 737 513.5 714.5 c 128,-1,41
 464 692 464 692 396 692 c 0,42,43
 276 692 276 692 211.5 753.5 c 128,-1,44
 147 815 147 815 147 918 c 0,45,46
 147 992 147 992 184.5 1043.5 c 128,-1,47
 222 1095 222 1095 297.5 1122 c 128,-1,48
 373 1149 373 1149 486 1149 c 2,49,-1
 635 1149 l 1,24,-1
EndSplineSet
EndChar

StartChar: logicalnot
Encoding: 172 172 110
Width: 1134
GlyphClass: 1
Flags: W
LayerCount: 2
Fore
SplineSet
958 801 m 1,0,-1
 958 639 l 1,1,-1
 127 639 l 1,2,-1
 127 801 l 1,3,-1
 958 801 l 1,0,-1
958 726 m 1,4,-1
 958 376 l 1,5,-1
 773 376 l 1,6,-1
 773 726 l 1,7,-1
 958 726 l 1,4,-1
EndSplineSet
EndChar

StartChar: registered
Encoding: 174 174 111
Width: 1610
GlyphClass: 1
Flags: W
LayerCount: 2
Fore
SplineSet
827 655 m 2,0,-1
 609 655 l 1,1,-1
 607 783 l 1,2,-1
 810 783 l 2,3,4
 852 784 852 784 888.5 798 c 128,-1,5
 925 812 925 812 947.5 838.5 c 128,-1,6
 970 865 970 865 970 904 c 0,7,8
 970 954 970 954 953 983 c 128,-1,9
 936 1012 936 1012 896.5 1025 c 128,-1,10
 857 1038 857 1038 789 1038 c 2,11,-1
 653 1038 l 1,12,-1
 653 317 l 1,13,-1
 512 317 l 1,14,-1
 512 1165 l 1,15,-1
 789 1165 l 2,16,17
 888 1165 888 1165 960 1137 c 128,-1,18
 1032 1109 1032 1109 1071 1052.5 c 128,-1,19
 1110 996 1110 996 1110 910 c 0,20,21
 1110 856 1110 856 1085 813 c 128,-1,22
 1060 770 1060 770 1012 739 c 128,-1,23
 964 708 964 708 895 689 c 0,24,25
 892 689 892 689 888.5 682.5 c 128,-1,26
 885 676 885 676 882 676 c 0,27,28
 865 666 865 666 860.5 661.5 c 128,-1,29
 856 657 856 657 851.5 656 c 128,-1,30
 847 655 847 655 827 655 c 2,0,-1
817 655 m 1,31,-1
 837 745 l 1,32,33
 992 745 992 745 1048.5 679.5 c 128,-1,34
 1105 614 1105 614 1105 514 c 2,35,-1
 1105 460 l 2,36,37
 1105 423 1105 423 1109 389.5 c 128,-1,38
 1113 356 1113 356 1122 333 c 1,39,-1
 1122 317 l 1,40,-1
 977 317 l 1,41,42
 967 343 967 343 965.5 391 c 128,-1,43
 964 439 964 439 964 461 c 2,44,-1
 964 513 l 2,45,46
 964 586 964 586 930.5 620.5 c 128,-1,47
 897 655 897 655 817 655 c 1,31,-1
206 729 m 0,48,49
 206 596 206 596 252 481 c 128,-1,50
 298 366 298 366 380 280 c 128,-1,51
 462 194 462 194 570 146 c 128,-1,52
 678 98 678 98 801 98 c 256,53,54
 924 98 924 98 1031.5 146 c 128,-1,55
 1139 194 1139 194 1220.5 280 c 128,-1,56
 1302 366 1302 366 1348 481 c 128,-1,57
 1394 596 1394 596 1394 729 c 0,58,59
 1394 863 1394 863 1348 977 c 128,-1,60
 1302 1091 1302 1091 1220.5 1176.5 c 128,-1,61
 1139 1262 1139 1262 1031.5 1309.5 c 128,-1,62
 924 1357 924 1357 801 1357 c 256,63,64
 678 1357 678 1357 570 1309.5 c 128,-1,65
 462 1262 462 1262 380 1176.5 c 128,-1,66
 298 1091 298 1091 252 977 c 128,-1,67
 206 863 206 863 206 729 c 0,48,49
91 729 m 256,68,69
 91 888 91 888 146 1024 c 128,-1,70
 201 1160 201 1160 299 1261.5 c 128,-1,71
 397 1363 397 1363 525.5 1419.5 c 128,-1,72
 654 1476 654 1476 801 1476 c 256,73,74
 948 1476 948 1476 1076.5 1419.5 c 128,-1,75
 1205 1363 1205 1363 1302.5 1261.5 c 128,-1,76
 1400 1160 1400 1160 1455 1024 c 128,-1,77
 1510 888 1510 888 1510 729 c 256,78,79
 1510 570 1510 570 1455 434 c 128,-1,80
 1400 298 1400 298 1302.5 195.5 c 128,-1,81
 1205 93 1205 93 1076.5 36 c 128,-1,82
 948 -21 948 -21 801 -21 c 256,83,84
 654 -21 654 -21 525.5 36 c 128,-1,85
 397 93 397 93 299 195.5 c 128,-1,86
 201 298 201 298 146 434 c 128,-1,87
 91 570 91 570 91 729 c 256,68,69
EndSplineSet
EndChar

StartChar: macron
Encoding: 175 175 112
Width: 939
GlyphClass: 2
Flags: W
LayerCount: 2
Fore
SplineSet
814 1445 m 1,0,-1
 814 1303 l 1,1,-1
 143 1303 l 1,2,-1
 143 1445 l 1,3,-1
 814 1445 l 1,0,-1
EndSplineSet
EndChar

StartChar: degree
Encoding: 176 176 113
Width: 765
GlyphClass: 1
Flags: W
LayerCount: 2
Fore
SplineSet
131 1217 m 256,0,1
 131 1288 131 1288 166 1347 c 128,-1,2
 201 1406 201 1406 259 1441.5 c 128,-1,3
 317 1477 317 1477 386 1477 c 256,4,5
 455 1477 455 1477 512 1441.5 c 128,-1,6
 569 1406 569 1406 603 1347 c 128,-1,7
 637 1288 637 1288 637 1217 c 256,8,9
 637 1146 637 1146 603 1087.5 c 128,-1,10
 569 1029 569 1029 512 994.5 c 128,-1,11
 455 960 455 960 386 960 c 256,12,13
 317 960 317 960 259 994.5 c 128,-1,14
 201 1029 201 1029 166 1087.5 c 128,-1,15
 131 1146 131 1146 131 1217 c 256,0,1
255 1217 m 0,16,17
 255 1162 255 1162 293.5 1125 c 128,-1,18
 332 1088 332 1088 386 1088 c 256,19,20
 440 1088 440 1088 476.5 1125 c 128,-1,21
 513 1162 513 1162 513 1217 c 0,22,23
 513 1273 513 1273 476.5 1311 c 128,-1,24
 440 1349 440 1349 386 1349 c 256,25,26
 332 1349 332 1349 293.5 1311 c 128,-1,27
 255 1273 255 1273 255 1217 c 0,16,17
EndSplineSet
EndChar

StartChar: plusminus
Encoding: 177 177 114
Width: 1095
GlyphClass: 1
Flags: W
LayerCount: 2
Fore
SplineSet
1013 855 m 1,0,-1
 1013 703 l 1,1,-1
 97 703 l 1,2,-1
 97 855 l 1,3,-1
 1013 855 l 1,0,-1
650 1267 m 1,4,-1
 650 289 l 1,5,-1
 483 289 l 1,6,-1
 483 1267 l 1,7,-1
 650 1267 l 1,4,-1
971 152 m 1,8,-1
 971 1 l 1,9,-1
 136 1 l 1,10,-1
 136 152 l 1,11,-1
 971 152 l 1,8,-1
EndSplineSet
EndChar

StartChar: uni00B2
Encoding: 178 178 115
Width: 751
GlyphClass: 1
Flags: W
LayerCount: 2
Fore
SplineSet
683 795 m 1,0,-1
 683 667 l 1,1,-1
 85 667 l 1,2,-1
 85 775 l 1,3,-1
 373 1046 l 2,4,5
 418 1088 418 1088 444 1121 c 128,-1,6
 470 1154 470 1154 481.5 1180.5 c 128,-1,7
 493 1207 493 1207 493 1229 c 0,8,9
 493 1277 493 1277 461 1308 c 128,-1,10
 429 1339 429 1339 370 1339 c 0,11,12
 295 1339 295 1339 259.5 1301 c 128,-1,13
 224 1263 224 1263 224 1206 c 1,14,-1
 66 1206 l 1,15,16
 66 1278 66 1278 102 1337 c 128,-1,17
 138 1396 138 1396 205 1431.5 c 128,-1,18
 272 1467 272 1467 366 1467 c 0,19,20
 456 1467 456 1467 520 1438 c 128,-1,21
 584 1409 584 1409 618 1356.5 c 128,-1,22
 652 1304 652 1304 652 1231 c 0,23,24
 652 1178 652 1178 628.5 1132 c 128,-1,25
 605 1086 605 1086 562 1040 c 128,-1,26
 519 994 519 994 460 941 c 2,27,-1
 285 795 l 1,28,-1
 683 795 l 1,0,-1
EndSplineSet
EndChar

StartChar: uni00B3
Encoding: 179 179 116
Width: 751
GlyphClass: 1
Flags: W
LayerCount: 2
Fore
SplineSet
266 1126 m 1,0,-1
 350 1126 l 2,1,2
 399 1126 399 1126 431 1140 c 128,-1,3
 463 1154 463 1154 479.5 1178.5 c 128,-1,4
 496 1203 496 1203 496 1235 c 0,5,6
 496 1279 496 1279 464 1309 c 128,-1,7
 432 1339 432 1339 363 1339 c 0,8,9
 306 1339 306 1339 268.5 1314 c 128,-1,10
 231 1289 231 1289 231 1246 c 1,11,-1
 74 1246 l 1,12,13
 74 1314 74 1314 112 1363.5 c 128,-1,14
 150 1413 150 1413 215 1440 c 128,-1,15
 280 1467 280 1467 360 1467 c 0,16,17
 447 1467 447 1467 513 1441.5 c 128,-1,18
 579 1416 579 1416 616 1366 c 128,-1,19
 653 1316 653 1316 653 1243 c 0,20,21
 653 1190 653 1190 620.5 1145.5 c 128,-1,22
 588 1101 588 1101 526.5 1074.5 c 128,-1,23
 465 1048 465 1048 377 1048 c 2,24,-1
 266 1048 l 1,25,-1
 266 1126 l 1,0,-1
266 1011 m 1,26,-1
 266 1089 l 1,27,-1
 377 1089 l 2,28,29
 477 1089 477 1089 541 1065 c 128,-1,30
 605 1041 605 1041 636 996 c 128,-1,31
 667 951 667 951 667 887 c 0,32,33
 667 814 667 814 627 762 c 128,-1,34
 587 710 587 710 517.5 683 c 128,-1,35
 448 656 448 656 361 656 c 0,36,37
 286 656 286 656 217.5 680.5 c 128,-1,38
 149 705 149 705 106 757 c 128,-1,39
 63 809 63 809 63 890 c 1,40,-1
 220 890 l 1,41,42
 220 845 220 845 260 814.5 c 128,-1,43
 300 784 300 784 366 784 c 0,44,45
 436 784 436 784 472.5 815 c 128,-1,46
 509 846 509 846 509 895 c 0,47,48
 509 937 509 937 489.5 962.5 c 128,-1,49
 470 988 470 988 434.5 999.5 c 128,-1,50
 399 1011 399 1011 350 1011 c 2,51,-1
 266 1011 l 1,26,-1
EndSplineSet
EndChar

StartChar: acute
Encoding: 180 180 117
Width: 642
GlyphClass: 2
Flags: W
LayerCount: 2
Fore
SplineSet
123 1242 m 1,0,-1
 317 1536 l 1,1,-1
 540 1536 l 1,2,-1
 272 1242 l 1,3,-1
 123 1242 l 1,0,-1
EndSplineSet
EndChar

StartChar: mu
Encoding: 181 181 118
Width: 1161
GlyphClass: 1
Flags: W
LayerCount: 2
Fore
SplineSet
821 1082 m 1,0,-1
 1006 1082 l 1,1,-1
 1006 0 l 1,2,-1
 839 0 l 1,3,-1
 821 250 l 1,4,-1
 821 1082 l 1,0,-1
854 503 m 1,5,-1
 923 505 l 1,6,7
 923 391 923 391 902.5 295 c 128,-1,8
 882 199 882 199 839 128 c 128,-1,9
 796 57 796 57 729 18 c 128,-1,10
 662 -21 662 -21 568 -21 c 0,11,12
 492 -21 492 -21 432.5 -1.5 c 128,-1,13
 373 18 373 18 330.5 60.5 c 128,-1,14
 288 103 288 103 260 171 c 1,15,-1
 223 460 l 1,16,-1
 339 460 l 1,17,18
 339 357 339 357 356 292 c 128,-1,19
 373 227 373 227 403.5 192 c 128,-1,20
 434 157 434 157 474 144 c 128,-1,21
 514 131 514 131 560 131 c 0,22,23
 649 131 649 131 706.5 158.5 c 128,-1,24
 764 186 764 186 796 236 c 128,-1,25
 828 286 828 286 841 354 c 128,-1,26
 854 422 854 422 854 503 c 1,5,-1
155 1082 m 1,27,-1
 339 1082 l 1,28,-1
 339 -416 l 1,29,-1
 155 -416 l 1,30,-1
 155 1082 l 1,27,-1
EndSplineSet
EndChar

StartChar: paragraph
Encoding: 182 182 119
Width: 1002
GlyphClass: 1
Flags: W
LayerCount: 2
Fore
SplineSet
833 0 m 1,0,-1
 647 0 l 1,1,-1
 647 520 l 1,2,-1
 560 520 l 2,3,4
 401 520 401 520 291 580.5 c 128,-1,5
 181 641 181 641 124.5 747 c 128,-1,6
 68 853 68 853 68 988 c 0,7,8
 68 1122 68 1122 124.5 1228 c 128,-1,9
 181 1334 181 1334 291 1395 c 128,-1,10
 401 1456 401 1456 560 1456 c 2,11,-1
 833 1456 l 1,12,-1
 833 0 l 1,0,-1
EndSplineSet
EndChar

StartChar: periodcentered
Encoding: 183 183 120
Width: 535
GlyphClass: 1
Flags: W
LayerCount: 2
Fore
SplineSet
148 729 m 0,0,1
 148 776 148 776 177 808.5 c 128,-1,2
 206 841 206 841 262 841 c 256,3,4
 318 841 318 841 347.5 808.5 c 128,-1,5
 377 776 377 776 377 729 c 0,6,7
 377 683 377 683 347.5 651.5 c 128,-1,8
 318 620 318 620 262 620 c 256,9,10
 206 620 206 620 177 651.5 c 128,-1,11
 148 683 148 683 148 729 c 0,0,1
EndSplineSet
EndChar

StartChar: cedilla
Encoding: 184 184 121
Width: 508
GlyphClass: 1
Flags: W
LayerCount: 2
Fore
SplineSet
152 0 m 1,0,-1
 285 0 l 1,1,-1
 273 -53 l 1,2,3
 331 -63 331 -63 378.5 -101 c 128,-1,4
 426 -139 426 -139 426 -226 c 0,5,6
 426 -273 426 -273 406.5 -311.5 c 128,-1,7
 387 -350 387 -350 349 -377.5 c 128,-1,8
 311 -405 311 -405 254.5 -420 c 128,-1,9
 198 -435 198 -435 123 -435 c 1,10,-1
 116 -328 l 1,11,12
 162 -328 162 -328 199.5 -318 c 128,-1,13
 237 -308 237 -308 259.5 -286 c 128,-1,14
 282 -264 282 -264 282 -229 c 0,15,16
 282 -196 282 -196 265 -177 c 128,-1,17
 248 -158 248 -158 212.5 -148.5 c 128,-1,18
 177 -139 177 -139 121 -135 c 1,19,-1
 152 0 l 1,0,-1
EndSplineSet
EndChar

StartChar: uni00B9
Encoding: 185 185 122
Width: 751
GlyphClass: 1
Flags: W
LayerCount: 2
Fore
SplineSet
495 1456 m 1,0,-1
 495 667 l 1,1,-1
 339 667 l 1,2,-1
 339 1268 l 1,3,-1
 123 1211 l 1,4,-1
 123 1340 l 1,5,-1
 477 1456 l 1,6,-1
 495 1456 l 1,0,-1
EndSplineSet
EndChar

StartChar: ordmasculine
Encoding: 186 186 123
Width: 932
GlyphClass: 1
Flags: W
LayerCount: 2
Fore
SplineSet
123 1043 m 2,0,-1
 123 1124 l 2,1,2
 123 1227 123 1227 165 1306.5 c 128,-1,3
 207 1386 207 1386 283.5 1431.5 c 128,-1,4
 360 1477 360 1477 465 1477 c 0,5,6
 571 1477 571 1477 647.5 1431.5 c 128,-1,7
 724 1386 724 1386 765.5 1306.5 c 128,-1,8
 807 1227 807 1227 807 1124 c 2,9,-1
 807 1043 l 2,10,11
 807 940 807 940 765.5 860.5 c 128,-1,12
 724 781 724 781 648 736 c 128,-1,13
 572 691 572 691 467 691 c 0,14,15
 361 691 361 691 284 736 c 128,-1,16
 207 781 207 781 165 860.5 c 128,-1,17
 123 940 123 940 123 1043 c 2,0,-1
286 1124 m 2,18,-1
 286 1043 l 2,19,20
 286 982 286 982 305.5 934 c 128,-1,21
 325 886 325 886 365.5 858 c 128,-1,22
 406 830 406 830 467 830 c 0,23,24
 527 830 527 830 566.5 858 c 128,-1,25
 606 886 606 886 625.5 934 c 128,-1,26
 645 982 645 982 645 1043 c 2,27,-1
 645 1124 l 2,28,29
 645 1184 645 1184 625 1232 c 128,-1,30
 605 1280 605 1280 565.5 1308 c 128,-1,31
 526 1336 526 1336 465 1336 c 0,32,33
 405 1336 405 1336 365 1308 c 128,-1,34
 325 1280 325 1280 305.5 1232 c 128,-1,35
 286 1184 286 1184 286 1124 c 2,18,-1
EndSplineSet
EndChar

StartChar: questiondown
Encoding: 191 191 128
Width: 970
GlyphClass: 1
Flags: W
LayerCount: 2
Fore
SplineSet
403 680 m 1,0,-1
 589 680 l 1,1,2
 588 584 588 584 571.5 524.5 c 128,-1,3
 555 465 555 465 518.5 415 c 128,-1,4
 482 365 482 365 420 298 c 0,5,6
 378 253 378 253 340 211 c 128,-1,7
 302 169 302 169 278 119 c 128,-1,8
 254 69 254 69 254 0 c 0,9,10
 254 -73 254 -73 280 -123 c 128,-1,11
 306 -173 306 -173 356 -198.5 c 128,-1,12
 406 -224 406 -224 478 -224 c 0,13,14
 537 -224 537 -224 588 -202 c 128,-1,15
 639 -180 639 -180 671.5 -134.5 c 128,-1,16
 704 -89 704 -89 704 -20 c 1,17,-1
 889 -20 l 1,18,19
 888 -133 888 -133 833.5 -215.5 c 128,-1,20
 779 -298 779 -298 686.5 -342 c 128,-1,21
 594 -386 594 -386 478 -386 c 0,22,23
 348 -386 348 -386 256.5 -341 c 128,-1,24
 165 -296 165 -296 116.5 -211 c 128,-1,25
 68 -126 68 -126 68 -6 c 0,26,27
 68 85 68 85 104.5 162.5 c 128,-1,28
 141 240 141 240 197 306.5 c 128,-1,29
 253 373 253 373 313 431 c 0,30,31
 349 466 349 466 368.5 504.5 c 128,-1,32
 388 543 388 543 395.5 587 c 128,-1,33
 403 631 403 631 403 680 c 1,0,-1
597 997 m 256,34,35
 597 953 597 953 569 922 c 128,-1,36
 541 891 541 891 488 891 c 0,37,38
 434 891 434 891 406 922 c 128,-1,39
 378 953 378 953 378 997 c 256,40,41
 378 1041 378 1041 406 1071.5 c 128,-1,42
 434 1102 434 1102 488 1102 c 0,43,44
 541 1102 541 1102 569 1071.5 c 128,-1,45
 597 1041 597 1041 597 997 c 256,34,35
EndSplineSet
EndChar

StartChar: AE
Encoding: 198 198 129
Width: 1914
GlyphClass: 2
Flags: W
LayerCount: 2
Fore
SplineSet
970 1307 m 1,0,-1
 212 0 l 1,1,-1
 -15 0 l 1,2,-1
 866 1456 l 1,3,-1
 985 1456 l 1,4,-1
 970 1307 l 1,0,-1
1115 528 m 1,5,-1
 1115 353 l 1,6,-1
 372 353 l 1,7,-1
 372 528 l 1,8,-1
 1115 528 l 1,5,-1
1880 152 m 1,9,-1
 1880 0 l 1,10,-1
 1147 0 l 1,11,-1
 1147 152 l 1,12,-1
 1880 152 l 1,9,-1
1121 1456 m 1,13,-1
 1182 0 l 1,14,-1
 996 0 l 1,15,-1
 935 1456 l 1,16,-1
 1121 1456 l 1,13,-1
1737 834 m 1,17,-1
 1737 682 l 1,18,-1
 1107 682 l 1,19,-1
 1107 834 l 1,20,-1
 1737 834 l 1,17,-1
1818 1456 m 1,21,-1
 1818 1304 l 1,22,-1
 1086 1304 l 1,23,-1
 1086 1456 l 1,24,-1
 1818 1456 l 1,21,-1
EndSplineSet
Substitution2: "'c2sc' Capitals to Small Capitals lookup 0 subtable" AE.c2sc
Position2: "'cpsp' Capital Spacing lookup 0 subtable" dx=36 dy=0 dh=72 dv=0
EndChar

StartChar: multiply
Encoding: 215 215 130
Width: 1093
GlyphClass: 1
Flags: W
LayerCount: 2
Fore
SplineSet
208 206 m 1,0,-1
 89 329 l 1,1,-1
 868 1124 l 1,2,-1
 987 1000 l 1,3,-1
 208 206 l 1,0,-1
871 206 m 1,4,-1
 92 1000 l 1,5,-1
 211 1124 l 1,6,-1
 990 329 l 1,7,-1
 871 206 l 1,4,-1
EndSplineSet
EndChar

StartChar: Oslash
Encoding: 216 216 131
Width: 1409
GlyphClass: 2
Flags: W
LayerCount: 2
Fore
SplineSet
1309 1516 m 1,0,-1
 307 -93 l 1,1,-1
 164 -93 l 1,2,-1
 1169 1516 l 1,3,-1
 1309 1516 l 1,0,-1
1290 774 m 2,4,-1
 1290 682 l 2,5,6
 1290 518 1290 518 1249 388 c 128,-1,7
 1208 258 1208 258 1131 167 c 128,-1,8
 1054 76 1054 76 946.5 28 c 128,-1,9
 839 -20 839 -20 706 -20 c 0,10,11
 603 -20 603 -20 513 11 c 128,-1,12
 423 42 423 42 350.5 101.5 c 128,-1,13
 278 161 278 161 226 246.5 c 128,-1,14
 174 332 174 332 146.5 441.5 c 128,-1,15
 119 551 119 551 119 682 c 2,16,-1
 119 774 l 2,17,18
 119 938 119 938 161.5 1067.5 c 128,-1,19
 204 1197 204 1197 282 1288.5 c 128,-1,20
 360 1380 360 1380 467.5 1428 c 128,-1,21
 575 1476 575 1476 704 1476 c 0,22,23
 810 1476 810 1476 900.5 1445 c 128,-1,24
 991 1414 991 1414 1063 1354.5 c 128,-1,25
 1135 1295 1135 1295 1185.5 1209.5 c 128,-1,26
 1236 1124 1236 1124 1263 1014.5 c 128,-1,27
 1290 905 1290 905 1290 774 c 2,4,-1
1099 682 m 2,28,-1
 1099 776 l 2,29,30
 1099 880 1099 880 1082 964.5 c 128,-1,31
 1065 1049 1065 1049 1032 1114 c 128,-1,32
 999 1179 999 1179 951 1223 c 128,-1,33
 903 1267 903 1267 841 1289.5 c 128,-1,34
 779 1312 779 1312 704 1312 c 0,35,36
 614 1312 614 1312 541.5 1277 c 128,-1,37
 469 1242 469 1242 417.5 1174 c 128,-1,38
 366 1106 366 1106 338 1006 c 128,-1,39
 310 906 310 906 310 776 c 2,40,-1
 310 682 l 2,41,42
 310 577 310 577 328 492 c 128,-1,43
 346 407 346 407 380.5 341.5 c 128,-1,44
 415 276 415 276 463.5 232 c 128,-1,45
 512 188 512 188 573 165.5 c 128,-1,46
 634 143 634 143 706 143 c 0,47,48
 800 143 800 143 873 178 c 128,-1,49
 946 213 946 213 996.5 281.5 c 128,-1,50
 1047 350 1047 350 1073 450.5 c 128,-1,51
 1099 551 1099 551 1099 682 c 2,28,-1
EndSplineSet
Substitution2: "'c2sc' Capitals to Small Capitals lookup 0 subtable" Oslash.c2sc
Position2: "'cpsp' Capital Spacing lookup 0 subtable" dx=36 dy=0 dh=72 dv=0
EndChar

StartChar: Thorn
Encoding: 222 222 132
Width: 1210
GlyphClass: 1
Flags: W
LayerCount: 2
Fore
SplineSet
167 1456 m 1,0,-1
 352 1456 l 1,1,-1
 352 0 l 1,2,-1
 167 0 l 1,3,-1
 167 1456 l 1,0,-1
260 1163 m 1,4,-1
 630 1163 l 2,5,6
 788 1163 788 1163 896.5 1108 c 128,-1,7
 1005 1053 1005 1053 1061 957 c 128,-1,8
 1117 861 1117 861 1117 738 c 0,9,10
 1117 616 1117 616 1061 520 c 128,-1,11
 1005 424 1005 424 896.5 369 c 128,-1,12
 788 314 788 314 630 314 c 2,13,-1
 311 314 l 1,14,-1
 311 465 l 1,15,-1
 630 465 l 2,16,17
 738 465 738 465 804.5 504.5 c 128,-1,18
 871 544 871 544 901.5 606 c 128,-1,19
 932 668 932 668 932 736 c 0,20,21
 932 806 932 806 901.5 869 c 128,-1,22
 871 932 871 932 804.5 972 c 128,-1,23
 738 1012 738 1012 630 1012 c 2,24,-1
 350 1012 l 1,25,-1
 260 1163 l 1,4,-1
EndSplineSet
Substitution2: "'c2sc' Capitals to Small Capitals lookup 0 subtable" Thorn.c2sc
Position2: "'cpsp' Capital Spacing lookup 0 subtable" dx=36 dy=0 dh=72 dv=0
EndChar

StartChar: germandbls
Encoding: 223 223 133
Width: 1218
GlyphClass: 1
Flags: W
LayerCount: 2
Fore
SplineSet
324 1112 m 2,0,-1
 324 0 l 1,1,-1
 140 0 l 1,2,-1
 140 1112 l 2,3,4
 140 1222 140 1222 168.5 1304.5 c 128,-1,5
 197 1387 197 1387 249 1442.5 c 128,-1,6
 301 1498 301 1498 373 1526 c 128,-1,7
 445 1554 445 1554 533 1554 c 0,8,9
 642 1554 642 1554 726.5 1518 c 128,-1,10
 811 1482 811 1482 860 1407.5 c 128,-1,11
 909 1333 909 1333 909 1217 c 0,12,13
 909 1137 909 1137 889.5 1083.5 c 128,-1,14
 870 1030 870 1030 845 989.5 c 128,-1,15
 820 949 820 949 800.5 910 c 128,-1,16
 781 871 781 871 781 820 c 0,17,18
 781 765 781 765 816 721.5 c 128,-1,19
 851 678 851 678 903 638 c 128,-1,20
 955 598 955 598 1007.5 553 c 128,-1,21
 1060 508 1060 508 1095 451 c 128,-1,22
 1130 394 1130 394 1130 317 c 0,23,24
 1130 203 1130 203 1080.5 128 c 128,-1,25
 1031 53 1031 53 944 16.5 c 128,-1,26
 857 -20 857 -20 745 -20 c 0,27,28
 691 -20 691 -20 631 -9.5 c 128,-1,29
 571 1 571 1 521.5 17.5 c 128,-1,30
 472 34 472 34 446 52 c 1,31,-1
 488 207 l 1,32,33
 523 185 523 185 589.5 158 c 128,-1,34
 656 131 656 131 726 131 c 0,35,36
 804 131 804 131 852.5 155 c 128,-1,37
 901 179 901 179 923 219 c 128,-1,38
 945 259 945 259 945 308 c 0,39,40
 945 365 945 365 910 408.5 c 128,-1,41
 875 452 875 452 823 492.5 c 128,-1,42
 771 533 771 533 718.5 578 c 128,-1,43
 666 623 666 623 631 682 c 128,-1,44
 596 741 596 741 596 822 c 0,45,46
 596 882 596 882 617 928 c 128,-1,47
 638 974 638 974 665 1014.5 c 128,-1,48
 692 1055 692 1055 713 1099.5 c 128,-1,49
 734 1144 734 1144 734 1201 c 0,50,51
 734 1268 734 1268 709 1312.5 c 128,-1,52
 684 1357 684 1357 641 1380 c 128,-1,53
 598 1403 598 1403 543 1403 c 0,54,55
 474 1403 474 1403 425 1372 c 128,-1,56
 376 1341 376 1341 350 1276.5 c 128,-1,57
 324 1212 324 1212 324 1112 c 2,0,-1
EndSplineSet
Substitution2: "'smcp' Lowercase to Small Capitals lookup 1 subtable" germandbls.sc
EndChar

StartChar: ae
Encoding: 230 230 134
Width: 1730
GlyphClass: 2
Flags: W
LayerCount: 2
Fore
SplineSet
749 183 m 1,0,-1
 749 720 l 2,1,2
 749 792 749 792 724.5 843.5 c 128,-1,3
 700 895 700 895 652 922.5 c 128,-1,4
 604 950 604 950 535 950 c 0,5,6
 461 950 461 950 406 924 c 128,-1,7
 351 898 351 898 321 855 c 128,-1,8
 291 812 291 812 291 760 c 1,9,-1
 107 778 l 1,10,11
 107 848 107 848 138 907 c 128,-1,12
 169 966 169 966 225.5 1010 c 128,-1,13
 282 1054 282 1054 360.5 1078 c 128,-1,14
 439 1102 439 1102 535 1102 c 0,15,16
 653 1102 653 1102 741.5 1059 c 128,-1,17
 830 1016 830 1016 879.5 931 c 128,-1,18
 929 846 929 846 929 718 c 2,19,-1
 929 218 l 1,20,-1
 749 183 l 1,0,-1
790 636 m 1,21,-1
 790 496 l 1,22,-1
 529 496 l 2,23,24
 442 496 442 496 383 468.5 c 128,-1,25
 324 441 324 441 294 396.5 c 128,-1,26
 264 352 264 352 264 300 c 0,27,28
 264 252 264 252 286.5 213.5 c 128,-1,29
 309 175 309 175 354.5 152.5 c 128,-1,30
 400 130 400 130 470 130 c 0,31,32
 524 130 524 130 580.5 150.5 c 128,-1,33
 637 171 637 171 684.5 203.5 c 128,-1,34
 732 236 732 236 761.5 272 c 128,-1,35
 791 308 791 308 792 339 c 1,36,-1
 888 195 l 1,37,38
 861 146 861 146 802.5 96 c 128,-1,39
 744 46 744 46 652.5 12.5 c 128,-1,40
 561 -21 561 -21 434 -21 c 0,41,42
 320 -21 320 -21 240.5 19 c 128,-1,43
 161 59 161 59 120 132.5 c 128,-1,44
 79 206 79 206 79 304 c 0,45,46
 79 383 79 383 107.5 444.5 c 128,-1,47
 136 506 136 506 192.5 548.5 c 128,-1,48
 249 591 249 591 333 613.5 c 128,-1,49
 417 636 417 636 527 636 c 2,50,-1
 790 636 l 1,21,-1
1263 -21 m 0,51,52
 1140 -21 1140 -21 1046 19 c 128,-1,53
 952 59 952 59 888 131.5 c 128,-1,54
 824 204 824 204 791 303 c 128,-1,55
 758 402 758 402 758 520 c 2,56,-1
 758 564 l 2,57,58
 758 683 758 683 792.5 781.5 c 128,-1,59
 827 880 827 880 889.5 952 c 128,-1,60
 952 1024 952 1024 1036 1063.5 c 128,-1,61
 1120 1103 1120 1103 1219 1102 c 0,62,63
 1327 1102 1327 1102 1409.5 1068.5 c 128,-1,64
 1492 1035 1492 1035 1548 971.5 c 128,-1,65
 1604 908 1604 908 1632.5 818 c 128,-1,66
 1661 728 1661 728 1661 616 c 2,67,-1
 1661 498 l 1,68,-1
 857 498 l 1,69,-1
 857 640 l 1,70,-1
 1475 640 l 1,71,-1
 1475 671 l 2,72,73
 1475 747 1475 747 1450 810 c 128,-1,74
 1425 873 1425 873 1369 911.5 c 128,-1,75
 1313 950 1313 950 1219 950 c 0,76,77
 1150 950 1150 950 1097 920 c 128,-1,78
 1044 890 1044 890 1007.5 837 c 128,-1,79
 971 784 971 784 952 714 c 128,-1,80
 933 644 933 644 933 564 c 2,81,-1
 933 520 l 2,82,83
 933 439 933 439 952 368.5 c 128,-1,84
 971 298 971 298 1011 244.5 c 128,-1,85
 1051 191 1051 191 1113.5 161 c 128,-1,86
 1176 131 1176 131 1263 131 c 0,87,88
 1382 131 1382 131 1455 167.5 c 128,-1,89
 1528 204 1528 204 1578 238 c 1,90,-1
 1643 102 l 1,91,92
 1621 85 1621 85 1572.5 55.5 c 128,-1,93
 1524 26 1524 26 1447 2.5 c 128,-1,94
 1370 -21 1370 -21 1263 -21 c 0,51,52
EndSplineSet
Substitution2: "'smcp' Lowercase to Small Capitals lookup 1 subtable" AE.c2sc
EndChar

StartChar: eth
Encoding: 240 240 135
Width: 1201
GlyphClass: 1
Flags: W
LayerCount: 2
Fore
SplineSet
255 1421 m 1,0,-1
 312 1581 l 1,1,2
 481 1543 481 1543 620 1461 c 128,-1,3
 759 1379 759 1379 860 1257.5 c 128,-1,4
 961 1136 961 1136 1015.5 979 c 128,-1,5
 1070 822 1070 822 1070 633 c 2,6,-1
 1070 535 l 2,7,8
 1070 412 1070 412 1035.5 310 c 128,-1,9
 1001 208 1001 208 938 134 c 128,-1,10
 875 60 875 60 789.5 20 c 128,-1,11
 704 -20 704 -20 602 -20 c 0,12,13
 497 -20 497 -20 409.5 17.5 c 128,-1,14
 322 55 322 55 258.5 122 c 128,-1,15
 195 189 195 189 160.5 277.5 c 128,-1,16
 126 366 126 366 126 468 c 0,17,18
 126 584 126 584 159.5 677.5 c 128,-1,19
 193 771 193 771 253.5 838.5 c 128,-1,20
 314 906 314 906 395.5 942 c 128,-1,21
 477 978 477 978 574 978 c 0,22,23
 687 978 687 978 777.5 924.5 c 128,-1,24
 868 871 868 871 921 787.5 c 128,-1,25
 974 704 974 704 974 613 c 1,26,-1
 905 614 l 1,27,28
 905 647 905 647 887 684 c 128,-1,29
 869 721 869 721 833.5 753.5 c 128,-1,30
 798 786 798 786 744 806 c 128,-1,31
 690 826 690 826 618 826 c 0,32,33
 545 826 545 826 488 801 c 128,-1,34
 431 776 431 776 392 729.5 c 128,-1,35
 353 683 353 683 332.5 617 c 128,-1,36
 312 551 312 551 312 468 c 0,37,38
 312 406 312 406 331.5 346.5 c 128,-1,39
 351 287 351 287 388.5 238.5 c 128,-1,40
 426 190 426 190 480.5 161 c 128,-1,41
 535 132 535 132 606 132 c 0,42,43
 671 132 671 132 722 162.5 c 128,-1,44
 773 193 773 193 809.5 247.5 c 128,-1,45
 846 302 846 302 865 375.5 c 128,-1,46
 884 449 884 449 884 535 c 2,47,-1
 884 635 l 2,48,49
 884 811 884 811 834.5 943 c 128,-1,50
 785 1075 785 1075 697.5 1170 c 128,-1,51
 610 1265 610 1265 496.5 1326.5 c 128,-1,52
 383 1388 383 1388 255 1421 c 1,0,-1
988 1417 m 1,53,-1
 451 1051 l 1,54,-1
 378 1151 l 1,55,-1
 915 1516 l 1,56,-1
 988 1417 l 1,53,-1
EndSplineSet
Substitution2: "'smcp' Lowercase to Small Capitals lookup 1 subtable" Eth.c2sc
EndChar

StartChar: divide
Encoding: 247 247 136
Width: 1170
GlyphClass: 1
Flags: W
LayerCount: 2
Fore
SplineSet
1069 784 m 1,0,-1
 1069 600 l 1,1,-1
 71 600 l 1,2,-1
 71 784 l 1,3,-1
 1069 784 l 1,0,-1
462 1098 m 0,4,5
 462 1146 462 1146 491 1178 c 128,-1,6
 520 1210 520 1210 576 1210 c 256,7,8
 632 1210 632 1210 661.5 1178 c 128,-1,9
 691 1146 691 1146 691 1098 c 0,10,11
 691 1052 691 1052 661.5 1020.5 c 128,-1,12
 632 989 632 989 576 989 c 256,13,14
 520 989 520 989 491 1020.5 c 128,-1,15
 462 1052 462 1052 462 1098 c 0,4,5
462 282 m 0,16,17
 462 329 462 329 491 361.5 c 128,-1,18
 520 394 520 394 576 394 c 256,19,20
 632 394 632 394 661.5 361.5 c 128,-1,21
 691 329 691 329 691 282 c 0,22,23
 691 236 691 236 661.5 204 c 128,-1,24
 632 172 632 172 576 172 c 256,25,26
 520 172 520 172 491 204 c 128,-1,27
 462 236 462 236 462 282 c 0,16,17
EndSplineSet
EndChar

StartChar: oslash
Encoding: 248 248 137
Width: 1161
GlyphClass: 2
Flags: W
LayerCount: 2
Fore
SplineSet
983 1209 m 1,0,-1
 320 -135 l 1,1,-1
 197 -135 l 1,2,-1
 860 1209 l 1,3,-1
 983 1209 l 1,0,-1
92 529 m 2,4,-1
 92 552 l 2,5,6
 92 669 92 669 126 769.5 c 128,-1,7
 160 870 160 870 224 944.5 c 128,-1,8
 288 1019 288 1019 379 1060.5 c 128,-1,9
 470 1102 470 1102 583 1102 c 0,10,11
 697 1102 697 1102 788.5 1060.5 c 128,-1,12
 880 1019 880 1019 944 944.5 c 128,-1,13
 1008 870 1008 870 1042 769.5 c 128,-1,14
 1076 669 1076 669 1076 552 c 2,15,-1
 1076 529 l 2,16,17
 1076 412 1076 412 1042 312 c 128,-1,18
 1008 212 1008 212 944 137.5 c 128,-1,19
 880 63 880 63 789.5 21.5 c 128,-1,20
 699 -20 699 -20 585 -20 c 256,21,22
 471 -20 471 -20 380 21.5 c 128,-1,23
 289 63 289 63 224.5 137.5 c 128,-1,24
 160 212 160 212 126 312 c 128,-1,25
 92 412 92 412 92 529 c 2,4,-1
277 552 m 2,26,-1
 277 529 l 2,27,28
 277 448 277 448 296 376.5 c 128,-1,29
 315 305 315 305 353.5 250 c 128,-1,30
 392 195 392 195 450 163.5 c 128,-1,31
 508 132 508 132 585 132 c 0,32,33
 661 132 661 132 718.5 163.5 c 128,-1,34
 776 195 776 195 814 250 c 128,-1,35
 852 305 852 305 871.5 376.5 c 128,-1,36
 891 448 891 448 891 529 c 2,37,-1
 891 552 l 2,38,39
 891 632 891 632 871.5 703.5 c 128,-1,40
 852 775 852 775 813.5 830.5 c 128,-1,41
 775 886 775 886 717.5 918 c 128,-1,42
 660 950 660 950 583 950 c 0,43,44
 507 950 507 950 449.5 918 c 128,-1,45
 392 886 392 886 353.5 830.5 c 128,-1,46
 315 775 315 775 296 703.5 c 128,-1,47
 277 632 277 632 277 552 c 2,26,-1
EndSplineSet
Substitution2: "'smcp' Lowercase to Small Capitals lookup 1 subtable" Oslash.c2sc
EndChar

StartChar: thorn
Encoding: 254 254 138
Width: 1180
GlyphClass: 1
Flags: W
LayerCount: 2
Fore
SplineSet
335 1536 m 1,0,-1
 335 -416 l 1,1,-1
 149 -416 l 1,2,-1
 149 1536 l 1,3,-1
 335 1536 l 1,0,-1
1064 550 m 2,4,-1
 1064 529 l 2,5,6
 1064 411 1064 411 1036 310.5 c 128,-1,7
 1008 210 1008 210 954.5 136 c 128,-1,8
 901 62 901 62 823 21 c 128,-1,9
 745 -20 745 -20 644 -20 c 0,10,11
 541 -20 541 -20 462 14 c 128,-1,12
 383 48 383 48 328 113 c 128,-1,13
 273 178 273 178 240.5 269 c 128,-1,14
 208 360 208 360 196 474 c 1,15,-1
 196 586 l 1,16,17
 208 706 208 706 241 801 c 128,-1,18
 274 896 274 896 328.5 963.5 c 128,-1,19
 383 1031 383 1031 461 1066.5 c 128,-1,20
 539 1102 539 1102 641 1102 c 256,21,22
 743 1102 743 1102 822 1062.5 c 128,-1,23
 901 1023 901 1023 955 950 c 128,-1,24
 1009 877 1009 877 1036.5 775.5 c 128,-1,25
 1064 674 1064 674 1064 550 c 2,4,-1
878 529 m 2,26,-1
 878 550 l 2,27,28
 878 631 878 631 861 702.5 c 128,-1,29
 844 774 844 774 808.5 828.5 c 128,-1,30
 773 883 773 883 718 914.5 c 128,-1,31
 663 946 663 946 587 946 c 0,32,33
 517 946 517 946 465.5 922 c 128,-1,34
 414 898 414 898 378 857.5 c 128,-1,35
 342 817 342 817 319.5 765.5 c 128,-1,36
 297 714 297 714 286 659 c 1,37,-1
 286 400 l 1,38,39
 301 347 301 347 324.5 299 c 128,-1,40
 348 251 348 251 383.5 213.5 c 128,-1,41
 419 176 419 176 469.5 154 c 128,-1,42
 520 132 520 132 589 132 c 0,43,44
 664 132 664 132 718.5 163.5 c 128,-1,45
 773 195 773 195 808.5 250 c 128,-1,46
 844 305 844 305 861 376.5 c 128,-1,47
 878 448 878 448 878 529 c 2,26,-1
EndSplineSet
Substitution2: "'smcp' Lowercase to Small Capitals lookup 1 subtable" Thorn.c2sc
EndChar

StartChar: dcroat
Encoding: 273 273 139
Width: 1224
GlyphClass: 2
Flags: W
LayerCount: 2
Fore
SplineSet
823 210 m 1,0,-1
 823 1536 l 1,1,-1
 1009 1536 l 1,2,-1
 1009 0 l 1,3,-1
 839 0 l 1,4,-1
 823 210 l 1,0,-1
95 529 m 2,5,-1
 95 550 l 2,6,7
 95 674 95 674 125.5 775.5 c 128,-1,8
 156 877 156 877 212.5 950 c 128,-1,9
 269 1023 269 1023 347.5 1062.5 c 128,-1,10
 426 1102 426 1102 523 1102 c 0,11,12
 625 1102 625 1102 701.5 1066.5 c 128,-1,13
 778 1031 778 1031 831.5 963.5 c 128,-1,14
 885 896 885 896 916 801 c 128,-1,15
 947 706 947 706 959 586 c 1,16,-1
 959 494 l 1,17,18
 948 375 948 375 916.5 280 c 128,-1,19
 885 185 885 185 831.5 118 c 128,-1,20
 778 51 778 51 701 15.5 c 128,-1,21
 624 -20 624 -20 521 -20 c 0,22,23
 426 -20 426 -20 347.5 21 c 128,-1,24
 269 62 269 62 212.5 136 c 128,-1,25
 156 210 156 210 125.5 310.5 c 128,-1,26
 95 411 95 411 95 529 c 2,5,-1
281 550 m 2,27,-1
 281 529 l 2,28,29
 281 448 281 448 297.5 377 c 128,-1,30
 314 306 314 306 349 252 c 128,-1,31
 384 198 384 198 438 167.5 c 128,-1,32
 492 137 492 137 567 137 c 0,33,34
 659 137 659 137 718.5 176 c 128,-1,35
 778 215 778 215 814 279 c 128,-1,36
 850 343 850 343 870 418 c 1,37,-1
 870 659 l 1,38,39
 858 714 858 714 835.5 765.5 c 128,-1,40
 813 817 813 817 777.5 857.5 c 128,-1,41
 742 898 742 898 690.5 922 c 128,-1,42
 639 946 639 946 569 946 c 0,43,44
 493 946 493 946 438.5 914.5 c 128,-1,45
 384 883 384 883 349 828.5 c 128,-1,46
 314 774 314 774 297.5 702.5 c 128,-1,47
 281 631 281 631 281 550 c 2,27,-1
1197 1385 m 1,48,-1
 1197 1233 l 1,49,-1
 560 1233 l 1,50,-1
 560 1385 l 1,51,-1
 1197 1385 l 1,48,-1
EndSplineSet
Substitution2: "'smcp' Lowercase to Small Capitals lookup 1 subtable" Dcroat.c2sc
EndChar

StartChar: Hbar
Encoding: 294 294 140
Width: 1435
GlyphClass: 2
Flags: W
LayerCount: 2
Fore
SplineSet
1417 1167 m 1,0,-1
 1417 1024 l 1,1,-1
 30 1024 l 1,2,-1
 30 1167 l 1,3,-1
 1417 1167 l 1,0,-1
1114 830 m 1,4,-1
 1114 673 l 1,5,-1
 326 673 l 1,6,-1
 326 830 l 1,7,-1
 1114 830 l 1,4,-1
356 1456 m 1,8,-1
 356 0 l 1,9,-1
 164 0 l 1,10,-1
 164 1456 l 1,11,-1
 356 1456 l 1,8,-1
1283 1456 m 1,12,-1
 1283 0 l 1,13,-1
 1090 0 l 1,14,-1
 1090 1456 l 1,15,-1
 1283 1456 l 1,12,-1
EndSplineSet
Substitution2: "'c2sc' Capitals to Small Capitals lookup 0 subtable" Hbar.c2sc
Position2: "'cpsp' Capital Spacing lookup 0 subtable" dx=36 dy=0 dh=72 dv=0
EndChar

StartChar: dotlessi
Encoding: 305 305 141
Width: 507
GlyphClass: 2
Flags: W
LayerCount: 2
Fore
SplineSet
341 1082 m 1,0,-1
 341 0 l 1,1,-1
 156 0 l 1,2,-1
 156 1082 l 1,3,-1
 341 1082 l 1,0,-1
EndSplineSet
Substitution2: "'smcp' Lowercase to Small Capitals lookup 1 subtable" I.c2sc
EndChar

StartChar: kgreenlandic
Encoding: 312 312 142
Width: 1140
GlyphClass: 2
Flags: W
LayerCount: 2
Fore
SplineSet
340 1082 m 1,0,-1
 340 0 l 1,1,-1
 155 0 l 1,2,-1
 155 1082 l 1,3,-1
 340 1082 l 1,0,-1
1052 1082 m 1,4,-1
 517 462 l 1,5,-1
 278 462 l 1,6,-1
 250 624 l 1,7,-1
 432 624 l 1,8,-1
 828 1082 l 1,9,-1
 1052 1082 l 1,4,-1
854 0 m 1,10,-1
 423 490 l 1,11,-1
 542 624 l 1,12,-1
 1088 0 l 1,13,-1
 854 0 l 1,10,-1
EndSplineSet
EndChar

StartChar: Lslash
Encoding: 321 321 143
Width: 1103
GlyphClass: 2
Flags: W
LayerCount: 2
Fore
SplineSet
624 928 m 1,0,-1
 624 803 l 1,1,-1
 35 616 l 1,2,-1
 35 741 l 1,3,-1
 624 928 l 1,0,-1
1052 157 m 1,4,-1
 1052 0 l 1,5,-1
 323 0 l 1,6,-1
 323 157 l 1,7,-1
 1052 157 l 1,4,-1
361 1456 m 1,8,-1
 361 0 l 1,9,-1
 169 0 l 1,10,-1
 169 1456 l 1,11,-1
 361 1456 l 1,8,-1
EndSplineSet
Substitution2: "'c2sc' Capitals to Small Capitals lookup 0 subtable" Lslash.c2sc
Position2: "'cpsp' Capital Spacing lookup 0 subtable" dx=36 dy=0 dh=72 dv=0
EndChar

StartChar: lslash
Encoding: 322 322 144
Width: 554
GlyphClass: 2
Flags: W
LayerCount: 2
Fore
SplineSet
523 930 m 1,0,-1
 523 808 l 1,1,-1
 35 621 l 1,2,-1
 35 743 l 1,3,-1
 523 930 l 1,0,-1
364 1536 m 1,4,-1
 364 0 l 1,5,-1
 179 0 l 1,6,-1
 179 1536 l 1,7,-1
 364 1536 l 1,4,-1
EndSplineSet
Substitution2: "'smcp' Lowercase to Small Capitals lookup 1 subtable" Lslash.c2sc
EndChar

StartChar: Eng
Encoding: 330 330 145
Width: 1419
GlyphClass: 2
Flags: W
LayerCount: 2
Fore
SplineSet
162 1456 m 1,0,-1
 355 1456 l 1,1,-1
 355 0 l 1,2,-1
 162 0 l 1,3,-1
 162 1456 l 1,0,-1
220 1342 m 1,4,-1
 355 1456 l 1,5,-1
 1207 114 l 1,6,-1
 1072 0 l 1,7,-1
 220 1342 l 1,4,-1
1072 1456 m 1,8,-1
 1265 1456 l 1,9,-1
 1265 -84 l 2,10,11
 1265 -198 1265 -198 1225.5 -276.5 c 128,-1,12
 1186 -355 1186 -355 1113 -396 c 128,-1,13
 1040 -437 1040 -437 938 -437 c 0,14,15
 907 -437 907 -437 880 -433.5 c 128,-1,16
 853 -430 853 -430 823 -420 c 1,17,-1
 837 -266 l 1,18,19
 854 -272 854 -272 887 -275.5 c 128,-1,20
 920 -279 920 -279 935 -279 c 0,21,22
 979 -279 979 -279 1009.5 -255.5 c 128,-1,23
 1040 -232 1040 -232 1056 -188.5 c 128,-1,24
 1072 -145 1072 -145 1072 -84 c 2,25,-1
 1072 1456 l 1,8,-1
EndSplineSet
Substitution2: "'c2sc' Capitals to Small Capitals lookup 0 subtable" Eng.c2sc
Position2: "'cpsp' Capital Spacing lookup 0 subtable" dx=36 dy=0 dh=72 dv=0
EndChar

StartChar: eng
Encoding: 331 331 146
Width: 1161
GlyphClass: 2
Flags: W
LayerCount: 2
Fore
SplineSet
331 851 m 1,0,-1
 331 0 l 1,1,-1
 146 0 l 1,2,-1
 146 1082 l 1,3,-1
 312 1082 l 1,4,-1
 331 851 l 1,0,-1
274 576 m 1,5,-1
 232 574 l 1,6,7
 232 689 232 689 260 785.5 c 128,-1,8
 288 882 288 882 341 953 c 128,-1,9
 394 1024 394 1024 470.5 1063 c 128,-1,10
 547 1102 547 1102 643 1102 c 0,11,12
 727 1102 727 1102 795 1078 c 128,-1,13
 863 1054 863 1054 910.5 1003.5 c 128,-1,14
 958 953 958 953 983.5 873 c 128,-1,15
 1009 793 1009 793 1009 682 c 2,16,-1
 1009 -89 l 2,17,18
 1009 -201 1009 -201 970.5 -279 c 128,-1,19
 932 -357 932 -357 859.5 -397 c 128,-1,20
 787 -437 787 -437 686 -437 c 0,21,22
 655 -437 655 -437 628.5 -433.5 c 128,-1,23
 602 -430 602 -430 572 -420 c 1,24,-1
 586 -263 l 1,25,26
 602 -269 602 -269 637 -272 c 128,-1,27
 672 -275 672 -275 686 -275 c 0,28,29
 730 -275 730 -275 760.5 -254 c 128,-1,30
 791 -233 791 -233 807.5 -191.5 c 128,-1,31
 824 -150 824 -150 824 -89 c 2,32,-1
 824 679 l 2,33,34
 824 754 824 754 808.5 805.5 c 128,-1,35
 793 857 793 857 762.5 887.5 c 128,-1,36
 732 918 732 918 688.5 932 c 128,-1,37
 645 946 645 946 588 946 c 0,38,39
 505 946 505 946 445.5 917 c 128,-1,40
 386 888 386 888 348 837 c 128,-1,41
 310 786 310 786 292 719 c 128,-1,42
 274 652 274 652 274 576 c 1,5,-1
EndSplineSet
Substitution2: "'smcp' Lowercase to Small Capitals lookup 1 subtable" Eng.c2sc
EndChar

StartChar: OE
Encoding: 338 338 147
Width: 1953
GlyphClass: 2
Flags: W
LayerCount: 2
Fore
SplineSet
660 1477 m 0,0,1
 737 1477 737 1477 812 1470.5 c 128,-1,2
 887 1464 887 1464 954 1456 c 1,3,-1
 954 1298 l 1,4,5
 888 1310 888 1310 813.5 1317.5 c 128,-1,6
 739 1325 739 1325 660 1325 c 0,7,8
 575 1325 575 1325 506.5 1296.5 c 128,-1,9
 438 1268 438 1268 389.5 1212 c 128,-1,10
 341 1156 341 1156 315.5 1073.5 c 128,-1,11
 290 991 290 991 290 882 c 2,12,-1
 290 576 l 2,13,14
 290 467 290 467 316 384 c 128,-1,15
 342 301 342 301 391 244.5 c 128,-1,16
 440 188 440 188 508.5 159.5 c 128,-1,17
 577 131 577 131 662 131 c 0,18,19
 740 131 740 131 814.5 138.5 c 128,-1,20
 889 146 889 146 954 158 c 1,21,-1
 954 0 l 1,22,23
 887 -7 887 -7 813 -14 c 128,-1,24
 739 -21 739 -21 662 -21 c 0,25,26
 538 -21 538 -21 435.5 22.5 c 128,-1,27
 333 66 333 66 259 145.5 c 128,-1,28
 185 225 185 225 145 334.5 c 128,-1,29
 105 444 105 444 105 576 c 2,30,-1
 105 880 l 2,31,32
 105 1012 105 1012 145 1121.5 c 128,-1,33
 185 1231 185 1231 258.5 1310.5 c 128,-1,34
 332 1390 332 1390 434 1433.5 c 128,-1,35
 536 1477 536 1477 660 1477 c 0,0,1
1801 157 m 1,36,-1
 1801 0 l 1,37,-1
 1030 0 l 1,38,-1
 1030 157 l 1,39,-1
 1801 157 l 1,36,-1
1069 1456 m 1,40,-1
 1069 0 l 1,41,-1
 876 0 l 1,42,-1
 876 1456 l 1,43,-1
 1069 1456 l 1,40,-1
1699 830 m 1,44,-1
 1699 673 l 1,45,-1
 1030 673 l 1,46,-1
 1030 830 l 1,47,-1
 1699 830 l 1,44,-1
1791 1456 m 1,48,-1
 1791 1298 l 1,49,-1
 1030 1298 l 1,50,-1
 1030 1456 l 1,51,-1
 1791 1456 l 1,48,-1
EndSplineSet
Substitution2: "'c2sc' Capitals to Small Capitals lookup 0 subtable" OE.c2sc
Position2: "'cpsp' Capital Spacing lookup 0 subtable" dx=36 dy=0 dh=72 dv=0
EndChar

StartChar: oe
Encoding: 339 339 148
Width: 1860
GlyphClass: 2
Flags: W
LayerCount: 2
Fore
SplineSet
1379 -21 m 0,0,1
 1267 -21 1267 -21 1176.5 19 c 128,-1,2
 1086 59 1086 59 1022 131.5 c 128,-1,3
 958 204 958 204 923.5 303 c 128,-1,4
 889 402 889 402 889 520 c 2,5,-1
 889 564 l 2,6,7
 889 683 889 683 926.5 781.5 c 128,-1,8
 964 880 964 880 1028.5 952 c 128,-1,9
 1093 1024 1093 1024 1176.5 1063.5 c 128,-1,10
 1260 1103 1260 1103 1351 1102 c 0,11,12
 1463 1102 1463 1102 1546 1066.5 c 128,-1,13
 1629 1031 1629 1031 1683.5 966.5 c 128,-1,14
 1738 902 1738 902 1765 814 c 128,-1,15
 1792 726 1792 726 1792 620 c 2,16,-1
 1792 498 l 1,17,-1
 999 498 l 1,18,-1
 999 649 l 1,19,-1
 1607 649 l 1,20,-1
 1607 675 l 2,21,22
 1607 748 1607 748 1580 810.5 c 128,-1,23
 1553 873 1553 873 1496.5 911.5 c 128,-1,24
 1440 950 1440 950 1351 950 c 0,25,26
 1290 950 1290 950 1239.5 920 c 128,-1,27
 1189 890 1189 890 1152 837 c 128,-1,28
 1115 784 1115 784 1095 714 c 128,-1,29
 1075 644 1075 644 1075 564 c 2,30,-1
 1075 520 l 2,31,32
 1075 439 1075 439 1094 368.5 c 128,-1,33
 1113 298 1113 298 1151.5 244.5 c 128,-1,34
 1190 191 1190 191 1247 161 c 128,-1,35
 1304 131 1304 131 1379 131 c 0,36,37
 1489 131 1489 131 1563.5 162.5 c 128,-1,38
 1638 194 1638 194 1688 239 c 1,39,-1
 1761 113 l 1,40,41
 1712 65 1712 65 1619 22 c 128,-1,42
 1526 -21 1526 -21 1379 -21 c 0,0,1
97 529 m 2,43,-1
 97 552 l 2,44,45
 97 669 97 669 130 769.5 c 128,-1,46
 163 870 163 870 225.5 944.5 c 128,-1,47
 288 1019 288 1019 377 1060.5 c 128,-1,48
 466 1102 466 1102 579 1102 c 0,49,50
 694 1102 694 1102 784 1060.5 c 128,-1,51
 874 1019 874 1019 936.5 944.5 c 128,-1,52
 999 870 999 870 1031.5 769.5 c 128,-1,53
 1064 669 1064 669 1064 552 c 2,54,-1
 1064 529 l 2,55,56
 1064 412 1064 412 1031.5 311.5 c 128,-1,57
 999 211 999 211 936.5 136.5 c 128,-1,58
 874 62 874 62 784.5 20.5 c 128,-1,59
 695 -21 695 -21 581 -21 c 256,60,61
 467 -21 467 -21 377.5 20.5 c 128,-1,62
 288 62 288 62 225.5 136.5 c 128,-1,63
 163 211 163 211 130 311.5 c 128,-1,64
 97 412 97 412 97 529 c 2,43,-1
283 552 m 2,65,-1
 283 529 l 2,66,67
 283 448 283 448 301 376.5 c 128,-1,68
 319 305 319 305 355.5 249.5 c 128,-1,69
 392 194 392 194 448 162.5 c 128,-1,70
 504 131 504 131 581 131 c 256,71,72
 658 131 658 131 714 162.5 c 128,-1,73
 770 194 770 194 806.5 249.5 c 128,-1,74
 843 305 843 305 861 376.5 c 128,-1,75
 879 448 879 448 879 529 c 2,76,-1
 879 552 l 2,77,78
 879 632 879 632 861 703.5 c 128,-1,79
 843 775 843 775 806 830.5 c 128,-1,80
 769 886 769 886 712.5 918 c 128,-1,81
 656 950 656 950 579 950 c 0,82,83
 503 950 503 950 447 918 c 128,-1,84
 391 886 391 886 354.5 830.5 c 128,-1,85
 318 775 318 775 300.5 703.5 c 128,-1,86
 283 632 283 632 283 552 c 2,65,-1
EndSplineSet
Substitution2: "'smcp' Lowercase to Small Capitals lookup 1 subtable" OE.c2sc
EndChar

StartChar: longs
Encoding: 383 383 149
Width: 508
GlyphClass: 2
Flags: W
LayerCount: 2
Fore
SplineSet
346 0 m 1,0,-1
 161 0 l 1,1,-1
 161 1196 l 2,2,3
 161 1313 161 1313 202 1393.5 c 128,-1,4
 243 1474 243 1474 318.5 1515.5 c 128,-1,5
 394 1557 394 1557 499 1557 c 0,6,7
 536 1557 536 1557 571 1551 c 128,-1,8
 606 1545 606 1545 643 1536 c 1,9,-1
 619 1394 l 1,10,11
 602 1399 602 1399 579.5 1402 c 128,-1,12
 557 1405 557 1405 528 1405 c 0,13,14
 469 1405 469 1405 428.5 1380 c 128,-1,15
 388 1355 388 1355 367 1308.5 c 128,-1,16
 346 1262 346 1262 346 1196 c 2,17,-1
 346 0 l 1,0,-1
EndSplineSet
EndChar

StartChar: uni018F
Encoding: 399 399 150
Width: 1415
GlyphClass: 2
Flags: W
LayerCount: 2
Fore
SplineSet
697 -20 m 0,0,1
 549 -20 549 -20 436 26 c 128,-1,2
 323 72 323 72 247 159 c 128,-1,3
 171 246 171 246 132.5 368.5 c 128,-1,4
 94 491 94 491 94 643 c 2,5,-1
 94 767 l 1,6,-1
 1180 767 l 1,7,-1
 1180 618 l 1,8,-1
 287 618 l 1,9,-1
 287 584 l 2,10,11
 287 491 287 491 308.5 410 c 128,-1,12
 330 329 330 329 378 268.5 c 128,-1,13
 426 208 426 208 504.5 173.5 c 128,-1,14
 583 139 583 139 697 139 c 0,15,16
 795 139 795 139 871 181 c 128,-1,17
 947 223 947 223 999.5 297.5 c 128,-1,18
 1052 372 1052 372 1079 470 c 128,-1,19
 1106 568 1106 568 1106 680 c 2,20,-1
 1106 774 l 2,21,22
 1106 887 1106 887 1079.5 985 c 128,-1,23
 1053 1083 1053 1083 997 1157.5 c 128,-1,24
 941 1232 941 1232 853 1274 c 128,-1,25
 765 1316 765 1316 641 1316 c 0,26,27
 511 1316 511 1316 423 1288 c 128,-1,28
 335 1260 335 1260 276 1232 c 1,29,-1
 229 1375 l 1,30,31
 253 1391 253 1391 306 1415 c 128,-1,32
 359 1439 359 1439 442.5 1457.5 c 128,-1,33
 526 1476 526 1476 641 1476 c 0,34,35
 800 1476 800 1476 922.5 1424.5 c 128,-1,36
 1045 1373 1045 1373 1128.5 1279.5 c 128,-1,37
 1212 1186 1212 1186 1255 1057.5 c 128,-1,38
 1298 929 1298 929 1298 774 c 2,39,-1
 1298 680 l 2,40,41
 1298 525 1298 525 1251.5 396.5 c 128,-1,42
 1205 268 1205 268 1122.5 174.5 c 128,-1,43
 1040 81 1040 81 931 30.5 c 128,-1,44
 822 -20 822 -20 697 -20 c 0,0,1
EndSplineSet
EndChar

StartChar: florin
Encoding: 402 402 151
Width: 698
GlyphClass: 1
Flags: W
LayerCount: 2
Fore
SplineSet
608 1082 m 1,0,-1
 608 940 l 1,1,-1
 405 940 l 1,2,-1
 405 -89 l 2,3,4
 405 -201 405 -201 366.5 -279 c 128,-1,5
 328 -357 328 -357 256 -397 c 128,-1,6
 184 -437 184 -437 83 -437 c 0,7,8
 52 -437 52 -437 26 -433.5 c 128,-1,9
 0 -430 0 -430 -29 -420 c 1,10,-1
 -15 -272 l 1,11,12
 0 -278 0 -278 34.5 -281.5 c 128,-1,13
 69 -285 69 -285 83 -285 c 0,14,15
 126 -285 126 -285 156.5 -261.5 c 128,-1,16
 187 -238 187 -238 203.5 -194 c 128,-1,17
 220 -150 220 -150 220 -89 c 2,18,-1
 220 940 l 1,19,-1
 49 940 l 1,20,-1
 49 1082 l 1,21,-1
 220 1082 l 1,22,-1
 220 1196 l 2,23,24
 220 1313 220 1313 260.5 1393.5 c 128,-1,25
 301 1474 301 1474 377 1515.5 c 128,-1,26
 453 1557 453 1557 558 1557 c 0,27,28
 594 1557 594 1557 629.5 1551 c 128,-1,29
 665 1545 665 1545 701 1536 c 1,30,-1
 679 1390 l 1,31,32
 660 1395 660 1395 634.5 1397.5 c 128,-1,33
 609 1400 609 1400 580 1400 c 0,34,35
 521 1400 521 1400 482 1376.5 c 128,-1,36
 443 1353 443 1353 424 1307.5 c 128,-1,37
 405 1262 405 1262 405 1196 c 2,38,-1
 405 1082 l 1,39,-1
 608 1082 l 1,0,-1
EndSplineSet
EndChar

StartChar: Ohorn
Encoding: 416 416 152
Width: 1407
GlyphClass: 2
Flags: W
LayerCount: 2
Fore
SplineSet
1270 1592 m 1,0,-1
 1437 1592 l 1,1,2
 1437 1463 1437 1463 1395 1372 c 128,-1,3
 1353 1281 1353 1281 1268.5 1233.5 c 128,-1,4
 1184 1186 1184 1186 1057 1186 c 1,5,-1
 1057 1321 l 1,6,7
 1136 1321 1136 1321 1182.5 1353 c 128,-1,8
 1229 1385 1229 1385 1249.5 1446 c 128,-1,9
 1270 1507 1270 1507 1270 1592 c 1,0,-1
1273 774 m 2,10,-1
 1273 682 l 2,11,12
 1273 518 1273 518 1232 388 c 128,-1,13
 1191 258 1191 258 1114 167 c 128,-1,14
 1037 76 1037 76 929.5 28 c 128,-1,15
 822 -20 822 -20 689 -20 c 0,16,17
 586 -20 586 -20 496 11 c 128,-1,18
 406 42 406 42 333.5 101.5 c 128,-1,19
 261 161 261 161 209 246.5 c 128,-1,20
 157 332 157 332 129.5 441.5 c 128,-1,21
 102 551 102 551 102 682 c 2,22,-1
 102 774 l 2,23,24
 102 938 102 938 144.5 1067.5 c 128,-1,25
 187 1197 187 1197 265 1288.5 c 128,-1,26
 343 1380 343 1380 450.5 1428 c 128,-1,27
 558 1476 558 1476 687 1476 c 0,28,29
 793 1476 793 1476 884 1445 c 128,-1,30
 975 1414 975 1414 1046.5 1354.5 c 128,-1,31
 1118 1295 1118 1295 1169 1209.5 c 128,-1,32
 1220 1124 1220 1124 1246.5 1014.5 c 128,-1,33
 1273 905 1273 905 1273 774 c 2,10,-1
1082 682 m 2,34,-1
 1082 776 l 2,35,36
 1082 880 1082 880 1065 964.5 c 128,-1,37
 1048 1049 1048 1049 1015 1114 c 128,-1,38
 982 1179 982 1179 934 1223 c 128,-1,39
 886 1267 886 1267 824 1289.5 c 128,-1,40
 762 1312 762 1312 687 1312 c 0,41,42
 598 1312 598 1312 525.5 1277 c 128,-1,43
 453 1242 453 1242 401 1174 c 128,-1,44
 349 1106 349 1106 321 1006 c 128,-1,45
 293 906 293 906 293 776 c 2,46,-1
 293 682 l 2,47,48
 293 577 293 577 311 492 c 128,-1,49
 329 407 329 407 363.5 341.5 c 128,-1,50
 398 276 398 276 446.5 232 c 128,-1,51
 495 188 495 188 556.5 165.5 c 128,-1,52
 618 143 618 143 689 143 c 0,53,54
 783 143 783 143 856 178 c 128,-1,55
 929 213 929 213 979.5 281.5 c 128,-1,56
 1030 350 1030 350 1056 450.5 c 128,-1,57
 1082 551 1082 551 1082 682 c 2,34,-1
EndSplineSet
EndChar

StartChar: ohorn
Encoding: 417 417 153
Width: 1171
GlyphClass: 2
Flags: W
LayerCount: 2
Fore
SplineSet
1061 1201 m 1,0,-1
 1210 1201 l 1,1,2
 1210 1091 1210 1091 1180 1011.5 c 128,-1,3
 1150 932 1150 932 1080 889 c 128,-1,4
 1010 846 1010 846 890 846 c 1,5,-1
 890 962 l 1,6,7
 965 962 965 962 1001.5 992 c 128,-1,8
 1038 1022 1038 1022 1049.5 1076 c 128,-1,9
 1061 1130 1061 1130 1061 1201 c 1,0,-1
92 529 m 2,10,-1
 92 552 l 2,11,12
 92 669 92 669 126 769.5 c 128,-1,13
 160 870 160 870 224 944.5 c 128,-1,14
 288 1019 288 1019 379 1060.5 c 128,-1,15
 470 1102 470 1102 583 1102 c 0,16,17
 697 1102 697 1102 788.5 1060.5 c 128,-1,18
 880 1019 880 1019 944 944.5 c 128,-1,19
 1008 870 1008 870 1042 769.5 c 128,-1,20
 1076 669 1076 669 1076 552 c 2,21,-1
 1076 529 l 2,22,23
 1076 412 1076 412 1042 312 c 128,-1,24
 1008 212 1008 212 944 137.5 c 128,-1,25
 880 63 880 63 789.5 21.5 c 128,-1,26
 699 -20 699 -20 585 -20 c 256,27,28
 471 -20 471 -20 380 21.5 c 128,-1,29
 289 63 289 63 224.5 137.5 c 128,-1,30
 160 212 160 212 126 312 c 128,-1,31
 92 412 92 412 92 529 c 2,10,-1
277 552 m 2,32,-1
 277 529 l 2,33,34
 277 448 277 448 296 376.5 c 128,-1,35
 315 305 315 305 353.5 250 c 128,-1,36
 392 195 392 195 450 163.5 c 128,-1,37
 508 132 508 132 585 132 c 0,38,39
 661 132 661 132 718.5 163.5 c 128,-1,40
 776 195 776 195 814 250 c 128,-1,41
 852 305 852 305 871.5 376.5 c 128,-1,42
 891 448 891 448 891 529 c 2,43,-1
 891 552 l 2,44,45
 891 632 891 632 871.5 703.5 c 128,-1,46
 852 775 852 775 813.5 830.5 c 128,-1,47
 775 886 775 886 717.5 918 c 128,-1,48
 660 950 660 950 583 950 c 0,49,50
 507 950 507 950 449.5 918 c 128,-1,51
 392 886 392 886 353.5 830.5 c 128,-1,52
 315 775 315 775 296 703.5 c 128,-1,53
 277 632 277 632 277 552 c 2,32,-1
EndSplineSet
EndChar

StartChar: Uhorn
Encoding: 431 431 154
Width: 1424
GlyphClass: 2
Flags: W
LayerCount: 2
Fore
SplineSet
1407 1538 m 1,0,-1
 1565 1538 l 1,1,2
 1565 1397 1565 1397 1523.5 1301 c 128,-1,3
 1482 1205 1482 1205 1390.5 1156 c 128,-1,4
 1299 1107 1299 1107 1148 1107 c 1,5,-1
 1148 1242 l 1,6,7
 1250 1242 1250 1242 1306.5 1275.5 c 128,-1,8
 1363 1309 1363 1309 1385 1375 c 128,-1,9
 1407 1441 1407 1441 1407 1538 c 1,0,-1
1002 1456 m 1,10,-1
 1194 1456 l 1,11,-1
 1194 471 l 2,12,13
 1194 307 1194 307 1121 198 c 128,-1,14
 1048 89 1048 89 927.5 34.5 c 128,-1,15
 807 -20 807 -20 666 -20 c 0,16,17
 518 -20 518 -20 398.5 34.5 c 128,-1,18
 279 89 279 89 209.5 198 c 128,-1,19
 140 307 140 307 140 471 c 2,20,-1
 140 1456 l 1,21,-1
 331 1456 l 1,22,-1
 331 471 l 2,23,24
 331 357 331 357 373 283 c 128,-1,25
 415 209 415 209 490.5 173 c 128,-1,26
 566 137 566 137 666 137 c 0,27,28
 767 137 767 137 842.5 173 c 128,-1,29
 918 209 918 209 960 283 c 128,-1,30
 1002 357 1002 357 1002 471 c 2,31,-1
 1002 1456 l 1,10,-1
EndSplineSet
EndChar

StartChar: uhorn
Encoding: 432 432 155
Width: 1267
GlyphClass: 2
Flags: W
LayerCount: 2
Fore
SplineSet
1154 1169 m 1,0,-1
 1296 1169 l 1,1,2
 1296 1060 1296 1060 1267.5 986 c 128,-1,3
 1239 912 1239 912 1168 875 c 128,-1,4
 1097 838 1097 838 968 838 c 1,5,-1
 968 952 l 1,6,7
 1058 952 1058 952 1097 974.5 c 128,-1,8
 1136 997 1136 997 1145 1045 c 128,-1,9
 1154 1093 1154 1093 1154 1169 c 1,0,-1
803 250 m 1,10,-1
 803 1082 l 1,11,-1
 989 1082 l 1,12,-1
 989 0 l 1,13,-1
 812 0 l 1,14,-1
 803 250 l 1,10,-1
838 478 m 1,15,-1
 915 480 l 1,16,17
 915 372 915 372 892.5 280.5 c 128,-1,18
 870 189 870 189 820 122 c 128,-1,19
 770 55 770 55 689 17.5 c 128,-1,20
 608 -20 608 -20 492 -20 c 0,21,22
 413 -20 413 -20 347.5 3 c 128,-1,23
 282 26 282 26 235 74 c 128,-1,24
 188 122 188 122 162.5 199 c 128,-1,25
 137 276 137 276 137 384 c 2,26,-1
 137 1082 l 1,27,-1
 322 1082 l 1,28,-1
 322 382 l 2,29,30
 322 309 322 309 338.5 261.5 c 128,-1,31
 355 214 355 214 383.5 186.5 c 128,-1,32
 412 159 412 159 447.5 148 c 128,-1,33
 483 137 483 137 521 137 c 0,34,35
 639 137 639 137 708 182.5 c 128,-1,36
 777 228 777 228 807.5 305.5 c 128,-1,37
 838 383 838 383 838 478 c 1,15,-1
EndSplineSet
EndChar

StartChar: uni0237
Encoding: 567 567 156
Width: 516
GlyphClass: 2
Flags: W
LayerCount: 2
Fore
SplineSet
173 1082 m 1,0,-1
 358 1082 l 1,1,-1
 358 -89 l 2,2,3
 358 -201 358 -201 319.5 -279 c 128,-1,4
 281 -357 281 -357 209 -397 c 128,-1,5
 137 -437 137 -437 36 -437 c 0,6,7
 5 -437 5 -437 -21 -433.5 c 128,-1,8
 -47 -430 -47 -430 -76 -420 c 1,9,-1
 -62 -272 l 1,10,11
 -47 -278 -47 -278 -12.5 -281.5 c 128,-1,12
 22 -285 22 -285 36 -285 c 0,13,14
 79 -285 79 -285 109.5 -261.5 c 128,-1,15
 140 -238 140 -238 156.5 -194 c 128,-1,16
 173 -150 173 -150 173 -89 c 2,17,-1
 173 1082 l 1,0,-1
EndSplineSet
EndChar

StartChar: uni0259
Encoding: 601 601 157
Width: 1080
GlyphClass: 2
Flags: W
LayerCount: 2
Fore
SplineSet
512 1104 m 0,0,1
 624 1104 624 1104 714.5 1064 c 128,-1,2
 805 1024 805 1024 869 951.5 c 128,-1,3
 933 879 933 879 967.5 780 c 128,-1,4
 1002 681 1002 681 1002 563 c 2,5,-1
 1002 519 l 2,6,7
 1002 401 1002 401 964.5 302 c 128,-1,8
 927 203 927 203 862 131 c 128,-1,9
 797 59 797 59 714 19.5 c 128,-1,10
 631 -20 631 -20 540 -19 c 0,11,12
 428 -19 428 -19 345 16.5 c 128,-1,13
 262 52 262 52 207.5 116.5 c 128,-1,14
 153 181 153 181 126 269 c 128,-1,15
 99 357 99 357 99 463 c 2,16,-1
 99 585 l 1,17,-1
 892 585 l 1,18,-1
 892 433 l 1,19,-1
 284 433 l 1,20,-1
 284 408 l 2,21,22
 284 336 284 336 311 273 c 128,-1,23
 338 210 338 210 395 171 c 128,-1,24
 452 132 452 132 540 132 c 0,25,26
 600 132 600 132 650.5 162 c 128,-1,27
 701 192 701 192 738 245 c 128,-1,28
 775 298 775 298 795.5 368.5 c 128,-1,29
 816 439 816 439 816 519 c 2,30,-1
 816 563 l 2,31,32
 816 643 816 643 796.5 713.5 c 128,-1,33
 777 784 777 784 739 837.5 c 128,-1,34
 701 891 701 891 644 921.5 c 128,-1,35
 587 952 587 952 512 952 c 0,36,37
 403 952 403 952 328 920.5 c 128,-1,38
 253 889 253 889 203 844 c 1,39,-1
 130 970 l 1,40,41
 180 1018 180 1018 272.5 1061 c 128,-1,42
 365 1104 365 1104 512 1104 c 0,0,1
EndSplineSet
PairPos2: "'kern' Horizontal Kerning lookup 4 per glyph data 0" uni02BC dx=0 dy=0 dh=0 dv=0 dx=0 dy=0 dh=0 dv=0
PairPos2: "'kern' Horizontal Kerning lookup 4 per glyph data 0" second dx=0 dy=0 dh=0 dv=0 dx=0 dy=0 dh=0 dv=0
PairPos2: "'kern' Horizontal Kerning lookup 4 per glyph data 0" minute dx=0 dy=0 dh=0 dv=0 dx=0 dy=0 dh=0 dv=0
PairPos2: "'kern' Horizontal Kerning lookup 4 per glyph data 0" quotedblright dx=0 dy=0 dh=0 dv=0 dx=0 dy=0 dh=0 dv=0
PairPos2: "'kern' Horizontal Kerning lookup 4 per glyph data 0" quotedblleft dx=0 dy=0 dh=0 dv=0 dx=0 dy=0 dh=0 dv=0
PairPos2: "'kern' Horizontal Kerning lookup 4 per glyph data 0" quotereversed dx=0 dy=0 dh=0 dv=0 dx=0 dy=0 dh=0 dv=0
PairPos2: "'kern' Horizontal Kerning lookup 4 per glyph data 0" quoteright dx=0 dy=0 dh=0 dv=0 dx=0 dy=0 dh=0 dv=0
PairPos2: "'kern' Horizontal Kerning lookup 4 per glyph data 0" quoteleft dx=0 dy=0 dh=0 dv=0 dx=0 dy=0 dh=0 dv=0
PairPos2: "'kern' Horizontal Kerning lookup 4 per glyph data 0" quotesingle dx=0 dy=0 dh=0 dv=0 dx=0 dy=0 dh=0 dv=0
PairPos2: "'kern' Horizontal Kerning lookup 4 per glyph data 0" quotedbl dx=0 dy=0 dh=0 dv=0 dx=0 dy=0 dh=0 dv=0
EndChar

StartChar: circumflex
Encoding: 710 710 158
Width: 964
GlyphClass: 2
Flags: W
LayerCount: 2
Fore
SplineSet
527 1536 m 1,0,-1
 775 1263 l 1,1,-1
 775 1253 l 1,2,-1
 621 1253 l 1,3,-1
 471 1422 l 1,4,-1
 322 1253 l 1,5,-1
 170 1253 l 1,6,-1
 170 1264 l 1,7,-1
 415 1536 l 1,8,-1
 527 1536 l 1,0,-1
EndSplineSet
EndChar

StartChar: caron
Encoding: 711 711 159
Width: 910
GlyphClass: 2
Flags: W
LayerCount: 2
Fore
SplineSet
298 1535 m 1,0,-1
 449 1365 l 1,1,-1
 600 1535 l 1,2,-1
 760 1535 l 1,3,-1
 760 1525 l 1,4,-1
 506 1251 l 1,5,-1
 392 1251 l 1,6,-1
 142 1525 l 1,7,-1
 142 1535 l 1,8,-1
 298 1535 l 1,0,-1
EndSplineSet
EndChar

StartChar: breve
Encoding: 728 728 161
Width: 875
GlyphClass: 2
Flags: W
LayerCount: 2
Fore
SplineSet
578 1495 m 1,0,-1
 728 1495 l 1,1,2
 728 1417 728 1417 692 1356.5 c 128,-1,3
 656 1296 656 1296 589 1262 c 128,-1,4
 522 1228 522 1228 430 1228 c 0,5,6
 291 1228 291 1228 210.5 1302.5 c 128,-1,7
 130 1377 130 1377 130 1495 c 1,8,-1
 280 1495 l 1,9,10
 280 1436 280 1436 314 1391 c 128,-1,11
 348 1346 348 1346 430 1346 c 0,12,13
 510 1346 510 1346 544 1391 c 128,-1,14
 578 1436 578 1436 578 1495 c 1,0,-1
EndSplineSet
EndChar

StartChar: dotaccent
Encoding: 729 729 162
Width: 498
GlyphClass: 2
Flags: W
LayerCount: 2
Fore
SplineSet
142 1368 m 256,0,1
 142 1412 142 1412 169.5 1443 c 128,-1,2
 197 1474 197 1474 251 1474 c 0,3,4
 304 1474 304 1474 332.5 1443 c 128,-1,5
 361 1412 361 1412 361 1368 c 256,6,7
 361 1324 361 1324 332.5 1293.5 c 128,-1,8
 304 1263 304 1263 251 1263 c 0,9,10
 197 1263 197 1263 169.5 1293.5 c 128,-1,11
 142 1324 142 1324 142 1368 c 256,0,1
EndSplineSet
EndChar

StartChar: ring
Encoding: 730 730 163
Width: 686
GlyphClass: 2
Flags: W
LayerCount: 2
Fore
SplineSet
121 1409 m 0,0,1
 121 1467 121 1467 149.5 1514 c 128,-1,2
 178 1561 178 1561 226.5 1589 c 128,-1,3
 275 1617 275 1617 336 1617 c 0,4,5
 427 1617 427 1617 489 1556 c 128,-1,6
 551 1495 551 1495 551 1409 c 0,7,8
 551 1351 551 1351 522.5 1304.5 c 128,-1,9
 494 1258 494 1258 445.5 1231.5 c 128,-1,10
 397 1205 397 1205 336 1205 c 0,11,12
 245 1205 245 1205 183 1263 c 128,-1,13
 121 1321 121 1321 121 1409 c 0,0,1
220 1409 m 0,14,15
 220 1365 220 1365 252.5 1329.5 c 128,-1,16
 285 1294 285 1294 336 1294 c 256,17,18
 387 1294 387 1294 419.5 1328.5 c 128,-1,19
 452 1363 452 1363 452 1409 c 0,20,21
 452 1456 452 1456 419.5 1491.5 c 128,-1,22
 387 1527 387 1527 336 1527 c 256,23,24
 285 1527 285 1527 252.5 1491.5 c 128,-1,25
 220 1456 220 1456 220 1409 c 0,14,15
EndSplineSet
EndChar

StartChar: ogonek
Encoding: 731 731 164
Width: 555
GlyphClass: 1
Flags: W
LayerCount: 2
Fore
SplineSet
308 57 m 1,0,-1
 382 0 l 1,1,2
 339 -32 339 -32 300 -66.5 c 128,-1,3
 261 -101 261 -101 236 -139.5 c 128,-1,4
 211 -178 211 -178 211 -222 c 0,5,6
 211 -255 211 -255 228.5 -275 c 128,-1,7
 246 -295 246 -295 289 -295 c 0,8,9
 322 -295 322 -295 348 -285.5 c 128,-1,10
 374 -276 374 -276 389 -268 c 1,11,-1
 403 -390 l 1,12,13
 378 -405 378 -405 339.5 -419.5 c 128,-1,14
 301 -434 301 -434 242 -434 c 0,15,16
 161 -434 161 -434 105.5 -385.5 c 128,-1,17
 50 -337 50 -337 50 -243 c 0,18,19
 50 -189 50 -189 76.5 -136 c 128,-1,20
 103 -83 103 -83 160 -34 c 128,-1,21
 217 15 217 15 308 57 c 1,0,-1
EndSplineSet
EndChar

StartChar: tilde
Encoding: 732 732 165
Width: 966
GlyphClass: 2
Flags: W
LayerCount: 2
Fore
SplineSet
706 1512 m 1,0,-1
 831 1501 l 1,1,2
 831 1428 831 1428 802 1373 c 128,-1,3
 773 1318 773 1318 724.5 1288 c 128,-1,4
 676 1258 676 1258 615 1258 c 0,5,6
 564 1258 564 1258 531 1272.5 c 128,-1,7
 498 1287 498 1287 472 1305.5 c 128,-1,8
 446 1324 446 1324 417.5 1338.5 c 128,-1,9
 389 1353 389 1353 347 1353 c 256,10,11
 305 1353 305 1353 276.5 1321 c 128,-1,12
 248 1289 248 1289 248 1242 c 1,13,-1
 123 1248 l 1,14,15
 123 1321 123 1321 151.5 1376.5 c 128,-1,16
 180 1432 180 1432 229 1463.5 c 128,-1,17
 278 1495 278 1495 338 1495 c 0,18,19
 381 1495 381 1495 413.5 1480.5 c 128,-1,20
 446 1466 446 1466 475 1447.5 c 128,-1,21
 504 1429 504 1429 535 1414.5 c 128,-1,22
 566 1400 566 1400 606 1400 c 0,23,24
 648 1400 648 1400 677 1432.5 c 128,-1,25
 706 1465 706 1465 706 1512 c 1,0,-1
EndSplineSet
EndChar

StartChar: hungarumlaut
Encoding: 733 733 166
Width: 764
GlyphClass: 2
Flags: W
LayerCount: 2
Fore
SplineSet
375 1232 m 1,0,-1
 605 1535 l 1,1,-1
 812 1535 l 1,2,-1
 544 1232 l 1,3,-1
 375 1232 l 1,0,-1
95 1232 m 1,4,-1
 265 1535 l 1,5,-1
 463 1535 l 1,6,-1
 245 1232 l 1,7,-1
 95 1232 l 1,4,-1
EndSplineSet
EndChar

StartChar: uni02F3
Encoding: 755 755 167
Width: 602
GlyphClass: 1
Flags: W
LayerCount: 2
Fore
SplineSet
127 -243 m 256,0,1
 127 -170 127 -170 178.5 -123 c 128,-1,2
 230 -76 230 -76 301 -76 c 0,3,4
 370 -76 370 -76 420 -123 c 128,-1,5
 470 -170 470 -170 470 -243 c 256,6,7
 470 -316 470 -316 420 -361 c 128,-1,8
 370 -406 370 -406 301 -406 c 0,9,10
 230 -406 230 -406 178.5 -361 c 128,-1,11
 127 -316 127 -316 127 -243 c 256,0,1
214 -243 m 0,12,13
 214 -277 214 -277 239.5 -301.5 c 128,-1,14
 265 -326 265 -326 301 -326 c 0,15,16
 335 -326 335 -326 359.5 -302 c 128,-1,17
 384 -278 384 -278 384 -243 c 0,18,19
 384 -206 384 -206 359.5 -181 c 128,-1,20
 335 -156 335 -156 301 -156 c 0,21,22
 265 -156 265 -156 239.5 -181 c 128,-1,23
 214 -206 214 -206 214 -243 c 0,12,13
EndSplineSet
EndChar

StartChar: gravecomb
Encoding: 768 768 168
Width: 0
GlyphClass: 4
Flags: W
LayerCount: 2
Fore
SplineSet
-634 1536 m 1,0,-1
 -441 1242 l 1,1,-1
 -599 1242 l 1,2,-1
 -857 1536 l 1,3,-1
 -634 1536 l 1,0,-1
EndSplineSet
EndChar

StartChar: acutecomb
Encoding: 769 769 169
Width: 0
GlyphClass: 4
Flags: W
LayerCount: 2
Fore
SplineSet
-658 1242 m 1,0,-1
 -464 1536 l 1,1,-1
 -241 1536 l 1,2,-1
 -509 1242 l 1,3,-1
 -658 1242 l 1,0,-1
EndSplineSet
EndChar

StartChar: hookabovecomb
Encoding: 777 777 171
Width: 0
GlyphClass: 4
Flags: W
LayerCount: 2
Fore
SplineSet
-520 1242 m 1,0,-1
 -653 1242 l 1,1,-1
 -654 1394 l 1,2,3
 -603 1397 -603 1397 -571 1404.5 c 128,-1,4
 -539 1412 -539 1412 -524 1427.5 c 128,-1,5
 -509 1443 -509 1443 -509 1469 c 0,6,7
 -509 1490 -509 1490 -522 1504.5 c 128,-1,8
 -535 1519 -535 1519 -558 1528.5 c 128,-1,9
 -581 1538 -581 1538 -611 1542 c 128,-1,10
 -641 1546 -641 1546 -675 1546 c 1,11,-1
 -668 1652 l 1,12,13
 -594 1652 -594 1652 -537.5 1639 c 128,-1,14
 -481 1626 -481 1626 -442.5 1601 c 128,-1,15
 -404 1576 -404 1576 -384.5 1541.5 c 128,-1,16
 -365 1507 -365 1507 -365 1465 c 0,17,18
 -365 1389 -365 1389 -413 1354.5 c 128,-1,19
 -461 1320 -461 1320 -519 1312 c 1,20,-1
 -520 1242 l 1,0,-1
EndSplineSet
EndChar

StartChar: uni030F
Encoding: 783 783 172
Width: 0
GlyphClass: 4
Flags: W
LayerCount: 2
Fore
SplineSet
-511 1252 m 1,0,-1
 -680 1252 l 1,1,-1
 -985 1518 l 1,2,-1
 -760 1518 l 1,3,-1
 -511 1252 l 1,0,-1
-250 1252 m 1,4,-1
 -400 1252 l 1,5,-1
 -646 1518 l 1,6,-1
 -439 1518 l 1,7,-1
 -250 1252 l 1,4,-1
EndSplineSet
EndChar

StartChar: dotbelowcomb
Encoding: 803 803 173
Width: 0
GlyphClass: 4
Flags: W
LayerCount: 2
Fore
SplineSet
-712 -246 m 0,0,1
 -712 -201 -712 -201 -684.5 -170 c 128,-1,2
 -657 -139 -657 -139 -603 -139 c 0,3,4
 -550 -139 -550 -139 -521.5 -170 c 128,-1,5
 -493 -201 -493 -201 -493 -246 c 0,6,7
 -493 -289 -493 -289 -521.5 -319.5 c 128,-1,8
 -550 -350 -550 -350 -603 -350 c 0,9,10
 -657 -350 -657 -350 -684.5 -319.5 c 128,-1,11
 -712 -289 -712 -289 -712 -246 c 0,0,1
EndSplineSet
EndChar

StartChar: tonos
Encoding: 900 900 174
Width: 526
GlyphClass: 1
Flags: W
LayerCount: 2
Fore
SplineSet
184 1263 m 1,0,-1
 238 1599 l 1,1,-1
 412 1599 l 1,2,-1
 296 1263 l 1,3,-1
 184 1263 l 1,0,-1
EndSplineSet
EndChar

StartChar: dieresistonos
Encoding: 901 901 175
Width: 1036
GlyphClass: 1
Flags: W
LayerCount: 2
Fore
SplineSet
433 1409 m 1,0,-1
 481 1673 l 1,1,-1
 669 1673 l 1,2,-1
 569 1409 l 1,3,-1
 433 1409 l 1,0,-1
114 1371 m 0,4,5
 114 1416 114 1416 141.5 1447 c 128,-1,6
 169 1478 169 1478 223 1478 c 0,7,8
 276 1478 276 1478 304.5 1447 c 128,-1,9
 333 1416 333 1416 333 1371 c 0,10,11
 333 1328 333 1328 304.5 1297.5 c 128,-1,12
 276 1267 276 1267 223 1267 c 0,13,14
 169 1267 169 1267 141.5 1297.5 c 128,-1,15
 114 1328 114 1328 114 1371 c 0,4,5
680 1369 m 0,16,17
 680 1414 680 1414 708 1445 c 128,-1,18
 736 1476 736 1476 789 1476 c 0,19,20
 843 1476 843 1476 871 1445 c 128,-1,21
 899 1414 899 1414 899 1369 c 0,22,23
 899 1326 899 1326 871 1295.5 c 128,-1,24
 843 1265 843 1265 789 1265 c 0,25,26
 736 1265 736 1265 708 1295.5 c 128,-1,27
 680 1326 680 1326 680 1369 c 0,16,17
EndSplineSet
EndChar

StartChar: Gamma
Encoding: 915 915 177
Width: 1139
GlyphClass: 2
Flags: W
LayerCount: 2
Fore
SplineSet
1072 1456 m 1,0,-1
 1072 1298 l 1,1,-1
 370 1298 l 1,2,-1
 370 0 l 1,3,-1
 178 0 l 1,4,-1
 178 1456 l 1,5,-1
 1072 1456 l 1,0,-1
EndSplineSet
Substitution2: "'c2sc' Capitals to Small Capitals lookup 0 subtable" Gamma.c2sc
Position2: "'cpsp' Capital Spacing lookup 0 subtable" dx=36 dy=0 dh=72 dv=0
EndChar

StartChar: uni0394
Encoding: 916 916 178
AltUni2: 002206.ffffffff.0 002206.ffffffff.0
Width: 1444
GlyphClass: 1
Flags: W
LayerCount: 2
Fore
SplineSet
770 1320 m 1,0,-1
 230 0 l 1,1,-1
 32 0 l 1,2,-1
 646 1456 l 1,3,-1
 767 1456 l 1,4,-1
 770 1320 l 1,0,-1
1198 0 m 1,5,-1
 688 1328 l 1,6,-1
 694 1456 l 1,7,-1
 816 1456 l 1,8,-1
 1396 0 l 1,9,-1
 1198 0 l 1,5,-1
1244 157 m 1,10,-1
 1244 0 l 1,11,-1
 178 0 l 1,12,-1
 178 157 l 1,13,-1
 1244 157 l 1,10,-1
EndSplineSet
Substitution2: "'c2sc' Capitals to Small Capitals lookup 0 subtable" uni0394.c2sc
PairPos2: "'kern' Horizontal Kerning lookup 4 per glyph data 0" question dx=0 dy=0 dh=-61 dv=0 dx=0 dy=0 dh=0 dv=0
Position2: "'cpsp' Capital Spacing lookup 0 subtable" dx=36 dy=0 dh=72 dv=0
EndChar

StartChar: Theta
Encoding: 920 920 179
Width: 1394
GlyphClass: 1
Flags: W
LayerCount: 2
Fore
SplineSet
960 811 m 1,0,-1
 960 660 l 1,1,-1
 444 660 l 1,2,-1
 444 811 l 1,3,-1
 960 811 l 1,0,-1
1274 774 m 2,4,-1
 1274 682 l 2,5,6
 1274 518 1274 518 1233 388 c 128,-1,7
 1192 258 1192 258 1115 167 c 128,-1,8
 1038 76 1038 76 930.5 28 c 128,-1,9
 823 -20 823 -20 690 -20 c 0,10,11
 587 -20 587 -20 497 11 c 128,-1,12
 407 42 407 42 334.5 101.5 c 128,-1,13
 262 161 262 161 210 246.5 c 128,-1,14
 158 332 158 332 130.5 441.5 c 128,-1,15
 103 551 103 551 103 682 c 2,16,-1
 103 774 l 2,17,18
 103 938 103 938 145.5 1067.5 c 128,-1,19
 188 1197 188 1197 266 1288.5 c 128,-1,20
 344 1380 344 1380 451.5 1428 c 128,-1,21
 559 1476 559 1476 688 1476 c 0,22,23
 794 1476 794 1476 885 1445 c 128,-1,24
 976 1414 976 1414 1047.5 1354.5 c 128,-1,25
 1119 1295 1119 1295 1170 1209.5 c 128,-1,26
 1221 1124 1221 1124 1247.5 1014.5 c 128,-1,27
 1274 905 1274 905 1274 774 c 2,4,-1
1083 682 m 2,28,-1
 1083 776 l 2,29,30
 1083 880 1083 880 1066 964.5 c 128,-1,31
 1049 1049 1049 1049 1016 1114 c 128,-1,32
 983 1179 983 1179 935 1223 c 128,-1,33
 887 1267 887 1267 825 1289.5 c 128,-1,34
 763 1312 763 1312 688 1312 c 0,35,36
 599 1312 599 1312 526.5 1277 c 128,-1,37
 454 1242 454 1242 402 1174 c 128,-1,38
 350 1106 350 1106 322 1006 c 128,-1,39
 294 906 294 906 294 776 c 2,40,-1
 294 682 l 2,41,42
 294 577 294 577 312 492 c 128,-1,43
 330 407 330 407 364.5 341.5 c 128,-1,44
 399 276 399 276 447.5 232 c 128,-1,45
 496 188 496 188 557.5 165.5 c 128,-1,46
 619 143 619 143 690 143 c 0,47,48
 784 143 784 143 857 178 c 128,-1,49
 930 213 930 213 980.5 281.5 c 128,-1,50
 1031 350 1031 350 1057 450.5 c 128,-1,51
 1083 551 1083 551 1083 682 c 2,28,-1
EndSplineSet
Substitution2: "'c2sc' Capitals to Small Capitals lookup 0 subtable" Theta.c2sc
Position2: "'cpsp' Capital Spacing lookup 0 subtable" dx=36 dy=0 dh=72 dv=0
EndChar

StartChar: Lambda
Encoding: 923 923 180
Width: 1343
GlyphClass: 1
Flags: W
LayerCount: 2
Fore
SplineSet
714 1297 m 1,0,-1
 257 0 l 1,1,-1
 50 0 l 1,2,-1
 581 1456 l 1,3,-1
 707 1456 l 1,4,-1
 714 1297 l 1,0,-1
1077 0 m 1,5,-1
 616 1303 l 1,6,-1
 626 1456 l 1,7,-1
 753 1456 l 1,8,-1
 1283 0 l 1,9,-1
 1077 0 l 1,5,-1
EndSplineSet
Substitution2: "'c2sc' Capitals to Small Capitals lookup 0 subtable" Lambda.c2sc
Position2: "'cpsp' Capital Spacing lookup 0 subtable" dx=36 dy=0 dh=72 dv=0
EndChar

StartChar: Xi
Encoding: 926 926 181
Width: 1170
GlyphClass: 1
Flags: W
LayerCount: 2
Fore
SplineSet
120 0 m 1,0,-1
 120 157 l 1,1,-1
 1058 157 l 1,2,-1
 1058 0 l 1,3,-1
 120 0 l 1,0,-1
207 674 m 1,4,-1
 207 831 l 1,5,-1
 961 831 l 1,6,-1
 961 674 l 1,7,-1
 207 674 l 1,4,-1
124 1298 m 1,8,-1
 124 1456 l 1,9,-1
 1041 1456 l 1,10,-1
 1041 1298 l 1,11,-1
 124 1298 l 1,8,-1
EndSplineSet
Substitution2: "'c2sc' Capitals to Small Capitals lookup 0 subtable" Xi.c2sc
Position2: "'cpsp' Capital Spacing lookup 0 subtable" dx=36 dy=0 dh=72 dv=0
EndChar

StartChar: Pi
Encoding: 928 928 182
Width: 1461
GlyphClass: 1
Flags: W
LayerCount: 2
Fore
SplineSet
1281 1456 m 1,0,-1
 1281 0 l 1,1,-1
 1089 0 l 1,2,-1
 1089 1298 l 1,3,-1
 371 1298 l 1,4,-1
 371 0 l 1,5,-1
 178 0 l 1,6,-1
 178 1456 l 1,7,-1
 1281 1456 l 1,0,-1
EndSplineSet
Substitution2: "'c2sc' Capitals to Small Capitals lookup 0 subtable" Pi.c2sc
Position2: "'cpsp' Capital Spacing lookup 0 subtable" dx=36 dy=0 dh=72 dv=0
EndChar

StartChar: Sigma
Encoding: 931 931 183
Width: 1170
GlyphClass: 1
Flags: W
LayerCount: 2
Fore
SplineSet
1092 158 m 1,0,-1
 1092 0 l 1,1,-1
 145 0 l 1,2,-1
 145 158 l 1,3,-1
 1092 158 l 1,0,-1
1044 1456 m 1,4,-1
 1044 1298 l 1,5,-1
 116 1298 l 1,6,-1
 116 1456 l 1,7,-1
 1044 1456 l 1,4,-1
755 742 m 1,8,-1
 755 718 l 1,9,-1
 186 0 l 1,10,-1
 70 0 l 1,11,-1
 70 143 l 1,12,-1
 551 730 l 1,13,-1
 70 1313 l 1,14,-1
 70 1456 l 1,15,-1
 186 1456 l 1,16,-1
 755 742 l 1,8,-1
EndSplineSet
Substitution2: "'c2sc' Capitals to Small Capitals lookup 0 subtable" Sigma.c2sc
Position2: "'cpsp' Capital Spacing lookup 0 subtable" dx=36 dy=0 dh=72 dv=0
EndChar

StartChar: Phi
Encoding: 934 934 184
Width: 1467
GlyphClass: 1
Flags: W
LayerCount: 2
Fore
SplineSet
818 176 m 2,0,-1
 655 176 l 2,1,2
 525 176 525 176 419 215.5 c 128,-1,3
 313 255 313 255 236.5 327.5 c 128,-1,4
 160 400 160 400 119 500.5 c 128,-1,5
 78 601 78 601 78 722 c 0,6,7
 78 884 78 884 151 1008 c 128,-1,8
 224 1132 224 1132 352.5 1202 c 128,-1,9
 481 1272 481 1272 650 1272 c 2,10,-1
 822 1272 l 2,11,12
 949 1272 949 1272 1054 1232.5 c 128,-1,13
 1159 1193 1159 1193 1235.5 1119.5 c 128,-1,14
 1312 1046 1312 1046 1354 946 c 128,-1,15
 1396 846 1396 846 1396 724 c 0,16,17
 1396 562 1396 562 1324 438.5 c 128,-1,18
 1252 315 1252 315 1122 245.5 c 128,-1,19
 992 176 992 176 818 176 c 2,0,-1
655 335 m 2,20,-1
 820 335 l 2,21,22
 951 335 951 335 1036 383 c 128,-1,23
 1121 431 1121 431 1163 518.5 c 128,-1,24
 1205 606 1205 606 1205 724 c 0,25,26
 1205 813 1205 813 1181 884.5 c 128,-1,27
 1157 956 1157 956 1109.5 1007 c 128,-1,28
 1062 1058 1062 1058 990.5 1085.5 c 128,-1,29
 919 1113 919 1113 824 1113 c 2,30,-1
 650 1113 l 2,31,32
 523 1113 523 1113 438 1064.5 c 128,-1,33
 353 1016 353 1016 310.5 928.5 c 128,-1,34
 268 841 268 841 268 722 c 0,35,36
 268 634 268 634 291.5 562.5 c 128,-1,37
 315 491 315 491 363 440 c 128,-1,38
 411 389 411 389 484 362 c 128,-1,39
 557 335 557 335 655 335 c 2,20,-1
834 1456 m 1,40,-1
 834 0 l 1,41,-1
 641 0 l 1,42,-1
 641 1456 l 1,43,-1
 834 1456 l 1,40,-1
EndSplineSet
Substitution2: "'c2sc' Capitals to Small Capitals lookup 0 subtable" Phi.c2sc
Position2: "'cpsp' Capital Spacing lookup 0 subtable" dx=36 dy=0 dh=72 dv=0
EndChar

StartChar: Psi
Encoding: 936 936 185
Width: 1417
GlyphClass: 1
Flags: W
LayerCount: 2
Fore
SplineSet
1120 1456 m 1,0,-1
 1314 1456 l 1,1,-1
 1314 930 l 2,2,3
 1314 747 1314 747 1235.5 619.5 c 128,-1,4
 1157 492 1157 492 1020 425.5 c 128,-1,5
 883 359 883 359 708 359 c 2,6,-1
 679 359 l 2,7,8
 552 359 552 359 444 396.5 c 128,-1,9
 336 434 336 434 257 507 c 128,-1,10
 178 580 178 580 134 686.5 c 128,-1,11
 90 793 90 793 90 930 c 2,12,-1
 90 1456 l 1,13,-1
 282 1456 l 1,14,-1
 282 930 l 2,15,16
 282 831 282 831 311.5 754 c 128,-1,17
 341 677 341 677 394 624 c 128,-1,18
 447 571 447 571 520 544 c 128,-1,19
 593 517 593 517 680 517 c 2,20,-1
 709 517 l 2,21,22
 832 517 832 517 924.5 565 c 128,-1,23
 1017 613 1017 613 1068.5 705.5 c 128,-1,24
 1120 798 1120 798 1120 930 c 2,25,-1
 1120 1456 l 1,0,-1
791 1456 m 1,26,-1
 791 0 l 1,27,-1
 598 0 l 1,28,-1
 598 1456 l 1,29,-1
 791 1456 l 1,26,-1
EndSplineSet
Substitution2: "'c2sc' Capitals to Small Capitals lookup 0 subtable" Psi.c2sc
Position2: "'cpsp' Capital Spacing lookup 0 subtable" dx=36 dy=0 dh=72 dv=0
EndChar

StartChar: uni03A9
Encoding: 937 937 186
AltUni2: 002126.ffffffff.0 002126.ffffffff.0
Width: 1362
GlyphClass: 2
Flags: W
LayerCount: 2
Fore
SplineSet
1033 726 m 2,0,-1
 1033 842 l 2,1,2
 1033 959 1033 959 1008 1048 c 128,-1,3
 983 1137 983 1137 935 1197.5 c 128,-1,4
 887 1258 887 1258 820 1288.5 c 128,-1,5
 753 1319 753 1319 669 1319 c 0,6,7
 586 1319 586 1319 519.5 1288.5 c 128,-1,8
 453 1258 453 1258 406 1197.5 c 128,-1,9
 359 1137 359 1137 334 1048 c 128,-1,10
 309 959 309 959 309 842 c 2,11,-1
 309 726 l 2,12,13
 309 598 309 598 330.5 499 c 128,-1,14
 352 400 352 400 392 329.5 c 128,-1,15
 432 259 432 259 487.5 217.5 c 128,-1,16
 543 176 543 176 610 163 c 1,17,-1
 610 22 l 1,18,19
 502 35 502 35 411.5 98.5 c 128,-1,20
 321 162 321 162 254.5 260.5 c 128,-1,21
 188 359 188 359 151 479 c 128,-1,22
 114 599 114 599 114 726 c 2,23,-1
 114 840 l 2,24,25
 114 982 114 982 154 1098.5 c 128,-1,26
 194 1215 194 1215 268 1299.5 c 128,-1,27
 342 1384 342 1384 443.5 1430 c 128,-1,28
 545 1476 545 1476 669 1476 c 0,29,30
 794 1476 794 1476 896.5 1430 c 128,-1,31
 999 1384 999 1384 1073 1299.5 c 128,-1,32
 1147 1215 1147 1215 1187.5 1098.5 c 128,-1,33
 1228 982 1228 982 1228 840 c 2,34,-1
 1228 726 l 2,35,36
 1228 600 1228 600 1191.5 480 c 128,-1,37
 1155 360 1155 360 1089 261.5 c 128,-1,38
 1023 163 1023 163 933.5 99.5 c 128,-1,39
 844 36 844 36 738 22 c 1,40,-1
 738 163 l 1,41,42
 804 177 804 177 858.5 218.5 c 128,-1,43
 913 260 913 260 952 330.5 c 128,-1,44
 991 401 991 401 1012 500 c 128,-1,45
 1033 599 1033 599 1033 726 c 2,0,-1
738 0 m 1,46,-1
 738 157 l 1,47,-1
 1221 157 l 1,48,-1
 1221 0 l 1,49,-1
 738 0 l 1,46,-1
118 0 m 1,50,-1
 118 157 l 1,51,-1
 610 157 l 1,52,-1
 610 0 l 1,53,-1
 118 0 l 1,50,-1
EndSplineSet
Substitution2: "'c2sc' Capitals to Small Capitals lookup 0 subtable" uni03A9.c2sc
Position2: "'cpsp' Capital Spacing lookup 0 subtable" dx=36 dy=0 dh=72 dv=0
EndChar

StartChar: alpha
Encoding: 945 945 187
Width: 1158
GlyphClass: 2
Flags: W
LayerCount: 2
Fore
SplineSet
100 501 m 2,0,-1
 100 522 l 2,1,2
 100 650 100 650 128 756 c 128,-1,3
 156 862 156 862 209.5 939.5 c 128,-1,4
 263 1017 263 1017 342 1059.5 c 128,-1,5
 421 1102 421 1102 523 1102 c 0,6,7
 601 1102 601 1102 663.5 1079 c 128,-1,8
 726 1056 726 1056 774 1011.5 c 128,-1,9
 822 967 822 967 856 903.5 c 128,-1,10
 890 840 890 840 911 759 c 128,-1,11
 932 678 932 678 941 581 c 1,12,-1
 941 498 l 1,13,14
 930 378 930 378 900 282.5 c 128,-1,15
 870 187 870 187 819 119 c 128,-1,16
 768 51 768 51 694 15 c 128,-1,17
 620 -21 620 -21 521 -21 c 0,18,19
 421 -21 421 -21 342.5 17.5 c 128,-1,20
 264 56 264 56 210 126 c 128,-1,21
 156 196 156 196 128 291.5 c 128,-1,22
 100 387 100 387 100 501 c 2,0,-1
286 522 m 2,23,-1
 286 501 l 2,24,25
 286 424 286 424 302 357 c 128,-1,26
 318 290 318 290 351.5 239 c 128,-1,27
 385 188 385 188 438.5 159.5 c 128,-1,28
 492 131 492 131 567 131 c 0,29,30
 640 131 640 131 692 161 c 128,-1,31
 744 191 744 191 779.5 242.5 c 128,-1,32
 815 294 815 294 838.5 360 c 128,-1,33
 862 426 862 426 878 497 c 1,34,-1
 878 563 l 1,35,36
 866 636 866 636 843.5 705 c 128,-1,37
 821 774 821 774 784.5 829.5 c 128,-1,38
 748 885 748 885 695 917.5 c 128,-1,39
 642 950 642 950 569 950 c 0,40,41
 493 950 493 950 439.5 916 c 128,-1,42
 386 882 386 882 352 823 c 128,-1,43
 318 764 318 764 302 686.5 c 128,-1,44
 286 609 286 609 286 522 c 2,23,-1
850 1082 m 1,45,-1
 1007 1082 l 1,46,-1
 1007 295 l 2,47,48
 1007 249 1007 249 1013 220 c 128,-1,49
 1019 191 1019 191 1030.5 174.5 c 128,-1,50
 1042 158 1042 158 1056.5 151.5 c 128,-1,51
 1071 145 1071 145 1087 145 c 0,52,53
 1097 145 1097 145 1105.5 147 c 128,-1,54
 1114 149 1114 149 1121 151 c 1,55,-1
 1144 13 l 1,56,57
 1113 -9 1113 -9 1083 -15 c 128,-1,58
 1053 -21 1053 -21 1021 -21 c 0,59,60
 974 -21 974 -21 937 -3.5 c 128,-1,61
 900 14 900 14 874 51.5 c 128,-1,62
 848 89 848 89 834.5 149.5 c 128,-1,63
 821 210 821 210 821 295 c 2,64,-1
 821 847 l 1,65,-1
 850 1082 l 1,45,-1
EndSplineSet
Substitution2: "'ss02' Style Set 2 lookup 13 subtable" alpha.ss02
Substitution2: "'smcp' Lowercase to Small Capitals lookup 1 subtable" Alpha.c2sc
EndChar

StartChar: beta
Encoding: 946 946 188
Width: 1213
GlyphClass: 1
Flags: W
LayerCount: 2
Fore
SplineSet
517 824 m 1,0,-1
 664 824 l 2,1,2
 803 824 803 824 900.5 771.5 c 128,-1,3
 998 719 998 719 1050 629 c 128,-1,4
 1102 539 1102 539 1102 425 c 0,5,6
 1102 283 1102 283 1043.5 183.5 c 128,-1,7
 985 84 985 84 882.5 32 c 128,-1,8
 780 -20 780 -20 648 -20 c 0,9,10
 570 -20 570 -20 493.5 2 c 128,-1,11
 417 24 417 24 354 69.5 c 128,-1,12
 291 115 291 115 253.5 187 c 128,-1,13
 216 259 216 259 216 358 c 1,14,-1
 289 399 l 1,15,16
 289 326 289 326 332 265 c 128,-1,17
 375 204 375 204 451.5 167.5 c 128,-1,18
 528 131 528 131 629 131 c 0,19,20
 721 131 721 131 785 168.5 c 128,-1,21
 849 206 849 206 882.5 271.5 c 128,-1,22
 916 337 916 337 916 421 c 0,23,24
 916 491 916 491 886.5 556.5 c 128,-1,25
 857 622 857 622 800 664 c 128,-1,26
 743 706 743 706 660 706 c 2,27,-1
 517 706 l 1,28,-1
 517 824 l 1,0,-1
606 1476 m 0,29,30
 736 1476 736 1476 832 1426 c 128,-1,31
 928 1376 928 1376 980.5 1287.5 c 128,-1,32
 1033 1199 1033 1199 1033 1084 c 0,33,34
 1033 989 1033 989 980 910.5 c 128,-1,35
 927 832 927 832 831 785 c 128,-1,36
 735 738 735 738 606 738 c 2,37,-1
 517 738 l 1,38,-1
 517 858 l 1,39,-1
 602 858 l 2,40,41
 690 858 690 858 744 887.5 c 128,-1,42
 798 917 798 917 823 969 c 128,-1,43
 848 1021 848 1021 848 1088 c 0,44,45
 848 1148 848 1148 821 1202 c 128,-1,46
 794 1256 794 1256 740.5 1290 c 128,-1,47
 687 1324 687 1324 606 1324 c 0,48,49
 533 1324 533 1324 474 1291.5 c 128,-1,50
 415 1259 415 1259 380.5 1202 c 128,-1,51
 346 1145 346 1145 346 1073 c 2,52,-1
 346 -384 l 1,53,-1
 161 -384 l 1,54,-1
 161 1073 l 2,55,56
 161 1184 161 1184 222 1275.5 c 128,-1,57
 283 1367 283 1367 384 1421.5 c 128,-1,58
 485 1476 485 1476 606 1476 c 0,29,30
EndSplineSet
Substitution2: "'smcp' Lowercase to Small Capitals lookup 1 subtable" Beta.c2sc
EndChar

StartChar: gamma
Encoding: 947 947 189
Width: 1027
GlyphClass: 1
Flags: W
LayerCount: 2
Fore
SplineSet
612 132 m 1,0,-1
 612 -417 l 1,1,-1
 427 -417 l 1,2,-1
 427 132 l 1,3,-1
 612 132 l 1,0,-1
514 251 m 1,4,-1
 802 1082 l 1,5,-1
 992 1082 l 1,6,-1
 591 0 l 1,7,-1
 468 0 l 1,8,-1
 514 251 l 1,4,-1
236 1082 m 1,9,-1
 532 250 l 1,10,-1
 573 0 l 1,11,-1
 450 0 l 1,12,-1
 47 1082 l 1,13,-1
 236 1082 l 1,9,-1
EndSplineSet
Substitution2: "'smcp' Lowercase to Small Capitals lookup 1 subtable" Gamma.c2sc
EndChar

StartChar: delta
Encoding: 948 948 190
Width: 1161
GlyphClass: 1
Flags: W
LayerCount: 2
Fore
SplineSet
221 1269 m 0,0,1
 221 1360 221 1360 267 1426.5 c 128,-1,2
 313 1493 313 1493 397.5 1529 c 128,-1,3
 482 1565 482 1565 600 1565 c 0,4,5
 679 1565 679 1565 742 1551.5 c 128,-1,6
 805 1538 805 1538 872 1509 c 1,7,-1
 871 1350 l 1,8,9
 825 1367 825 1367 751.5 1388 c 128,-1,10
 678 1409 678 1409 596 1409 c 0,11,12
 539 1409 539 1409 497 1392.5 c 128,-1,13
 455 1376 455 1376 432 1345.5 c 128,-1,14
 409 1315 409 1315 409 1274 c 0,15,16
 409 1254 409 1254 419 1231 c 128,-1,17
 429 1208 429 1208 454 1184 c 128,-1,18
 479 1160 479 1160 524 1135.5 c 128,-1,19
 569 1111 569 1111 640 1087 c 0,20,21
 783 1038 783 1038 877 959.5 c 128,-1,22
 971 881 971 881 1017.5 773.5 c 128,-1,23
 1064 666 1064 666 1064 531 c 2,24,-1
 1064 509 l 2,25,26
 1064 396 1064 396 1031.5 299.5 c 128,-1,27
 999 203 999 203 936.5 131.5 c 128,-1,28
 874 60 874 60 784.5 20 c 128,-1,29
 695 -20 695 -20 582 -20 c 0,30,31
 467 -20 467 -20 377 20 c 128,-1,32
 287 60 287 60 224.5 131.5 c 128,-1,33
 162 203 162 203 129.5 299.5 c 128,-1,34
 97 396 97 396 97 509 c 2,35,-1
 97 531 l 2,36,37
 97 650 97 650 143 747 c 128,-1,38
 189 844 189 844 264.5 909 c 128,-1,39
 340 974 340 974 428 995 c 1,40,-1
 427 1000 l 1,41,42
 362 1026 362 1026 315.5 1066 c 128,-1,43
 269 1106 269 1106 245 1158 c 128,-1,44
 221 1210 221 1210 221 1269 c 0,0,1
283 531 m 2,45,-1
 283 509 l 2,46,47
 283 432 283 432 301 364 c 128,-1,48
 319 296 319 296 355.5 243.5 c 128,-1,49
 392 191 392 191 448.5 161 c 128,-1,50
 505 131 505 131 582 131 c 0,51,52
 658 131 658 131 713.5 161 c 128,-1,53
 769 191 769 191 805.5 243.5 c 128,-1,54
 842 296 842 296 859.5 364 c 128,-1,55
 877 432 877 432 877 509 c 2,56,-1
 877 531 l 2,57,58
 877 595 877 595 856 657 c 128,-1,59
 835 719 835 719 796 772 c 128,-1,60
 757 825 757 825 703.5 861.5 c 128,-1,61
 650 898 650 898 584 911 c 1,62,63
 508 911 508 911 451 880.5 c 128,-1,64
 394 850 394 850 357 797 c 128,-1,65
 320 744 320 744 301.5 675.5 c 128,-1,66
 283 607 283 607 283 531 c 2,45,-1
EndSplineSet
Substitution2: "'smcp' Lowercase to Small Capitals lookup 1 subtable" uni0394.c2sc
EndChar

StartChar: epsilon
Encoding: 949 949 191
Width: 1105
GlyphClass: 2
Flags: W
LayerCount: 2
Fore
SplineSet
525 587 m 2,0,-1
 745 587 l 1,1,-1
 745 479 l 1,2,-1
 540 479 l 2,3,4
 457 479 457 479 400.5 460.5 c 128,-1,5
 344 442 344 442 315 403.5 c 128,-1,6
 286 365 286 365 286 304 c 0,7,8
 286 269 286 269 303.5 237.5 c 128,-1,9
 321 206 321 206 355.5 182 c 128,-1,10
 390 158 390 158 439.5 144 c 128,-1,11
 489 130 489 130 552 130 c 0,12,13
 633 130 633 130 693 157 c 128,-1,14
 753 184 753 184 786.5 227.5 c 128,-1,15
 820 271 820 271 820 320 c 1,16,-1
 1004 320 l 1,17,18
 1004 232 1004 232 965 167.5 c 128,-1,19
 926 103 926 103 861 61.5 c 128,-1,20
 796 20 796 20 715.5 0 c 128,-1,21
 635 -20 635 -20 552 -20 c 0,22,23
 454 -20 454 -20 371.5 2 c 128,-1,24
 289 24 289 24 228 66 c 128,-1,25
 167 108 167 108 133.5 168.5 c 128,-1,26
 100 229 100 229 100 305 c 0,27,28
 100 373 100 373 128.5 425.5 c 128,-1,29
 157 478 157 478 211.5 514 c 128,-1,30
 266 550 266 550 345 568.5 c 128,-1,31
 424 587 424 587 525 587 c 2,0,-1
745 517 m 1,32,-1
 525 517 l 2,33,34
 433 517 433 517 358 538 c 128,-1,35
 283 559 283 559 229.5 596.5 c 128,-1,36
 176 634 176 634 147.5 683 c 128,-1,37
 119 732 119 732 119 787 c 0,38,39
 119 864 119 864 149.5 922.5 c 128,-1,40
 180 981 180 981 237 1020.5 c 128,-1,41
 294 1060 294 1060 374 1080.5 c 128,-1,42
 454 1101 454 1101 552 1101 c 0,43,44
 641 1101 641 1101 719 1079 c 128,-1,45
 797 1057 797 1057 857.5 1015 c 128,-1,46
 918 973 918 973 952 914 c 128,-1,47
 986 855 986 855 986 781 c 1,48,-1
 802 781 l 1,49,50
 802 829 802 829 768.5 867.5 c 128,-1,51
 735 906 735 906 678.5 928.5 c 128,-1,52
 622 951 622 951 552 951 c 0,53,54
 467 951 467 951 412 927.5 c 128,-1,55
 357 904 357 904 330.5 866.5 c 128,-1,56
 304 829 304 829 304 787 c 0,57,58
 304 752 304 752 317.5 722.5 c 128,-1,59
 331 693 331 693 359 671.5 c 128,-1,60
 387 650 387 650 432 638 c 128,-1,61
 477 626 477 626 540 626 c 2,62,-1
 745 626 l 1,63,-1
 745 517 l 1,32,-1
EndSplineSet
Substitution2: "'smcp' Lowercase to Small Capitals lookup 1 subtable" Epsilon.c2sc
EndChar

StartChar: zeta
Encoding: 950 950 192
Width: 1061
GlyphClass: 1
Flags: W
LayerCount: 2
Fore
SplineSet
880 1456 m 1,0,-1
 964 1456 l 1,1,-1
 964 1336 l 1,2,-1
 613 910 l 2,3,4
 536 818 536 818 482.5 737 c 128,-1,5
 429 656 429 656 401.5 572 c 128,-1,6
 374 488 374 488 374 386 c 0,7,8
 374 338 374 338 383 303 c 128,-1,9
 392 268 392 268 411 242.5 c 128,-1,10
 430 217 430 217 460.5 200 c 128,-1,11
 491 183 491 183 533 171 c 2,12,-1
 663 133 l 2,13,14
 737 112 737 112 795.5 92.5 c 128,-1,15
 854 73 854 73 887.5 33.5 c 128,-1,16
 921 -6 921 -6 921 -88 c 0,17,18
 921 -141 921 -141 891.5 -198.5 c 128,-1,19
 862 -256 862 -256 821.5 -305.5 c 128,-1,20
 781 -355 781 -355 745 -384 c 1,21,-1
 647 -299 l 1,22,23
 678 -264 678 -264 699.5 -234 c 128,-1,24
 721 -204 721 -204 732.5 -175.5 c 128,-1,25
 744 -147 744 -147 744 -117 c 0,26,27
 744 -94 744 -94 728 -75 c 128,-1,28
 712 -56 712 -56 678.5 -40 c 128,-1,29
 645 -24 645 -24 591 -10 c 2,30,-1
 501 14 l 2,31,32
 414 37 414 37 354.5 68 c 128,-1,33
 295 99 295 99 258 142 c 128,-1,34
 221 185 221 185 204.5 243.5 c 128,-1,35
 188 302 188 302 188 381 c 0,36,37
 188 455 188 455 216 551 c 128,-1,38
 244 647 244 647 305.5 758 c 128,-1,39
 367 869 367 869 467 988 c 2,40,-1
 880 1456 l 1,0,-1
109 1456 m 1,41,-1
 906 1456 l 1,42,-1
 906 1305 l 1,43,-1
 109 1305 l 1,44,-1
 109 1456 l 1,41,-1
EndSplineSet
Substitution2: "'smcp' Lowercase to Small Capitals lookup 1 subtable" Zeta.c2sc
EndChar

StartChar: eta
Encoding: 951 951 193
Width: 1161
GlyphClass: 2
Flags: W
LayerCount: 2
Fore
SplineSet
331 851 m 1,0,-1
 331 0 l 1,1,-1
 146 0 l 1,2,-1
 146 1082 l 1,3,-1
 312 1082 l 1,4,-1
 331 851 l 1,0,-1
293 576 m 1,5,-1
 215 574 l 1,6,7
 215 689 215 689 244 785.5 c 128,-1,8
 273 882 273 882 328.5 953 c 128,-1,9
 384 1024 384 1024 463.5 1063 c 128,-1,10
 543 1102 543 1102 643 1102 c 0,11,12
 727 1102 727 1102 795 1082 c 128,-1,13
 863 1062 863 1062 910.5 1015 c 128,-1,14
 958 968 958 968 983.5 889.5 c 128,-1,15
 1009 811 1009 811 1009 694 c 2,16,-1
 1009 -415 l 1,17,-1
 824 -415 l 1,18,-1
 824 691 l 2,19,20
 824 765 824 765 808.5 815 c 128,-1,21
 793 865 793 865 762.5 894.5 c 128,-1,22
 732 924 732 924 688.5 937 c 128,-1,23
 645 950 645 950 588 950 c 0,24,25
 509 950 509 950 453 920.5 c 128,-1,26
 397 891 397 891 361.5 839 c 128,-1,27
 326 787 326 787 309.5 719.5 c 128,-1,28
 293 652 293 652 293 576 c 1,5,-1
EndSplineSet
Substitution2: "'smcp' Lowercase to Small Capitals lookup 1 subtable" Eta.c2sc
EndChar

StartChar: theta
Encoding: 952 952 194
Width: 1167
GlyphClass: 1
Flags: W
LayerCount: 2
Fore
SplineSet
582 1476 m 0,0,1
 667 1476 667 1476 738 1451.5 c 128,-1,2
 809 1427 809 1427 865.5 1376.5 c 128,-1,3
 922 1326 922 1326 961.5 1248.5 c 128,-1,4
 1001 1171 1001 1171 1021.5 1065.5 c 128,-1,5
 1042 960 1042 960 1042 825 c 2,6,-1
 1042 640 l 2,7,8
 1042 505 1042 505 1021.5 399 c 128,-1,9
 1001 293 1001 293 962 214 c 128,-1,10
 923 135 923 135 867 83 c 128,-1,11
 811 31 811 31 740 5.5 c 128,-1,12
 669 -20 669 -20 584 -20 c 0,13,14
 500 -20 500 -20 429 5.5 c 128,-1,15
 358 31 358 31 301.5 83 c 128,-1,16
 245 135 245 135 205 214 c 128,-1,17
 165 293 165 293 144 399 c 128,-1,18
 123 505 123 505 123 640 c 2,19,-1
 123 825 l 2,20,21
 123 960 123 960 144 1065.5 c 128,-1,22
 165 1171 165 1171 204.5 1248.5 c 128,-1,23
 244 1326 244 1326 300 1376.5 c 128,-1,24
 356 1427 356 1427 427 1451.5 c 128,-1,25
 498 1476 498 1476 582 1476 c 0,0,1
582 1325 m 0,26,27
 516 1325 516 1325 464.5 1294 c 128,-1,28
 413 1263 413 1263 378.5 1203 c 128,-1,29
 344 1143 344 1143 326 1056 c 128,-1,30
 308 969 308 969 308 856 c 2,31,-1
 308 801 l 1,32,-1
 857 801 l 1,33,-1
 857 856 l 2,34,35
 857 946 857 946 845.5 1020 c 128,-1,36
 834 1094 834 1094 812 1151 c 128,-1,37
 790 1208 790 1208 756.5 1246.5 c 128,-1,38
 723 1285 723 1285 679.5 1305 c 128,-1,39
 636 1325 636 1325 582 1325 c 0,26,27
584 132 m 0,40,41
 638 132 638 132 681.5 153 c 128,-1,42
 725 174 725 174 758 214 c 128,-1,43
 791 254 791 254 813 312.5 c 128,-1,44
 835 371 835 371 846 446 c 128,-1,45
 857 521 857 521 857 611 c 2,46,-1
 857 650 l 1,47,-1
 308 650 l 1,48,-1
 308 611 l 2,49,50
 308 521 308 521 319.5 446 c 128,-1,51
 331 371 331 371 354 312.5 c 128,-1,52
 377 254 377 254 410.5 214 c 128,-1,53
 444 174 444 174 487.5 153 c 128,-1,54
 531 132 531 132 584 132 c 0,40,41
EndSplineSet
Substitution2: "'smcp' Lowercase to Small Capitals lookup 1 subtable" Theta.c2sc
EndChar

StartChar: iota
Encoding: 953 953 195
Width: 664
GlyphClass: 2
Flags: W
LayerCount: 2
Fore
SplineSet
195 1082 m 1,0,-1
 381 1082 l 1,1,-1
 381 276 l 2,2,3
 381 221 381 221 398 193 c 128,-1,4
 415 165 415 165 442 155.5 c 128,-1,5
 469 146 469 146 500 146 c 0,6,7
 523 146 523 146 548.5 150.5 c 128,-1,8
 574 155 574 155 587 158 c 1,9,-1
 588 8 l 1,10,11
 566 1 566 1 530.5 -6 c 128,-1,12
 495 -13 495 -13 445 -13 c 0,13,14
 377 -13 377 -13 320 14.5 c 128,-1,15
 263 42 263 42 229 105.5 c 128,-1,16
 195 169 195 169 195 277 c 2,17,-1
 195 1082 l 1,0,-1
EndSplineSet
Substitution2: "'smcp' Lowercase to Small Capitals lookup 1 subtable" Iota.c2sc
EndChar

StartChar: lambda
Encoding: 955 955 196
Width: 1135
GlyphClass: 2
Flags: W
LayerCount: 2
Fore
SplineSet
539 807 m 1,0,-1
 243 0 l 1,1,-1
 38 0 l 1,2,-1
 459 1102 l 1,3,-1
 589 1090 l 1,4,-1
 539 807 l 1,0,-1
262 1518 m 0,5,6
 318 1518 318 1518 359 1506 c 128,-1,7
 400 1494 400 1494 429.5 1471 c 128,-1,8
 459 1448 459 1448 479 1416 c 128,-1,9
 499 1384 499 1384 513 1344 c 2,10,-1
 940 234 l 2,11,12
 954 201 954 201 968 181.5 c 128,-1,13
 982 162 982 162 999 153.5 c 128,-1,14
 1016 145 1016 145 1040 145 c 0,15,16
 1049 145 1049 145 1059.5 145.5 c 128,-1,17
 1070 146 1070 146 1077 147 c 1,18,-1
 1083 -5 l 1,19,20
 1072 -9 1072 -9 1050.5 -13 c 128,-1,21
 1029 -17 1029 -17 1006 -17 c 0,22,23
 945 -17 945 -17 901.5 -2.5 c 128,-1,24
 858 12 858 12 825 55.5 c 128,-1,25
 792 99 792 99 759 186 c 2,26,-1
 453 978 l 1,27,-1
 335 1265 l 2,28,29
 320 1303 320 1303 303.5 1325 c 128,-1,30
 287 1347 287 1347 265.5 1356.5 c 128,-1,31
 244 1366 244 1366 214 1366 c 0,32,33
 206 1366 206 1366 191 1365.5 c 128,-1,34
 176 1365 176 1365 167 1364 c 1,35,-1
 166 1506 l 1,36,37
 181 1511 181 1511 211 1514.5 c 128,-1,38
 241 1518 241 1518 262 1518 c 0,5,6
EndSplineSet
Substitution2: "'smcp' Lowercase to Small Capitals lookup 1 subtable" Lambda.c2sc
EndChar

StartChar: xi
Encoding: 958 958 197
Width: 1004
GlyphClass: 1
Flags: W
LayerCount: 2
Fore
SplineSet
909 1437 m 1,0,-1
 883 1289 l 1,1,2
 846 1299 846 1299 808.5 1307 c 128,-1,3
 771 1315 771 1315 732.5 1320 c 128,-1,4
 694 1325 694 1325 654 1325 c 0,5,6
 549 1325 549 1325 482 1298.5 c 128,-1,7
 415 1272 415 1272 383.5 1229.5 c 128,-1,8
 352 1187 352 1187 352 1137 c 0,9,10
 352 1088 352 1088 370.5 1047.5 c 128,-1,11
 389 1007 389 1007 428 978 c 128,-1,12
 467 949 467 949 529 933.5 c 128,-1,13
 591 918 591 918 678 918 c 2,14,-1
 819 918 l 1,15,-1
 819 802 l 1,16,-1
 674 802 l 2,17,18
 559 802 559 802 466 827.5 c 128,-1,19
 373 853 373 853 306 898 c 128,-1,20
 239 943 239 943 203 1003 c 128,-1,21
 167 1063 167 1063 167 1133 c 0,22,23
 167 1215 167 1215 201 1278.5 c 128,-1,24
 235 1342 235 1342 299 1386 c 128,-1,25
 363 1430 363 1430 452 1453 c 128,-1,26
 541 1476 541 1476 652 1476 c 0,27,28
 699 1476 699 1476 746 1471 c 128,-1,29
 793 1466 793 1466 835.5 1457 c 128,-1,30
 878 1448 878 1448 909 1437 c 1,0,-1
674 878 m 2,31,-1
 819 878 l 1,32,-1
 819 766 l 1,33,-1
 678 766 l 2,34,35
 554 766 554 766 466.5 731.5 c 128,-1,36
 379 697 379 697 333 625.5 c 128,-1,37
 287 554 287 554 287 444 c 0,38,39
 287 355 287 355 327 294 c 128,-1,40
 367 233 367 233 431 196.5 c 128,-1,41
 495 160 495 160 568 142 c 2,42,-1
 679 116 l 2,43,44
 761 96 761 96 818.5 73 c 128,-1,45
 876 50 876 50 907 10 c 128,-1,46
 938 -30 938 -30 938 -101 c 0,47,48
 937 -154 937 -154 907.5 -210.5 c 128,-1,49
 878 -267 878 -267 837.5 -316 c 128,-1,50
 797 -365 797 -365 762 -394 c 1,51,-1
 655 -309 l 1,52,53
 685 -274 685 -274 709 -247 c 128,-1,54
 733 -220 733 -220 747 -191 c 128,-1,55
 761 -162 761 -162 761 -123 c 0,56,57
 761 -97 761 -97 745.5 -79.5 c 128,-1,58
 730 -62 730 -62 696.5 -48.5 c 128,-1,59
 663 -35 663 -35 607 -22 c 2,60,-1
 549 -8 l 2,61,62
 450 15 450 15 368 48 c 128,-1,63
 286 81 286 81 226.5 131.5 c 128,-1,64
 167 182 167 182 134.5 259 c 128,-1,65
 102 336 102 336 102 448 c 0,66,67
 102 554 102 554 144 634 c 128,-1,68
 186 714 186 714 262.5 768.5 c 128,-1,69
 339 823 339 823 443.5 850.5 c 128,-1,70
 548 878 548 878 674 878 c 2,31,-1
EndSplineSet
Substitution2: "'smcp' Lowercase to Small Capitals lookup 1 subtable" Xi.c2sc
EndChar

